<?xml version="1.0" standalone="no"?>
<!DOCTYPE svg PUBLIC "-//W3C//DTD SVG 1.1//EN" "http://www.w3.org/Graphics/SVG/1.1/DTD/svg11.dtd" >
<svg xmlns="http://www.w3.org/2000/svg" xmlns:xlink="http://www.w3.org/1999/xlink" version="1.1">
<metadata>
Created by FontForge 20170731 at Mon May 10 13:36:00 2021
 By Aleksey,,,
Copyright (c) 2009 by Hannes von Doehren. All rights reserved.
</metadata>
<defs>
<font id="BrandonGrotesque-Bold" horiz-adv-x="1024" >
  <font-face 
    font-family="Brandon Grotesque Bold"
    font-weight="450"
    font-stretch="normal"
    units-per-em="2048"
    panose-1="2 11 8 3 2 2 3 6 2 2"
    ascent="1434"
    descent="-614"
    x-height="819"
    cap-height="1434"
    bbox="-322 -786.023 2275.24 2135.68"
    underline-thickness="102"
    underline-position="-409"
    unicode-range="U+0020-FB02"
  />
<missing-glyph horiz-adv-x="1226" 
d="M102 61v1311q0 62 62 62h899q61 0 61 -62v-1311q0 -61 -61 -61h-899q-62 0 -62 61zM537 643q0 -25 28 -25h74q31 0 31 27v53q0 34 33 66q35 33 74 58q39 24 74 75q34 49 34 109q0 97 -73 162t-183 65q-51 0 -96 -13t-75 -31q-32 -19 -53 -36q-16 -13 -32 -31l-11 -14
q-17 -25 0 -37l46 -45q18 -12 34 0l2 2q2 2 6 5.5t8 6.5l19 19q3 3 24 17t31 18q18 7 37 11q25 5 45 5q59 0 93 -31q32 -29 32 -75q0 -43 -31 -80t-70 -62t-70 -66t-31 -94v-59zM502 319q0 -41 29 -69q31 -29 69 -29q40 0 71 29q29 28 29 69q0 42 -29 70q-31 29 -71 29
q-38 0 -69 -29q-29 -28 -29 -70z" />
    <glyph glyph-name="fi" unicode="fi" horiz-adv-x="1140" 
d="M172 39v565h-70q-16 0 -27 11q-12 12 -12 28v137q0 39 39 39h70v223q0 183 115 298q114 114 288 114q157 0 314 -88q33 -18 12 -53l-70 -129q-18 -37 -55 -19q-116 58 -198 58q-62 0 -106 -47t-44 -136v-221h551q17 0 28 -11t11 -28v-741q0 -16 -11 -27q-12 -12 -28 -12
h-170q-17 0 -28 11t-11 28v565h-342v-565q0 -39 -78 -39h-139q-15 0 -27 12t-12 27z" />
    <glyph glyph-name="fl" unicode="fl" horiz-adv-x="1167" 
d="M172 39v567h-74q-16 0 -27 10q-12 10 -12 27v135q0 17 12 29t27 12h74v223q0 193 116 303q115 109 287 109q80 0 153 -29q75 -30 108 -57l32 -29l23 58q16 37 49 37h66q13 0 26 -13q12 -12 12 -26v-1356q0 -15 -12 -27t-26 -12h-172q-15 0 -27 12t-12 27v1081
q-10 15 -31 34q-20 18 -69 43q-48 24 -97 24q-72 0 -122 -45t-50 -136v-221h172q17 0 28 -11t11 -28v-135q0 -16 -11 -27q-12 -12 -28 -12h-172v-567q0 -15 -12 -27t-27 -12h-178q-15 0 -26 11t-11 28z" />
    <glyph glyph-name="f_f" unicode="ff" horiz-adv-x="1314" 
d="M172 39v565h-72q-16 0 -27 11q-12 12 -12 28v137q0 39 39 39h72v182q0 207 123 320q124 113 305 113q166 0 285 -95q106 115 280 115q73 0 142 -26q67 -25 100 -54q24 -21 8 -47l-69 -131q-15 -28 -50 -10q-68 41 -120 41q-66 0 -102 -48t-36 -139v-221h205q39 0 39 -39
v-137q0 -17 -11 -28t-28 -11h-205v-565q0 -16 -11 -27q-12 -12 -28 -12h-178q-14 0 -26 12q-13 13 -13 27v565h-354v-565q0 -16 -11 -27q-12 -12 -28 -12h-178q-15 0 -27 12t-12 27zM428 819h354v221q0 27 9 95q-61 71 -177 71q-82 0 -134 -54q-52 -53 -52 -151v-182z" />
    <glyph glyph-name="f_f_i" unicode="ffi" horiz-adv-x="1751" 
d="M172 39v565h-70q-16 0 -27 11q-12 12 -12 28v137q0 39 39 39h70v182q0 182 113 303q112 120 317 130q170 0 283 -95q106 115 295 115q168 0 319 -88q32 -18 14 -53l-73 -137q-19 -29 -54 -11q-116 58 -196 58q-64 0 -107 -46t-43 -137v-221h549q39 0 39 -39v-741
q0 -17 -11 -28t-28 -11h-170q-16 0 -27 11q-12 12 -12 28v565h-340v-565q0 -15 -12 -27t-27 -12h-178q-15 0 -27 12t-12 27v565h-356v-565q0 -16 -11 -27q-12 -12 -28 -12h-178q-15 0 -27 12t-12 27zM428 819h356v221q0 44 7 95q-61 71 -175 71q-82 0 -135 -54
q-53 -55 -53 -151v-182z" />
    <glyph glyph-name="f_f_l" unicode="ffl" horiz-adv-x="1779" 
d="M172 39v565h-72q-16 0 -27 11q-12 12 -12 28v137q0 39 39 39h72v182q0 207 123 320q124 113 305 113q166 0 285 -95q106 115 307 115q75 0 148 -29q74 -29 106 -57l35 -29l22 58q15 37 49 37h66q15 0 28 -13q11 -11 11 -26v-1356q0 -16 -11 -27q-12 -12 -28 -12h-172
q-16 0 -28 12q-11 11 -11 27v1081q-10 15 -31 34q-21 20 -68 43q-48 24 -98 24q-72 0 -121 -45q-51 -46 -51 -136v-221h172q17 0 28 -11t11 -28v-135q0 -15 -12 -27t-27 -12h-172v-567q0 -16 -11 -27q-12 -12 -28 -12h-178q-14 0 -26 12q-13 13 -13 27v565h-354v-565
q0 -16 -11 -27q-12 -12 -28 -12h-178q-15 0 -27 12t-12 27zM428 819h354v221q0 27 9 95q-61 71 -177 71q-82 0 -134 -54q-52 -53 -52 -151v-182z" />
    <glyph glyph-name="f_f_h" unicode="ffh" horiz-adv-x="2349" 
d="M172 39v565h-72q-16 0 -27 11q-12 12 -12 28v137q0 39 39 39h72v172q0 207 121 325t307 118q166 0 285 -95q106 115 307 115q75 0 148 -29q74 -29 106 -57l35 -29l22 58q15 37 49 37h66q15 0 28 -13q11 -11 11 -26l2 -623q91 68 217 68q183 0 274 -118q93 -120 93 -290
v-393q0 -15 -12 -27t-27 -12h-166q-17 0 -28 11t-11 28v391q0 84 -44 134t-118 50q-69 0 -115 -40q-47 -41 -63 -105v-430q0 -39 -43 -39h-170q-16 0 -28 12q-11 11 -11 27v1081q-10 15 -31 34q-21 20 -68 43q-48 24 -98 24q-74 0 -123 -46t-49 -141v-215h172q17 0 28 -11
t11 -28v-135q0 -15 -12 -27t-27 -12h-172v-567q0 -16 -11 -27q-12 -12 -28 -12h-178q-14 0 -26 12q-13 13 -13 27v565h-354v-565q0 -16 -11 -27q-12 -12 -28 -12h-178q-15 0 -27 12t-12 27zM428 819h354v221q0 27 9 95q-61 71 -177 71q-82 0 -134 -54q-52 -53 -52 -151v-182
z" />
    <glyph glyph-name="f_k" unicode="fk" horiz-adv-x="1673" 
d="M172 39v567h-74q-16 0 -27 11q-12 12 -12 28v135q0 39 39 39h74v223q0 190 117 301t284 111q79 0 154 -29t109 -57l32 -29l23 58q15 37 49 37h66q13 0 26 -13q12 -12 12 -26v-887l285 287q24 24 51 24h187q25 0 34 -21t-8 -38l-305 -311l365 -392q16 -16 7 -37
q-9 -20 -34 -20h-223q-21 0 -33 16l-326 369v-346q0 -15 -12 -27t-26 -12h-172q-15 0 -27 12t-12 27v1081q-10 15 -31 34q-20 18 -69 43q-48 24 -97 24q-72 0 -122 -45t-50 -136v-221h172q17 0 28 -11t11 -28v-135q0 -16 -11 -27q-12 -12 -28 -12h-172v-567q0 -15 -12 -27
t-27 -12h-178q-15 0 -26 11t-11 28z" />
    <glyph glyph-name="f_j" unicode="fj" horiz-adv-x="1140" 
d="M172 39v565h-70q-16 0 -27 11q-12 12 -12 28v137q0 39 39 39h70v223q0 183 115 298q114 114 288 114q157 0 314 -88q33 -18 12 -53l-70 -129q-18 -37 -55 -19q-116 58 -198 58q-62 0 -106 -47t-44 -136v-221h551q17 0 28 -11t11 -28v-1001q0 -196 -107 -305t-276 -109
q-72 0 -141 26q-68 26 -101 54q-24 21 -8 47l70 131q15 28 49 10q67 -41 121 -41q141 0 141 187v825h-338v-565q0 -16 -11 -27q-12 -12 -28 -12h-178q-15 0 -27 12t-12 27z" />
    <glyph glyph-name="f_f_j" unicode="ffj" horiz-adv-x="1751" 
d="M172 39v565h-70q-16 0 -27 11q-12 12 -12 28v137q0 39 39 39h70v172q0 207 120 325q119 118 310 118q170 0 283 -95q106 115 295 115q162 0 319 -88q32 -18 14 -53l-73 -137q-19 -29 -54 -11q-116 58 -196 58q-150 0 -150 -207v-197h549q39 0 39 -39v-973q0 -49 -6 -96
q-18 -168 -121 -257t-254 -89q-70 0 -138 22q-65 21 -95 51q-31 31 -17 54l68 131q15 28 49 10q67 -41 121 -41q68 0 106 49q37 47 37 138v825h-338v-565q0 -15 -12 -27t-27 -12h-178q-15 0 -27 12t-12 27v565h-356v-565q0 -16 -11 -27q-12 -12 -28 -12h-178q-15 0 -27 12
t-12 27zM428 819h356v207q0 58 7 109q-61 71 -175 71q-82 0 -135 -54q-53 -55 -53 -151v-182z" />
    <glyph glyph-name="f_b" unicode="fb" horiz-adv-x="1695" 
d="M172 39v567h-74q-16 0 -27 11q-12 12 -12 28v135q0 39 39 39h74v221q0 175 112 295q111 119 289 119q79 0 154 -29t109 -57l32 -29l23 58q15 37 49 37h66q13 0 26 -13q12 -12 12 -26v-594q100 39 175 39q172 0 294 -125q121 -124 121 -305q0 -180 -113 -305t-280 -125
q-75 0 -143 30q-66 29 -97 62l-28 30l-21 -63q-10 -39 -39 -39h-79q-15 0 -27 12t-12 27v1081q-10 15 -31 34q-20 18 -69 43q-48 24 -97 24q-72 0 -122 -45t-50 -136v-221h172q17 0 28 -11t11 -28v-135q0 -16 -11 -27q-12 -12 -28 -12h-172v-567q0 -15 -12 -27t-27 -12h-178
q-15 0 -26 11t-11 28zM1038 326q7 -39 54 -83q45 -42 114 -42q84 0 137 60q54 62 54 149q0 85 -57 145q-56 59 -142 59q-44 0 -85 -12q-39 -12 -56 -24l-19 -11v-241z" />
    <glyph glyph-name="f_f_k" unicode="ffk" horiz-adv-x="2285" 
d="M172 39v565h-72q-16 0 -27 11q-12 12 -12 28v137q0 39 39 39h72v182q0 207 123 320q124 113 305 113q166 0 285 -95q106 115 303 115q76 0 151 -29q74 -29 107 -57l35 -29l26 68q7 27 37 27h74q15 0 28 -13q11 -11 11 -26v-887l285 287q24 24 51 24h186q25 0 34 -21
q9 -22 -7 -38l-305 -311l364 -392q16 -16 7 -37q-9 -20 -34 -20h-223q-21 0 -33 16l-325 369v-346q0 -16 -11 -27q-12 -12 -28 -12h-172q-16 0 -28 12q-11 11 -11 27v1081q-10 15 -31 34q-21 20 -68 43q-48 24 -98 24q-72 0 -121 -45q-51 -46 -51 -136v-221h172q17 0 28 -11
t11 -28v-135q0 -15 -12 -27t-27 -12h-172v-567q0 -16 -11 -27q-12 -12 -28 -12h-178q-14 0 -26 12q-13 13 -13 27v565h-354v-565q0 -16 -11 -27q-12 -12 -28 -12h-178q-15 0 -27 12t-12 27zM428 819h354v221q0 27 9 95q-61 71 -177 71q-82 0 -134 -54q-52 -53 -52 -151v-182
z" />
    <glyph glyph-name="f_h" unicode="fh" horiz-adv-x="1736" 
d="M172 39v567h-74q-16 0 -27 11q-12 12 -12 28v135q0 39 39 39h74v221q0 177 113 296q112 118 295 118q76 0 149 -29t107 -57l32 -29l23 58q15 37 49 37h66q13 0 26 -13q12 -12 12 -26l3 -623q91 68 217 68q183 0 274 -118q92 -119 92 -290v-393q0 -15 -12 -27t-27 -12
h-166q-16 0 -27 11q-12 12 -12 28v391q0 84 -44 134t-117 50q-69 0 -115 -40q-47 -41 -63 -105v-430q0 -39 -43 -39h-170q-15 0 -27 12t-12 27v1081q-10 15 -31 34q-20 18 -69 43q-48 24 -97 24q-72 0 -122 -45t-50 -136v-221h172q17 0 28 -11t11 -28v-135q0 -16 -11 -27
q-12 -12 -28 -12h-172v-567q0 -15 -12 -27t-27 -12h-178q-15 0 -26 11t-11 28z" />
    <glyph glyph-name="f_f_b" unicode="ffb" horiz-adv-x="2308" 
d="M172 39v565h-72q-16 0 -27 11q-12 12 -12 28v137q0 39 39 39h72v180q0 191 117 313t311 122q166 0 285 -95q106 115 303 115q76 0 151 -29q74 -29 107 -57l35 -29l22 58q15 37 49 37h66q15 0 28 -13q11 -11 11 -26v-594q101 39 174 39q173 0 295 -125q121 -124 121 -305
q0 -179 -114 -305q-113 -125 -280 -125q-75 0 -143 30q-64 29 -96 62l-29 30l-20 -63q-11 -39 -39 -39h-80q-16 0 -28 12q-11 11 -11 27v1081q-10 15 -31 34q-21 20 -68 43q-48 24 -98 24q-72 0 -121 -45q-51 -46 -51 -136v-221h172q17 0 28 -11t11 -28v-135q0 -15 -12 -27
t-27 -12h-172v-567q0 -16 -11 -27q-12 -12 -28 -12h-178q-14 0 -26 12q-13 13 -13 27v565h-354v-565q0 -16 -11 -27q-12 -12 -28 -12h-178q-15 0 -27 12t-12 27zM428 819h354v221q0 27 9 95q-61 71 -177 71q-82 0 -134 -54q-52 -53 -52 -151v-182zM1651 326q8 -41 53 -83
t115 -42q84 0 137 60q53 61 53 149q0 86 -56 145t-143 59q-44 0 -85 -12q-40 -12 -58 -24l-16 -11v-241z" />
    <glyph glyph-name=".notdef" horiz-adv-x="1226" 
d="M102 61v1311q0 62 62 62h899q61 0 61 -62v-1311q0 -61 -61 -61h-899q-62 0 -62 61zM537 643q0 -25 28 -25h74q31 0 31 27v53q0 34 33 66q35 33 74 58q39 24 74 75q34 49 34 109q0 97 -73 162t-183 65q-51 0 -96 -13t-75 -31q-32 -19 -53 -36q-16 -13 -32 -31l-11 -14
q-17 -25 0 -37l46 -45q18 -12 34 0l2 2q2 2 6 5.5t8 6.5l19 19q3 3 24 17t31 18q18 7 37 11q25 5 45 5q59 0 93 -31q32 -29 32 -75q0 -43 -31 -80t-70 -62t-70 -66t-31 -94v-59zM502 319q0 -41 29 -69q31 -29 69 -29q40 0 71 29q29 28 29 69q0 42 -29 70q-31 29 -71 29
q-38 0 -69 -29q-29 -28 -29 -70z" />
    <glyph glyph-name=".null" horiz-adv-x="0" 
 />
    <glyph glyph-name="nonmarkingreturn" horiz-adv-x="681" 
 />
    <glyph glyph-name="space" unicode=" " horiz-adv-x="452" 
 />
    <glyph glyph-name="exclam" unicode="!" horiz-adv-x="634" 
d="M285 557q-15 0 -26 10t-13 23l-80 571v234q0 15 11 26q13 13 28 13h225q15 0 28 -13q11 -11 11 -26v-230l-80 -575q-2 -13 -13 -23t-26 -10h-65zM150 147q0 71 49 120q50 50 116 50q70 0 120 -50t50 -120q0 -68 -50 -118q-49 -49 -120 -49q-67 0 -116 49t-49 118z" />
    <glyph glyph-name="quotedbl" unicode="&#x22;" horiz-adv-x="702" 
d="M463 1026q-17 0 -28 11t-11 28v330q0 15 11 26q13 13 28 13h164q18 0 31 -16q12 -15 6 -36l-84 -325q-8 -31 -37 -31h-80zM113 1026q-16 0 -27 11q-12 12 -12 28v330q0 14 12 26q13 13 27 13h163q19 0 32 -16q11 -14 5 -36l-84 -325q-8 -31 -36 -31h-80z" />
    <glyph glyph-name="numbersign" unicode="#" horiz-adv-x="1101" 
d="M213 45l47 340h-145q-17 0 -28 11t-11 28v29q0 39 39 39h159l48 335h-148q-14 0 -27 13q-12 12 -12 26v29q0 15 12 27t27 12h162l65 467q1 10 13 22q11 11 24 11h29q16 0 28 -14q11 -12 9 -31l-62 -455h324l68 467q1 12 13 22q13 11 25 11h25q18 0 30 -14q11 -12 9 -31
l-66 -455h131q17 0 28 -11t11 -28v-29q0 -16 -11 -27q-12 -12 -28 -12h-145l-47 -335h133q16 0 28 -12q11 -11 11 -27v-29q0 -16 -11 -27q-12 -12 -28 -12h-149l-45 -352q-4 -33 -39 -33h-27q-18 0 -30 13q-11 12 -9 32l45 340h-326l-47 -352q-5 -33 -39 -33h-24
q-20 0 -32 13t-7 32zM379 492h326l45 335h-324z" />
    <glyph glyph-name="dollar" unicode="$" horiz-adv-x="1075" 
d="M94 139q-31 31 -10 62q11 19 17 29q16 26 20 34t18 32q9 15 21 29q11 13 21 19q13 8 24 7q12 -1 24 -9q130 -98 254 -127q0 111 1 197t1 196q-79 32 -146 67q-56 30 -126 85q-65 51 -100 130q-35 78 -35 173q0 157 104 264q106 109 305 125v66q0 15 12 27q11 11 27 11h27
q17 0 28 -11t11 -27v-68q193 -15 356 -133q17 -11 20 -31q3 -21 -7 -37q-11 -13 -19 -28q-4 -6 -7.5 -12t-7.5 -12t-5 -8q-3 -4 -10.5 -15t-11.5 -16q-14 -20 -21 -27q-8 -8 -23 -20q-14 -11 -22 -8q-9 3 -21 5q-3 0 -38 22q-44 28 -87 49q-48 24 -96 40v-369
q79 -33 143 -69q66 -37 132 -89q73 -57 109 -134q38 -81 38 -173q0 -172 -112 -282q-110 -109 -314 -121v-213q0 -37 -41 -37q-64 0 -64 37v213q-243 18 -389 157zM481 895v330q-71 -7 -113 -46q-40 -37 -40 -87q0 -114 153 -197zM592 203q67 10 110 52t43 101
q0 115 -153 205v-358z" />
    <glyph glyph-name="percent" unicode="%" horiz-adv-x="1355" 
d="M322 901q-115 0 -196 81t-81 196q0 114 81 195t196 81q114 0 195 -81t81 -195q0 -115 -81 -196t-195 -81zM213 55l702 1358q11 21 35 21h103q21 0 33 -18q11 -17 1 -38l-706 -1358q-10 -20 -35 -20h-98q-23 0 -34 17t-1 38zM322 1077q40 0 69 30q29 31 29 71q0 38 -30 68
t-68 30q-40 0 -71 -29q-30 -29 -30 -69q0 -41 30 -71t71 -30zM719 256q0 115 81 196q80 80 195 80q116 0 197 -80q82 -81 82 -196t-82 -196q-81 -80 -197 -80q-115 0 -195 80q-81 81 -81 196zM895 256q0 -41 30 -71q29 -29 70 -29q42 0 71 29q30 30 30 71q0 39 -30 69
q-29 29 -71 29q-41 0 -70 -28q-30 -28 -30 -70z" />
    <glyph glyph-name="ampersand" unicode="&#x26;" horiz-adv-x="1411" 
d="M152 365q0 41 8 84q7 37 23 74q15 35 33 63t42 54q16 17 43 44q17 17 44 36q8 5 15 10t14 9.5t10 6.5q16 11 32 20l18 10v4l-43 47q-141 149 -139 295q0 129 103 231q102 101 284 101q171 0 279 -96t108 -238q0 -61 -20 -114q-21 -56 -57 -99t-65 -71q-37 -35 -67 -58
q-38 -29 -41 -30l236 -238q51 100 73 227q6 35 21 48t47 3l113 -32q49 -12 34 -80q-40 -168 -126 -326l182 -172q16 -16 22 -25t1 -28t-27 -41l-84 -86q-44 -40 -90 6l-148 150q-25 -29 -73 -67q-42 -33 -148 -71q-101 -36 -225 -36q-191 0 -312 112q-120 111 -120 273z
M631 893l16 8q15 11 24 15q5 3 27 19q28 21 31 24q23 23 28 29q15 18 25 35q12 20 17 40q6 23 6 45q0 60 -48 107q-49 47 -126 47q-71 0 -111 -40q-41 -41 -41 -100q0 -31 17 -67q19 -40 32 -54q3 -4 13 -14t21.5 -23t23.5 -26zM395 391q0 -84 62 -138q61 -54 153 -54
q160 0 265 120l-306 324l-16 -8q-11 -7 -26 -17t-27 -20q-24 -20 -31 -28q-25 -28 -28 -32q-15 -19 -24 -41q-10 -24 -16 -50q-6 -27 -6 -56z" />
    <glyph glyph-name="quotesingle" unicode="'" horiz-adv-x="352" 
d="M113 1026q-16 0 -27 11q-12 12 -12 28v330q0 14 12 26q13 13 27 13h163q19 0 32 -16q11 -14 5 -36l-84 -325q-8 -31 -36 -31h-80z" />
    <glyph glyph-name="parenleft" unicode="(" horiz-adv-x="700" 
d="M596 -162q-96 6 -180 44q-81 37 -160 122q-78 84 -123 248t-45 393t45 393t123 249q77 84 160 122q81 37 180 43q17 2 28 -7q11 -8 11 -24l6 -135q1 -11 -6 -23q-8 -12 -19 -14q-144 -39 -210 -189t-66 -415t64 -414t212 -188q29 -6 25 -39l-6 -133q-5 -33 -39 -33z" />
    <glyph glyph-name="parenright" unicode=")" horiz-adv-x="702" 
d="M59 4q-4 33 25 39q148 39 212 188t64 414q0 267 -65 415q-66 150 -211 189q-10 1 -18 14t-7 23l7 135q0 16 11 24t27 7q100 -6 181 -43t159 -122t123 -249t45 -393t-45 -393t-123 -248q-80 -86 -159 -122q-84 -38 -181 -44q-34 0 -38 33z" />
    <glyph glyph-name="asterisk" unicode="*" horiz-adv-x="716" 
d="M326 758q-15 0 -27 12t-12 27l4 178l-148 -103q-13 -8 -28 -5q-17 3 -25 16l-35 55q-22 32 11 55l170 103l-170 102q-31 21 -13 55q2 4 9 14t10 14q4 5 7.5 10.5t7.5 10.5t5 7q7 10 24 13q14 3 27 -5l148 -103l-4 181q0 14 12 26q13 13 27 13h65q14 0 27 -13
q12 -12 12 -26l-4 -181l147 105q33 21 54 -10l35 -56q22 -34 -11 -55l-170 -102l170 -105q33 -21 13 -53l-39 -55q-19 -34 -52 -13l-147 103l4 -176q0 -15 -12 -27t-27 -12h-65z" />
    <glyph glyph-name="plus" unicode="+" horiz-adv-x="1146" 
d="M477 307v305h-307q-15 0 -27 12t-12 27v115q0 16 12 28q11 11 27 11h307v309q0 15 11 26t28 11h115q16 0 27 -11q12 -12 12 -26v-309h309q15 0 26 -11t11 -28v-115q0 -16 -11 -27q-12 -12 -26 -12h-309v-305q0 -13 -12 -25t-27 -12h-115q-16 0 -28 12q-11 11 -11 25z" />
    <glyph glyph-name="comma" unicode="," horiz-adv-x="530" 
d="M74 145q0 70 51 120q52 50 129 50q81 0 143 -65q64 -67 64 -203q0 -165 -75 -278q-76 -113 -159 -164q-29 -18 -51 4l-31 33q-24 28 9 55l10 8q8 7 20 19l22 21q4 4 24 29q2 3 11 14.5t15 18.5q14 16 25 39t18 44q10 31 13 51q5 30 5 55l-4 -2l-4 -2q-4 -1 -7 -2
q-2 0 -7.5 -1.5t-8.5 -2.5q-1 0 -9 -1.5t-13 -2.5q-16 -2 -24 -2q-68 0 -117 49t-49 116z" />
    <glyph glyph-name="hyphen" unicode="-" horiz-adv-x="755" 
d="M150 393q-17 0 -28 10t-11 27v137q0 39 39 39h456q39 0 39 -39v-137q0 -17 -11 -27t-28 -10h-456z" />
    <glyph glyph-name="period" unicode="." horiz-adv-x="481" 
d="M72 147q0 71 49 120q50 50 119 50t119 -50q51 -51 51 -120q0 -67 -51 -118q-49 -49 -119 -49t-119 49t-49 118z" />
    <glyph glyph-name="slash" unicode="/" horiz-adv-x="722" 
d="M59 51l402 1356q7 27 37 27h147q22 0 33 -16q10 -14 4 -36l-399 -1355q-7 -27 -37 -27h-150q-19 0 -31 15t-6 36z" />
    <glyph glyph-name="zero" unicode="0" horiz-adv-x="1282" 
d="M641 -20q-246 0 -381 189t-135 527q0 339 135 528t381 189t381 -189t135 -528q0 -338 -135 -527t-381 -189zM641 221q119 0 183 123q65 124 65 352q0 227 -65 352q-64 123 -183 123t-183 -123q-65 -125 -65 -352q0 -228 65 -352q64 -123 183 -123z" />
    <glyph glyph-name="one" unicode="1" horiz-adv-x="731" 
d="M289 39v981l-180 -39q-14 -4 -27 4q-12 8 -14 23l-13 100q-2 24 11 37l294 248h144q13 0 25 -12t12 -27v-1315q0 -16 -12 -28q-11 -11 -25 -11h-176q-17 0 -28 11t-11 28z" />
    <glyph glyph-name="two" unicode="2" horiz-adv-x="1060" 
d="M63 39v47q199 240 531 682q104 128 104 227q0 76 -56 131q-58 56 -161 56q-118 0 -229 -121q-27 -28 -55 0l-99 98q-26 26 -2 53q5 6 19 22q10 12 53 48q36 30 85 61q46 28 112 49q67 21 135 21q211 0 334 -117q122 -116 122 -290q0 -66 -20 -123q-22 -64 -44 -99
q-22 -36 -73 -110q-71 -98 -352 -455h442q17 0 28 -11t11 -28v-141q0 -16 -11 -27q-12 -12 -28 -12h-807q-16 0 -27 11q-12 12 -12 28z" />
    <glyph glyph-name="three" unicode="3" horiz-adv-x="1069" 
d="M74 162q-21 24 2 51l104 100q29 24 53 0q7 -9 39 -32q36 -26 96 -52q61 -26 117 -26q87 0 152 55t65 137q0 85 -74 144t-208 59h-115q-39 0 -39 41v129q0 41 39 41h115q120 0 187 53t67 135q0 83 -60 136q-61 53 -139 53q-123 0 -207 -99q-25 -29 -55 -2l-100 95
q-29 24 0 53q4 5 18 19q9 9 51 43q41 33 81 56t107 43q63 19 128 19q185 0 310 -103q126 -104 126 -272q0 -108 -66 -195t-145 -124v-6q94 -39 171 -125t77 -209q0 -175 -130 -287t-341 -112q-274 0 -426 182z" />
    <glyph glyph-name="four" unicode="4" horiz-adv-x="1222" 
d="M72 297q-17 0 -28 11t-11 28v170l737 897q12 12 31 12h110q17 0 28 -11t11 -28v-872h164q17 0 28 -10t11 -27v-127q0 -17 -11 -28t-28 -11h-164l2 -262q0 -16 -11 -27q-12 -12 -28 -12h-170q-14 0 -26 12t-12 27v258h-633zM303 510h410v491z" />
    <glyph glyph-name="five" unicode="5" horiz-adv-x="1081" 
d="M117 150q-34 39 -4 69l102 100q28 23 49 3q14 -14 41 -34q28 -20 95 -51q66 -30 128 -30q102 0 170 72q68 73 68 170q0 99 -66 164q-67 65 -182 65h-315q-28 0 -46 22t-18 50v604q0 15 12 27t27 12h647q16 0 28 -12q11 -11 11 -27v-140q0 -16 -11 -27t-28 -11h-454v-273
h176q215 0 342 -126t127 -328q0 -195 -144 -332q-145 -137 -352 -137q-145 0 -248 53q-101 52 -155 117z" />
    <glyph glyph-name="six" unicode="6" horiz-adv-x="1103" 
d="M88 545q0 170 55 316q56 148 133 240t180 169q98 74 174 110q78 37 140 58q45 12 57 -29l47 -121q18 -43 -36 -59q-51 -17 -105 -44q-60 -30 -132 -78q-70 -47 -132 -121q-59 -71 -82 -150q99 57 234 57q164 0 291 -119q126 -118 126 -325q0 -192 -137 -331
q-137 -138 -326 -138q-232 0 -359 161q-128 163 -128 404zM573 213q96 0 165 71q69 70 69 169t-69 169t-167 70q-92 0 -154 -55q-62 -54 -83 -123q0 -119 62 -209q63 -92 177 -92z" />
    <glyph glyph-name="seven" unicode="7" horiz-adv-x="991" 
d="M109 39v22l532 1110h-541q-13 0 -26 13t-13 26v144q0 13 13 26t26 13h852q14 0 27 -13q12 -12 12 -26v-15l-610 -1284q-24 -55 -70 -55h-151q-51 0 -51 39z" />
    <glyph glyph-name="eight" unicode="8" horiz-adv-x="1161" 
d="M96 373q0 115 87 210q87 94 161 132v6q-79 43 -145 126t-66 191q0 169 127 272t318 103q195 0 323 -103q129 -103 129 -272q0 -104 -64 -186t-147 -129v-8q91 -46 170 -136q78 -88 78 -206q0 -171 -134 -282q-133 -111 -355 -111q-218 0 -350 111t-132 282zM582 834
q94 22 139 72q47 53 47 122q0 75 -55 124q-56 50 -135 50q-73 0 -128 -50t-55 -124q0 -149 187 -194zM369 377q0 -83 63 -135q65 -54 150 -54t150 54q63 52 63 135q0 70 -58 133q-57 62 -155 84q-99 -22 -156 -84t-57 -133z" />
    <glyph glyph-name="nine" unicode="9" horiz-adv-x="1103" 
d="M229 117q-18 43 37 59q51 17 105 44q60 30 132 78q70 47 132 121q59 71 82 150q-99 -57 -234 -57q-165 0 -292 119q-125 118 -125 325q0 192 137 331q137 138 325 138q233 0 360 -161q128 -163 128 -404q0 -170 -55 -316t-134 -240t-179 -169q-98 -74 -174 -110
q-78 -37 -140 -58q-46 -12 -58 29zM532 713q93 0 155 55q62 54 83 123q0 119 -62 209q-63 92 -178 92q-95 0 -164 -71t-69 -169t69 -169q69 -70 166 -70z" />
    <glyph glyph-name="colon" unicode=":" horiz-adv-x="548" 
d="M274 545q-61 0 -104 43t-43 104q0 62 43 105t104 43q62 0 105 -43t43 -105q0 -61 -43 -104t-105 -43zM127 127q0 61 43 104t104 43q62 0 105 -43t43 -104t-43 -104t-105 -43q-61 0 -104 43t-43 104z" />
    <glyph glyph-name="semicolon" unicode=";" horiz-adv-x="505" 
d="M244 545q-62 0 -105 43t-43 104q0 62 43 105t105 43q61 0 104 -43t43 -105q0 -61 -43 -104t-104 -43zM104 117q0 55 42 96q43 41 104 41q65 0 118 -53q52 -52 52 -168q0 -208 -184 -371q-28 -18 -48 2l-28 31q-23 23 4 45q19 14 47 40q24 23 59 86q33 60 33 124l-8 -2
q-11 -5 -25 -6q-20 -2 -28 -2q-59 0 -98 39q-40 40 -40 98z" />
    <glyph glyph-name="less" unicode="&#x3c;" horiz-adv-x="892" 
d="M59 430q-20 11 -20 35v10q0 24 20 35l711 434q21 12 39 2q18 -11 18 -35v-143q0 -18 -18 -33l-440 -262l440 -254q18 -15 18 -33v-143q0 -25 -18 -35t-39 2z" />
    <glyph glyph-name="equal" unicode="=" horiz-adv-x="999" 
d="M166 692q-17 0 -28 11t-11 28v115q0 16 11 27q12 12 28 12h668q15 0 27 -12q11 -11 11 -27v-115q0 -17 -11 -28t-27 -11h-668zM166 260q-17 0 -28 11t-11 28v117q0 16 11 27q12 12 28 12h668q15 0 27 -12q11 -11 11 -27v-117q0 -17 -11 -28t-27 -11h-668z" />
    <glyph glyph-name="greater" unicode="&#x3e;" horiz-adv-x="892" 
d="M66 43v143q0 22 18 33l438 254l-438 262q-18 11 -18 33v143q0 25 18 35t39 -2l711 -434q20 -11 20 -35v-10q0 -24 -20 -35l-711 -420q-21 -12 -39 -2t-18 35z" />
    <glyph glyph-name="question" unicode="?" horiz-adv-x="919" 
d="M338 557q-17 0 -28 11t-11 28v86q0 65 44 126q43 59 98 99q57 41 99 89q44 50 44 98q0 56 -45 97q-44 40 -119 40q-53 0 -97 -19q-42 -18 -82 -52q-41 -34 -42 -36q-24 -16 -45 2l-97 95q-29 24 0 53q2 3 8 9.5t9 9.5q10 12 49 43q42 34 82 56q43 24 111 43q67 19 143 19
q164 0 280 -98q117 -99 117 -246q0 -85 -49 -156q-48 -70 -107 -112q-51 -36 -106 -88q-49 -46 -49 -86v-68q0 -43 -41 -43h-166zM252 147q0 71 49 120q50 50 119 50q70 0 120 -50t50 -120q0 -68 -50 -118q-49 -49 -120 -49q-70 0 -119 49t-49 118z" />
    <glyph glyph-name="at" unicode="@" horiz-adv-x="2019" 
d="M66 457q0 439 270 718t704 279q416 0 655 -242q238 -241 238 -622q0 -111 -25 -211q-26 -103 -77 -195q-51 -91 -145 -148q-93 -56 -218 -56q-182 0 -243 159h-17q-34 -69 -104 -114q-69 -45 -162 -45q-161 0 -265 125q-106 127 -106 307q0 184 107 306t270 122
q134 0 248 -121q3 6 10 30q5 15 9 26q1 3 4.5 9.5t5.5 9.5q5 9 14 15q6 3 22 7q13 3 31 3h35q17 0 28 -11t11 -28v-374q0 -129 34 -173q34 -45 93 -45q97 0 154 115q57 114 57 277q0 294 -174 479q-174 184 -498 184q-341 0 -542 -212q-201 -211 -201 -574q0 -245 135 -437
q136 -193 358 -284q35 -17 23 -49l-49 -129q-15 -35 -45 -23q-285 105 -465 355t-180 567zM784 426q-6 -95 49 -162q53 -65 130 -65q167 0 174 223v76q-11 45 -60 90t-116 45q-73 0 -123 -58q-49 -57 -54 -149z" />
    <glyph glyph-name="A" unicode="A" horiz-adv-x="1357" 
d="M35 0q-22 0 -34 16t-1 37l637 1379q10 22 35 22h20q25 0 35 -22l631 -1379q11 -21 -1 -37t-34 -16h-178q-39 0 -60 41l-100 221h-612l-101 -221q-17 -41 -59 -41h-178zM473 489h412l-205 451h-6z" />
    <glyph glyph-name="B" unicode="B" horiz-adv-x="1263" 
d="M186 39v1356q0 15 12 27t27 12h469q181 0 307 -109q125 -108 125 -270q0 -110 -70 -198q-71 -89 -155 -128q101 -33 183 -120q83 -88 83 -214q0 -169 -129 -282q-130 -113 -317 -113h-496q-16 0 -27 11q-12 12 -12 28zM451 831h219q76 0 127 54q49 52 49 131
q0 78 -49 126t-127 48h-219v-359zM451 242h247q78 0 131 53q54 54 54 133q0 75 -64 127q-63 51 -145 51h-223v-364z" />
    <glyph glyph-name="C" unicode="C" horiz-adv-x="1400" 
d="M82 715q0 307 216 523t523 216q284 0 496 -190q31 -29 2 -58l-125 -129q-24 -27 -51 0q-136 121 -316 121q-195 0 -325 -140q-131 -142 -131 -337t132 -334t326 -139q170 0 314 117q27 24 51 0l127 -132q12 -12 11 -27q-2 -17 -13 -28q-205 -198 -498 -198
q-308 0 -523 214q-216 214 -216 521z" />
    <glyph glyph-name="D" unicode="D" horiz-adv-x="1511" 
d="M186 39v1356q0 15 12 27t25 12h486q297 0 508 -210q210 -209 210 -505q0 -298 -210 -508q-211 -211 -508 -211h-486q-14 0 -25 11q-12 12 -12 28zM451 250h233q199 0 330 134t131 335q0 200 -131 334q-130 133 -330 133h-233v-936z" />
    <glyph glyph-name="E" unicode="E" horiz-adv-x="1204" 
d="M186 39v1356q0 15 12 27t27 12h834q15 0 27 -12t12 -27v-168q0 -16 -12 -28q-11 -11 -27 -11h-606v-336h505q16 0 28 -12q11 -11 11 -27v-170q0 -17 -11 -28t-28 -11h-505v-358h606q15 0 27 -12t12 -27v-168q0 -16 -12 -28q-11 -11 -27 -11h-834q-16 0 -27 11
q-12 12 -12 28z" />
    <glyph glyph-name="F" unicode="F" horiz-adv-x="1155" 
d="M186 39v1356q0 15 12 27t27 12h834q15 0 27 -12t12 -27v-168q0 -16 -12 -28q-11 -11 -27 -11h-606v-385h505q16 0 28 -12q11 -11 11 -27v-168q0 -16 -11 -27q-12 -12 -28 -12h-505v-518q0 -15 -12 -27t-27 -12h-189q-16 0 -27 11q-12 12 -12 28z" />
    <glyph glyph-name="G" unicode="G" horiz-adv-x="1458" 
d="M84 715q0 306 215 523q215 216 520 216q277 0 500 -190q29 -31 2 -58l-127 -133q-24 -24 -53 0q-136 119 -310 119q-191 0 -324 -140q-134 -142 -134 -335q0 -192 134 -331q133 -138 327 -138q116 0 243 51v174h-164q-16 0 -27 10q-12 11 -12 27v162q0 39 39 39h394
q13 0 25 -12q11 -11 11 -27v-525q0 -20 -16 -32q-22 -14 -67 -37q-44 -22 -177 -60q-128 -36 -264 -36q-307 0 -521 213t-214 520z" />
    <glyph glyph-name="H" unicode="H" horiz-adv-x="1574" 
d="M186 39v1356q0 14 12 26q13 13 27 13h191q15 0 27 -12t12 -27v-543h667v543q0 15 12 27t27 12h189q13 0 26 -13t13 -26v-1356q0 -14 -13 -27q-12 -12 -26 -12h-189q-16 0 -27 11q-12 12 -12 28v565h-667v-565q0 -16 -12 -28q-11 -11 -27 -11h-191q-15 0 -27 12t-12 27z
" />
    <glyph glyph-name="I" unicode="I" horiz-adv-x="641" 
d="M186 39v1356q0 14 12 26q13 13 27 13h191q13 0 26 -13t13 -26v-1356q0 -14 -13 -27q-12 -12 -26 -12h-191q-15 0 -27 12t-12 27z" />
    <glyph glyph-name="J" unicode="J" horiz-adv-x="856" 
d="M-33 129q-17 27 4 51l107 109q30 29 61 -2q61 -66 135 -66q66 0 115 54q49 53 49 153v967q0 15 12 27t27 12h193q15 0 27 -12t12 -27v-967q0 -206 -122 -328q-120 -120 -308 -120q-191 0 -312 149z" />
    <glyph glyph-name="K" unicode="K" horiz-adv-x="1341" 
d="M186 49v1335q0 20 15 35t35 15h180q20 0 35 -15q14 -14 14 -35v-553l516 582q17 21 39 21h205q29 0 41 -26t-9 -48l-534 -602l573 -686q16 -20 4 -46t-40 -26h-224q-27 0 -37 14l-534 660v-625q0 -21 -14 -35t-35 -14h-180q-21 0 -35 14q-15 15 -15 35z" />
    <glyph glyph-name="L" unicode="L" horiz-adv-x="1034" 
d="M186 39v1356q0 15 12 27t27 12h189q14 0 27 -13q12 -12 12 -26v-1149h522q15 0 27 -12t12 -27v-168q0 -16 -12 -28q-11 -11 -27 -11h-750q-16 0 -27 11q-12 12 -12 28z" />
    <glyph glyph-name="M" unicode="M" horiz-adv-x="1787" 
d="M92 47l244 1376q5 31 37 31h33q24 0 34 -20l451 -967h6l451 967q10 20 34 20h33q32 0 37 -31l242 -1376q4 -21 -6 -34t-31 -13h-187q-30 0 -38 31l-121 776h-6l-359 -805q-7 -22 -35 -22h-37q-22 0 -34 22l-363 805h-6l-119 -776q-2 -14 -13 -22q-12 -9 -24 -9h-184
q-45 0 -39 47z" />
    <glyph glyph-name="N" unicode="N" horiz-adv-x="1583" 
d="M186 39v1378q0 14 12 26q11 11 27 11h51l852 -905h2v846q0 15 12 27t27 12h189q13 0 26 -13t13 -26v-1379q0 -13 -12 -25q-11 -11 -27 -11h-49l-856 940h-2v-881q0 -16 -12 -28q-11 -11 -27 -11h-187q-15 0 -27 12t-12 27z" />
    <glyph glyph-name="O" unicode="O" horiz-adv-x="1638" 
d="M84 715q0 308 214 523q214 216 521 216t522 -216q215 -217 215 -523t-215 -521q-214 -214 -522 -214q-307 0 -521 214t-214 521zM350 715q0 -196 138 -332q139 -137 331 -137q195 0 333 138t138 331q0 195 -139 334t-332 139t-331 -139t-138 -334z" />
    <glyph glyph-name="P" unicode="P" horiz-adv-x="1212" 
d="M186 39v1356q0 15 12 27t27 12h482q187 0 323 -134q135 -133 135 -319q0 -190 -134 -326q-134 -135 -322 -135h-256v-481q0 -15 -12 -27t-27 -12h-189q-16 0 -27 11q-12 12 -12 28zM453 770h237q87 0 149 61t62 152q0 85 -62 141q-64 58 -149 58h-237v-412z" />
    <glyph glyph-name="Q" unicode="Q" horiz-adv-x="1640" 
d="M84 715q0 308 214 523q214 216 521 216t522 -216q215 -217 215 -523q0 -204 -108 -380q-108 -175 -291 -276l256 -403q15 -21 3 -41q-12 -21 -36 -21h-217q-23 0 -33 21l-219 371q-49 -6 -92 -6q-307 0 -521 214t-214 521zM350 715q0 -196 138 -332q139 -137 331 -137
q195 0 333 138t138 331q0 195 -139 334t-332 139t-331 -139t-138 -334z" />
    <glyph glyph-name="R" unicode="R" horiz-adv-x="1363" 
d="M186 39v1356q0 15 12 27t27 12h586q185 0 315 -129q131 -129 131 -312q0 -140 -82 -249q-81 -107 -221 -164l281 -521q12 -22 1 -40q-12 -19 -36 -19h-215q-23 0 -33 18l-272 543h-227v-522q0 -15 -12 -27t-27 -12h-189q-16 0 -27 11q-12 12 -12 28zM455 780h333
q83 0 143 62t60 147q0 81 -60 140q-61 59 -143 59h-333v-408z" />
    <glyph glyph-name="S" unicode="S" horiz-adv-x="1110" 
d="M113 139q-29 29 -11 62l74 127q11 20 35 23q23 3 35 -9l10 -6q23 -16 24 -17q4 -2 15 -9t18 -11t20.5 -12t20.5 -12q9 -5 47 -22q28 -13 52 -20q31 -10 51 -13q30 -5 51 -5q81 0 133 46q53 47 53 112q0 75 -63 134q-63 58 -197 111q-169 68 -278 175q-107 105 -107 268
q0 156 118 274q119 119 343 119q226 0 410 -137q13 -7 18 -31q4 -22 -6 -37l-78 -116q-33 -49 -72 -25q-181 113 -284 113q-81 0 -131 -45q-49 -45 -49 -99q0 -73 57 -125q58 -54 184 -104q86 -33 153 -71q63 -35 133 -90q66 -52 105 -131q37 -75 37 -171q0 -166 -131 -286
q-129 -119 -340 -119q-119 0 -222 34q-105 35 -151 65q-41 28 -77 60z" />
    <glyph glyph-name="T" unicode="T" horiz-adv-x="1026" 
d="M379 39v1149h-313q-17 0 -28 11t-11 28v168q0 16 11 27q12 12 28 12h895q15 0 27 -12q11 -11 11 -27v-168q0 -17 -11 -28t-27 -11h-314v-1149q0 -15 -12 -27t-27 -12h-190q-16 0 -28 12q-11 11 -11 27z" />
    <glyph glyph-name="U" unicode="U" horiz-adv-x="1472" 
d="M166 543v852q0 15 11 26q13 13 28 13h194q16 0 28 -12q11 -11 11 -27v-838q0 -133 83 -222t214 -89t215 89t84 220v840q0 15 12 27t27 12h195q13 0 26 -13t13 -26v-852q0 -237 -165 -400q-164 -163 -407 -163q-240 0 -404 163q-165 163 -165 400z" />
    <glyph glyph-name="V" unicode="V" horiz-adv-x="1357" 
d="M633 2l-633 1378q-11 21 1 37q12 17 34 17h209q27 0 35 -23l393 -881h14l393 881q8 23 35 23h209q22 0 34 -17q12 -16 1 -37l-635 -1378q-10 -22 -35 -22h-20q-25 0 -35 22z" />
    <glyph glyph-name="W" unicode="W" horiz-adv-x="1841" 
d="M446 8l-387 1376q-6 21 4 35q11 15 33 15h189q29 0 37 -29l213 -817h8l325 844q7 22 35 22h37q28 0 35 -22l328 -844h8l209 817q8 29 36 29h189q23 0 33 -15q10 -14 4 -35l-387 -1376q-6 -28 -37 -28h-33q-28 0 -35 22l-366 928h-11l-362 -928q-10 -22 -35 -22h-33
q-30 0 -37 28z" />
    <glyph glyph-name="X" unicode="X" horiz-adv-x="1294" 
d="M61 57l426 678l-409 641q-12 21 -2 39q11 19 37 19h237q17 0 33 -19l262 -434h2l266 434q8 19 33 19h238q26 0 37 -19q10 -18 -2 -39l-412 -641l426 -678q12 -21 2 -39q-11 -18 -37 -18h-221q-28 0 -35 18l-293 469h-6l-289 -469q-15 -18 -35 -18h-221q-26 0 -38 18
q-11 17 1 39z" />
    <glyph glyph-name="Y" unicode="Y" horiz-adv-x="1193" 
d="M461 39v651l-467 684q-12 21 -2 40q11 20 35 20h209q16 0 32 -19l328 -471l328 471q16 19 32 19h211q24 0 35 -20q10 -19 -2 -40l-473 -682v-653q0 -16 -11 -27q-12 -12 -28 -12h-188q-17 0 -28 11t-11 28z" />
    <glyph glyph-name="Z" unicode="Z" horiz-adv-x="1101" 
d="M51 39v37l611 1102v8h-512q-16 0 -27 11q-12 12 -12 28v170q0 14 12 26q13 13 27 13h856q13 0 26 -13q12 -12 12 -26v-27l-602 -1116v-4h523q16 0 27 -11q12 -12 12 -28v-170q0 -16 -12 -28q-11 -11 -27 -11h-875q-16 0 -28 12q-11 11 -11 27z" />
    <glyph glyph-name="bracketleft" unicode="[" horiz-adv-x="714" 
d="M371 -410h266q17 0 28 -11t11 -25v-129q0 -15 -12 -27t-27 -12h-463q-15 0 -27 12t-12 27v1970q0 14 12 26q13 13 27 13h463q14 0 27 -13q12 -12 12 -26v-127q0 -17 -11 -28t-28 -11h-266v-1639z" />
    <glyph glyph-name="backslash" unicode="\" horiz-adv-x="731" 
d="M440 27l-399 1355q-6 22 4 36q11 16 33 16h155q29 0 37 -27l402 -1356q6 -22 -5 -36q-12 -15 -32 -15h-158q-29 0 -37 27z" />
    <glyph glyph-name="bracketright" unicode="]" horiz-adv-x="714" 
d="M78 -410h266v1639h-266q-17 0 -28 11t-11 28v127q0 15 11 26q13 13 28 13h463q14 0 27 -13q12 -12 12 -26v-1970q0 -15 -12 -27t-27 -12h-463q-16 0 -28 12q-11 11 -11 27v129q0 14 11 25t28 11z" />
    <glyph glyph-name="asciicircum" unicode="^" horiz-adv-x="1073" 
d="M109 788q-24 0 -35 19q-10 18 2 39l426 596q11 20 35 20h10q24 0 35 -20l415 -596q12 -21 2 -39q-11 -19 -34 -19h-142q-16 0 -32 19l-252 346l-256 -346q-16 -19 -33 -19h-141z" />
    <glyph glyph-name="underscore" unicode="_" horiz-adv-x="849" 
d="M39 -59q0 39 39 39h694q39 0 39 -39v-80q0 -17 -11 -27t-28 -10h-694q-17 0 -28 10t-11 27v80z" />
    <glyph glyph-name="grave" unicode="`" horiz-adv-x="618" 
d="M479 1081l-358 158q-33 16 -12 55l57 105q16 30 53 6l336 -199q24 -12 12 -39l-37 -73q-12 -29 -51 -13z" />
    <glyph glyph-name="a" unicode="a" horiz-adv-x="874" 
d="M63 260q0 113 89 185q90 73 239 73q32 0 74 -5q34 -4 55 -11l21 -6q1 78 -24 109q-26 32 -83 32q-125 0 -229 -31q-40 -12 -47 37l-19 107q-8 39 29 51q13 5 49 12q44 9 104 17q73 10 125 10q183 0 249 -87q67 -88 67 -270v-444q0 -15 -12 -27t-27 -12h-74q-23 0 -35 29
l-24 55q-113 -104 -250 -104q-126 0 -201 75q-76 76 -76 205zM289 260q0 -48 29 -77t77 -29q46 0 87 28q44 30 55 51v113q-58 25 -115 25t-96 -31q-37 -30 -37 -80z" />
    <glyph glyph-name="b" unicode="b" 
d="M123 39v1356q0 14 12 26q13 13 27 13h174q15 0 28 -13q11 -11 11 -26v-592q93 37 182 37q181 0 293 -124q113 -125 113 -306q0 -179 -114 -305q-113 -125 -280 -125q-75 0 -143 30q-64 29 -96 62l-29 30l-20 -63q-11 -39 -39 -39h-80q-15 0 -27 12t-12 27zM367 334
q15 -51 57 -91q44 -42 115 -42q81 0 133 60q53 61 53 149q0 89 -56 148q-57 60 -143 60q-44 0 -85 -12q-39 -12 -56 -24l-18 -11v-237z" />
    <glyph glyph-name="c" unicode="c" horiz-adv-x="872" 
d="M59 410q0 178 131 304q130 126 306 126q181 0 303 -146q24 -33 -11 -57l-94 -90q-22 -18 -51 6q-56 65 -141 65q-82 0 -142 -61q-59 -60 -59 -147q0 -89 57 -149t142 -60q43 0 75 14q39 17 48 25q16 14 41 39q24 24 51 6l88 -76q35 -29 14 -57q-111 -172 -323 -172
q-179 0 -306 123q-129 125 -129 307z" />
    <glyph glyph-name="d" unicode="d" 
d="M61 410q0 181 113 306q112 124 293 124q89 0 182 -37v592q0 15 11 26q13 13 28 13h174q14 0 27 -13q12 -12 12 -26v-1356q0 -15 -12 -27t-27 -12h-80q-28 0 -39 39l-20 63q-5 -7 -32 -34q-19 -19 -91 -55q-66 -33 -145 -33q-167 0 -280 125q-114 126 -114 305zM299 410
q0 -88 53 -149q52 -60 133 -60q71 0 115 42q42 40 57 91v237q-59 48 -159 48q-85 0 -143 -61q-56 -59 -56 -148z" />
    <glyph glyph-name="e" unicode="e" horiz-adv-x="911" 
d="M61 410q0 175 119 303q118 127 299 127q160 0 272 -109q111 -108 111 -272q0 -31 -4 -56q-4 -34 -39 -34h-524q5 -71 58 -124q55 -55 139 -55q86 0 159 52q35 22 54 0l83 -97q29 -29 -2 -53q-121 -112 -305 -112q-183 0 -301 124q-119 125 -119 306zM313 512h310
q-4 57 -49 98q-44 41 -101 41q-62 0 -106 -40q-47 -42 -54 -99z" />
    <glyph glyph-name="f" unicode="f" horiz-adv-x="704" 
d="M172 39v565h-70q-16 0 -27 11q-12 12 -12 28v137q0 39 39 39h70v221q0 197 107 306q107 108 276 108q72 0 141 -26q68 -26 101 -54q24 -21 8 -47l-70 -131q-15 -28 -49 -10q-68 41 -121 41q-65 0 -101 -48t-36 -139v-221h205q39 0 39 -39v-137q0 -16 -12 -28
q-11 -11 -27 -11h-205v-565q0 -16 -11 -27q-12 -12 -28 -12h-178q-15 0 -27 12t-12 27z" />
    <glyph glyph-name="g" unicode="g" horiz-adv-x="946" 
d="M37 61q0 44 15 85q15 40 39 66q27 29 46 44q27 21 39 27l14 8q-61 68 -61 192q0 147 103 251q104 106 253 106h373q39 0 39 -39v-68q0 -29 -23 -35l-114 -36l22 -22q13 -13 37 -69q23 -54 23 -118q0 -127 -98 -225q-97 -97 -252 -97q-42 0 -100 8t-64 8q-24 0 -50 -21
t-26 -56q0 -32 23 -51t59 -19h262q146 0 242 -78t96 -209q0 -150 -118 -249t-331 -99q-208 0 -313 84q-104 83 -104 197q0 121 122 194v6q-20 6 -56 27q-26 16 -63 70q-34 50 -34 118zM348 473q0 -62 41 -105q41 -42 103 -42q63 0 102 41t39 106q0 67 -39 107
q-39 41 -102 41q-62 0 -103 -42q-41 -43 -41 -106zM303 -309q0 -53 49 -87t131 -34q87 0 139 36t52 93q0 37 -35 69q-34 31 -115 31q-72 0 -133 -8q-88 -28 -88 -100z" />
    <glyph glyph-name="h" unicode="h" horiz-adv-x="1064" 
d="M123 39v1356q0 14 12 26q13 13 27 13h174q15 0 28 -13q11 -11 11 -26v-623q91 68 217 68q183 0 274 -118q92 -119 92 -290v-393q0 -15 -12 -27t-26 -12h-166q-17 0 -28 11t-11 28v395q0 84 -44 134t-118 50q-70 0 -115 -39q-47 -41 -63 -106v-434q0 -39 -43 -39h-170
q-15 0 -27 12t-12 27z" />
    <glyph glyph-name="i" unicode="i" horiz-adv-x="493" 
d="M244 1110q-58 0 -99 41t-41 100q0 60 41 101t99 41t101 -41q42 -40 42 -101q0 -59 -42 -100q-43 -41 -101 -41zM123 39v741q0 17 11 28t28 11h170q16 0 27 -11q12 -12 12 -28v-741q0 -15 -12 -27t-27 -12h-170q-15 0 -27 12t-12 27z" />
    <glyph glyph-name="j" unicode="j" horiz-adv-x="495" 
d="M246 1110q-58 0 -99 41t-41 100q0 60 41 101t99 41t101 -41q42 -40 42 -101q0 -59 -42 -100q-43 -41 -101 -41zM123 -221v1001q0 17 11 28t28 11h172q16 0 27 -11q12 -12 12 -28v-1001q0 -196 -107 -305t-274 -109q-73 0 -143 26q-69 25 -99 54q-25 18 -8 47l68 131
q15 28 49 10q68 -41 121 -41q68 0 106 49q37 47 37 138z" />
    <glyph glyph-name="k" unicode="k" horiz-adv-x="1001" 
d="M123 39v1356q0 14 12 26q13 13 27 13h174q15 0 28 -13q11 -11 11 -26v-887l282 287q29 24 52 24h186q25 0 34 -21q9 -22 -7 -38l-306 -311l365 -392q16 -16 7 -37q-9 -20 -34 -20h-221q-23 0 -35 16l-323 369v-346q0 -16 -11 -27q-12 -12 -28 -12h-174q-15 0 -27 12
t-12 27z" />
    <glyph glyph-name="l" unicode="l" horiz-adv-x="495" 
d="M123 39v1356q0 14 12 26q13 13 27 13h172q13 0 26 -13t13 -26v-1356q0 -14 -13 -27q-12 -12 -26 -12h-172q-15 0 -27 12t-12 27z" />
    <glyph glyph-name="m" unicode="m" horiz-adv-x="1595" 
d="M123 39v741q0 17 11 28t28 11h76q27 0 34 -22l29 -78q108 121 274 121q162 0 267 -127q121 127 288 127q185 0 272 -116t87 -294v-391q0 -17 -11 -28t-28 -11h-166q-17 0 -28 11t-11 28v405q0 82 -39 128t-114 46q-54 0 -97 -21q-41 -20 -59 -44l-16 -21q2 -54 2 -77
v-416q0 -14 -13 -27q-12 -12 -26 -12h-154q-17 0 -28 11t-11 28v405q0 174 -151 174q-125 0 -172 -129v-450q0 -15 -12 -27t-27 -12h-166q-15 0 -27 12t-12 27z" />
    <glyph glyph-name="n" unicode="n" horiz-adv-x="1062" 
d="M123 39v741q0 17 11 28t28 11h78q24 0 34 -24l29 -76q112 121 289 121q184 0 274 -117t90 -291v-393q0 -16 -11 -27q-12 -12 -27 -12h-168q-17 0 -28 11t-11 28v405q0 81 -40 127q-41 47 -114 47q-76 0 -124 -39q-50 -41 -68 -90v-450q0 -39 -52 -39h-151q-15 0 -27 12
t-12 27z" />
    <glyph glyph-name="o" unicode="o" horiz-adv-x="958" 
d="M59 412q0 174 124 301t296 127t296 -127t124 -301q0 -176 -123 -304t-297 -128t-297 128t-123 304zM283 412q0 -88 57 -150q57 -61 139 -61t139 61q58 63 58 150q0 85 -58 146q-57 60 -139 60t-139 -60t-57 -146z" />
    <glyph glyph-name="p" unicode="p" 
d="M375 25v-600q0 -39 -49 -39h-164q-15 0 -27 12t-12 27v1355q0 17 11 28t28 11h80q24 0 34 -24l27 -68q28 38 101 76q71 37 163 37q168 0 282 -126t114 -304q0 -181 -119 -306q-118 -124 -287 -124q-103 0 -182 45zM365 248q58 -47 159 -47q86 0 143 60q56 59 56 149
q0 87 -53 148q-52 60 -138 60q-69 0 -112 -40t-55 -84v-246z" />
    <glyph glyph-name="q" unicode="q" 
d="M61 410q0 178 114 304t282 126q92 0 163 -37q73 -38 101 -76l27 68q10 24 34 24h80q17 0 28 -11t11 -28v-1355q0 -15 -12 -27t-27 -12h-164q-49 0 -49 39v600q-79 -45 -182 -45q-169 0 -287 124q-119 125 -119 306zM301 406q0 -87 56 -146t143 -59q44 0 85 12
q37 11 58 25l16 10v246q-12 44 -55 84t-112 40q-84 0 -137 -62q-54 -63 -54 -150z" />
    <glyph glyph-name="r" unicode="r" horiz-adv-x="698" 
d="M123 39v741q0 17 11 28t28 11h78q26 0 36 -26l29 -80q88 127 232 127q76 0 127 -23q48 -22 30 -59l-76 -133q-19 -34 -47 -19q-37 12 -59 12q-56 0 -93 -27q-36 -26 -52 -56v-496q0 -39 -48 -39h-157q-15 0 -27 12t-12 27z" />
    <glyph glyph-name="s" unicode="s" horiz-adv-x="745" 
d="M90 55q-24 21 -12 43l55 111q12 32 47 14q91 -49 187 -49q69 0 69 51q0 28 -28 49q-27 20 -109 54q-231 90 -231 270q0 103 76 172q78 70 225 70q154 0 252 -64q34 -22 18 -55l-51 -105q-14 -26 -49 -14q-90 43 -170 43q-70 0 -70 -47q0 -25 19 -37q25 -15 79 -37
q11 -4 15 -6q136 -52 206 -116t70 -173q0 -106 -88 -178q-87 -71 -238 -71q-173 0 -272 75z" />
    <glyph glyph-name="t" unicode="t" horiz-adv-x="706" 
d="M166 244v360h-70q-14 0 -25 11q-12 12 -12 28v137q0 15 11 28q10 11 26 11h70v228q0 15 11 26q12 12 28 12l168 2q14 0 25 -11q12 -12 12 -27v-230h180q39 0 39 -39v-137q0 -16 -12 -28q-11 -11 -27 -11h-180v-328q0 -65 63 -65q40 0 100 22q35 12 45 -22l41 -129
q15 -34 -22 -49q-9 -5 -44 -17q-37 -12 -95 -24q-60 -12 -105 -12q-227 0 -227 264z" />
    <glyph glyph-name="u" unicode="u" horiz-adv-x="1030" 
d="M109 383v397q0 17 11 28t27 11h168q17 0 28 -11t11 -28v-403q0 -83 40 -129q41 -47 110 -47q60 0 107 47t57 106v426q0 24 10 31q11 8 35 8h155q17 0 28 -11t11 -28v-741q0 -16 -11 -27q-12 -12 -28 -12h-75q-27 0 -39 31l-25 67q-6 -6 -15 -14l-21 -18q-23 -18 -24 -19
q-25 -17 -31 -20q-27 -15 -35 -19q-20 -10 -43 -15q-17 -4 -49 -9q-24 -4 -56 -4q-178 0 -262 114t-84 289z" />
    <glyph glyph-name="v" unicode="v" horiz-adv-x="856" 
d="M387 0l-373 770q-10 20 -2 35q7 14 31 14h178q25 0 37 -22l166 -381h4l176 381q10 22 49 22h160q24 0 31 -14q8 -15 -2 -35l-375 -770q-11 -20 -35 -20h-10q-24 0 -35 20z" />
    <glyph glyph-name="w" unicode="w" horiz-adv-x="1261" 
d="M293 2l-256 770q-8 22 2 34q10 13 33 13h147q31 0 37 -24l123 -367h2l209 393q8 19 33 19h16q22 0 33 -19l207 -393h2l123 367q8 24 47 24h133q22 0 34 -13q11 -12 3 -34l-256 -770q-7 -22 -37 -22h-8q-22 0 -33 18l-258 477h-2l-256 -477q-11 -18 -33 -18h-10
q-28 0 -35 22z" />
    <glyph glyph-name="x" unicode="x" horiz-adv-x="923" 
d="M74 0q-25 0 -32 19q-8 20 7 40l266 359l-258 342q-16 21 -6 40t37 19h170q47 0 68 -28l133 -193h2l135 193q21 28 61 28h185q25 0 32 -19q8 -20 -8 -40l-258 -340l260 -361q15 -21 8 -40t-32 -19h-180q-36 0 -58 33l-145 205h-2l-156 -222q-12 -16 -33 -16h-196z" />
    <glyph glyph-name="y" unicode="y" horiz-adv-x="948" 
d="M350 57l-334 709q-11 21 1 37t34 16h185q22 0 34 -22l207 -463h2l205 463q12 22 49 22h164q25 0 35 -16t0 -37l-627 -1356q-12 -24 -35 -24h-176q-23 0 -34 17t-1 38z" />
    <glyph glyph-name="z" unicode="z" horiz-adv-x="749" 
d="M61 39v20l291 537v4h-233q-15 0 -26 11t-11 28v141q0 17 10 28t27 11h540q24 0 35 -17q12 -18 0 -38l-297 -541v-6h221q39 0 39 -39v-139q0 -17 -11 -28t-28 -11h-518q-14 0 -26 12q-13 13 -13 27z" />
    <glyph glyph-name="braceleft" unicode="{" horiz-adv-x="806" 
d="M211 -74v252q0 62 -46 96q-48 36 -95 43q-31 5 -31 37v101q0 26 29 34q18 5 46 19t63 49q34 34 34 74v260q0 159 48 275t129 174t161 84q79 25 170 30q36 4 41 -35l8 -129q1 -32 -29 -37q-124 -27 -199 -118t-75 -244v-215q0 -60 -23 -114t-56 -84q-39 -35 -55 -47
q-21 -15 -36 -21v-9q170 -69 170 -256v-219q0 -151 75 -241t199 -117q31 -8 29 -39l-8 -129q-1 -15 -15 -27q-11 -10 -26 -8q-91 5 -170 30q-80 26 -161 84t-129 173q-48 114 -48 274z" />
    <glyph glyph-name="bar" unicode="|" horiz-adv-x="368" 
d="M133 -578v2096q0 16 11 27t28 11h27q16 0 26 -11q11 -13 11 -27v-2096q0 -13 -12 -25q-11 -11 -27 -11h-25q-17 0 -28 11t-11 25z" />
    <glyph glyph-name="braceright" unicode="}" horiz-adv-x="806" 
d="M342 -74v219q0 187 170 256v9q-15 6 -36 21q-16 12 -55 47q-33 30 -56 84t-23 114v215q0 153 -75 244t-199 118q-30 5 -29 37l8 129q5 39 41 35q91 -5 170 -30q80 -26 161 -84t129 -174q48 -115 48 -275v-260q0 -55 54 -94q57 -41 89 -48q29 -8 29 -34v-101
q0 -32 -31 -37q-47 -7 -95 -43q-46 -34 -46 -96v-252q0 -160 -48 -274q-48 -115 -129 -173t-161 -84q-79 -25 -170 -30q-16 -2 -27 8q-13 11 -14 27l-8 129q-2 31 29 39q124 27 199 117t75 241z" />
    <glyph glyph-name="asciitilde" unicode="~" horiz-adv-x="1091" 
d="M160 397q-46 46 -92 90q-23 28 -5 50l18 21q25 28 45 49q38 39 68 63q37 29 82 48q50 21 95 21q84 0 207 -84q99 -65 149 -65q83 0 152 106q26 32 59 4l86 -90q26 -22 4 -49q-2 -3 -7.5 -10t-8.5 -11q-14 -18 -44 -48q-40 -40 -68 -62q-34 -27 -81 -48q-49 -22 -92 -22
q-21 0 -31 1q-14 1 -29 6q-5 1 -27 7q-14 4 -27 10q-8 4 -23 10q-8 3 -25 14q-11 7 -20 13l-8 5q-8 4 -15 9q-18 12 -20 14q-84 57 -133 57q-85 0 -152 -105q-10 -15 -28 -17q-17 -1 -29 13z" />
    <glyph glyph-name="uni00A0" unicode="&#xa0;" horiz-adv-x="452" 
 />
    <glyph glyph-name="exclamdown" unicode="&#xa1;" horiz-adv-x="544" 
d="M274 502q-69 0 -119 50q-51 51 -51 120q0 68 51 119q49 49 119 49q68 0 117 -49t49 -119q0 -71 -49 -120q-50 -50 -117 -50zM201 229q2 13 13 23t26 10h65q15 0 26 -10t13 -23l80 -571v-233q0 -16 -11 -27q-12 -12 -28 -12h-225q-16 0 -28 12q-11 11 -11 27v229z" />
    <glyph glyph-name="cent" unicode="&#xa2;" horiz-adv-x="843" 
d="M315 8q-121 46 -199 156q-77 109 -77 246q0 178 131 304q130 126 305 126q28 0 64 -4l22 84q10 36 47 26l25 -6q37 -7 26 -47l-24 -86q76 -33 143 -113q24 -33 -10 -57l-94 -90q-22 -18 -51 6q-19 20 -45 37l-105 -387q44 0 79 13t50 25t41 38q24 24 51 6l88 -76
q35 -29 15 -57q-111 -172 -324 -172q-26 0 -59 4l-54 -197q-2 -16 -16 -23q-16 -8 -31 -4l-22 7q-37 7 -29 45zM375 231l104 385q-81 -1 -140 -62q-58 -59 -58 -144q0 -118 94 -179z" />
    <glyph glyph-name="sterling" unicode="&#xa3;" horiz-adv-x="993" 
d="M135 39v37q127 239 76 520h-88q-15 0 -26 11t-11 28v27q0 16 11 27t26 11h63q-15 59 -18 70q-12 40 -22 83q-4 16 -14 79q-7 43 -7 88q0 198 124 316t310 118q84 0 166 -31q81 -31 111 -53q30 -23 73 -61q31 -24 4 -54l-100 -120q-23 -30 -55 -7q-107 95 -197 95
q-73 0 -127 -54q-53 -53 -53 -139q0 -58 36 -180t42 -150h237q17 0 28 -11t11 -27v-29q0 -17 -11 -27t-28 -10h-217q24 -198 -28 -369h401q17 0 27 -11t10 -28v-149q0 -17 -11 -28t-26 -11h-678q-15 0 -27 12t-12 27z" />
    <glyph glyph-name="currency" unicode="&#xa4;" horiz-adv-x="933" 
d="M197 330l-80 82q-27 27 0 55l98 98q-53 118 2 230l-98 98q-10 10 -10 28q0 17 10 27l82 80q10 10 27 10q18 0 28 -10l96 -96q115 56 230 0l96 96q27 27 55 0l80 -82q27 -28 2 -53l-96 -96q53 -120 2 -234l96 -96q27 -27 0 -55l-82 -80q-9 -10 -26 -11t-27 9l-98 98
q-117 -56 -234 0l-98 -98q-27 -27 -55 0zM465 575q46 0 76 30t30 75q0 47 -29 76q-30 30 -77 30q-45 0 -75 -30t-30 -76q0 -45 30 -75t75 -30z" />
    <glyph glyph-name="yen" unicode="&#xa5;" horiz-adv-x="1296" 
d="M285 246q-15 0 -26 11t-11 28v26q0 17 11 28t26 11h227v142h-227q-15 0 -26 11t-11 27v27q0 17 11 28t26 11h227v94l-467 684q-12 21 -2 40q11 20 35 20h211q17 0 33 -19l327 -471l328 471q16 19 33 19h209q23 0 34 -20q10 -19 -2 -40l-473 -682v-96h223q17 0 28 -11
t11 -28v-29q0 -16 -11 -26t-28 -10h-223v-142h223q17 0 28 -11t11 -28v-28q0 -17 -11 -27t-28 -10h-223v-207q0 -15 -12 -27t-27 -12h-188q-17 0 -28 11t-11 28v207h-227z" />
    <glyph glyph-name="brokenbar" unicode="&#xa6;" horiz-adv-x="645" 
d="M309 803q-16 0 -27 11q-12 12 -12 26v678q0 15 12 27q11 11 27 11h27q16 0 26 -11q11 -13 11 -27v-678q0 -14 -12 -26q-11 -11 -27 -11h-25zM270 100q0 16 12 28q11 11 27 11h27q16 0 26 -11q11 -13 11 -28v-678q0 -13 -12 -25q-11 -11 -27 -11h-25q-16 0 -27 11
q-12 12 -12 25v678z" />
    <glyph glyph-name="section" unicode="&#xa7;" horiz-adv-x="1048" 
d="M145 -180q28 46 72 16l33 -20q16 -10 71 -41q37 -21 92 -39q57 -19 99 -19q70 0 122 36t52 104q0 134 -246 239q-368 151 -368 418q0 156 147 279q-147 135 -147 290q0 149 111 260t329 111q207 0 391 -131q15 -8 20 -28t-5 -35l-84 -121q-24 -40 -68 -11
q-148 103 -264 103q-83 0 -129 -40q-47 -41 -47 -91q0 -67 55 -116q56 -50 176 -99q85 -33 150 -68q63 -34 128 -84q66 -51 101 -122q35 -72 35 -156q0 -151 -150 -285q150 -137 150 -299q0 -155 -125 -268t-326 -113q-265 0 -428 152q-34 34 -10 69zM317 532q0 -53 35 -94
q34 -40 86 -69q54 -30 137 -68l43 -18q2 2 9.5 7.5t13.5 9.5q15 12 37 54q22 43 22 92q0 144 -309 240q-74 -74 -74 -154z" />
    <glyph glyph-name="dieresis" unicode="&#xa8;" horiz-adv-x="847" 
d="M641 1128q-53 0 -91 39q-38 40 -38 93t38 91t91 38q52 0 92 -38q39 -37 39 -91t-39 -93t-92 -39zM229 1128q-53 0 -91 39q-38 40 -38 93t38 91t91 38t93 -38q38 -37 38 -91q0 -55 -38 -93q-39 -39 -93 -39z" />
    <glyph glyph-name="copyright" unicode="&#xa9;" horiz-adv-x="1646" 
d="M86 717q0 305 216 521t519 216q305 0 521 -217q217 -219 217 -520q0 -302 -217 -519q-216 -216 -521 -216t-520 216q-215 217 -215 519zM246 717q0 -238 169 -407t406 -169q240 0 408 169q168 170 168 407q0 239 -168 407t-408 168q-236 0 -406 -168q-169 -168 -169 -407
zM457 713q0 159 111 272t272 113q130 0 229 -78q33 -28 4 -59l-69 -78q-19 -25 -52 -4q-45 32 -110 32q-81 0 -134 -56q-55 -58 -55 -136q0 -80 54 -137q53 -56 135 -56q57 0 108 33q29 23 51 -4l74 -82q27 -28 -2 -57q-101 -86 -233 -86q-159 0 -271 112t-112 271z" />
    <glyph glyph-name="ordfeminine" unicode="&#xaa;" horiz-adv-x="636" 
d="M248 815q-91 0 -148 57t-57 152q0 84 65 138q66 55 177 55q26 0 56 -5q34 -6 40 -8l14 -4q0 61 -17 85q-18 26 -69 26q-50 0 -159 -25q-29 -6 -35 31l-13 67q-6 28 19 39q17 8 79 20q59 11 128 11q131 0 182 -63t51 -201v-330q0 -12 -9 -20q-11 -9 -20 -9h-55
q-17 0 -28 21q0 2 -1.5 5t-3.5 8t-4 9q-7 18 -8 21q-85 -80 -184 -80zM289 946q33 0 64 23q30 22 40 49v67q-28 23 -92 23q-39 0 -64 -24q-26 -24 -26 -58t21 -57t57 -23z" />
    <glyph glyph-name="guillemotleft" unicode="&#xab;" horiz-adv-x="964" 
d="M463 397q-16 22 0 49l223 304q15 24 37 24h117q27 0 34 -19q8 -20 -4 -44l-139 -285l133 -301q12 -25 3 -43q-9 -19 -33 -19h-127q-19 0 -31 17zM266 80l-213 317q-16 22 0 49l223 304q15 24 37 24h117q28 0 35 -19q8 -20 -4 -44l-139 -285l133 -301q12 -25 3 -43
q-10 -19 -34 -19h-127q-19 0 -31 17z" />
    <glyph glyph-name="logicalnot" unicode="&#xac;" horiz-adv-x="1032" 
d="M86 614q-15 0 -28 13q-11 11 -11 26v115q0 16 11 27q12 12 28 12h805q16 0 28 -12q11 -11 11 -27v-463q0 -14 -11 -25q-12 -12 -28 -12h-115q-15 0 -27 12t-12 25v309h-651z" />
    <glyph glyph-name="uni00AD" unicode="&#xad;" horiz-adv-x="710" 
d="M127 393q-17 0 -28 10t-11 27v137q0 39 39 39h457q39 0 39 -39v-137q0 -16 -12 -27q-11 -10 -27 -10h-457z" />
    <glyph glyph-name="registered" unicode="&#xae;" horiz-adv-x="1646" 
d="M86 717q0 305 216 521t519 216q305 0 521 -217q217 -219 217 -520q0 -302 -217 -519q-216 -216 -521 -216t-520 216q-215 217 -215 519zM246 717q0 -238 169 -407t406 -169q240 0 408 169q168 170 168 407q0 239 -168 407t-408 168q-236 0 -406 -168q-169 -168 -169 -407
zM547 383v672q0 16 11 27q12 12 28 12h317q98 0 176 -70q76 -69 76 -184q0 -159 -145 -228l94 -213q8 -21 -2 -38t-33 -17h-111q-24 0 -36 29l-91 229h-106v-219q0 -17 -11 -28t-28 -11h-100q-17 0 -28 11t-11 28zM719 754h162q36 0 60 24t24 60t-24 60t-60 24h-162v-168z
" />
    <glyph glyph-name="macron" unicode="&#xaf;" horiz-adv-x="847" 
d="M162 1167q-15 0 -28 11q-11 10 -11 26v70q0 39 39 39h524q39 0 39 -39v-70q0 -16 -11 -26q-13 -11 -28 -11h-524z" />
    <glyph glyph-name="degree" unicode="&#xb0;" horiz-adv-x="634" 
d="M317 901q-114 0 -195 81t-81 196q0 114 81 195t195 81q115 0 196 -81t81 -195q0 -115 -81 -196t-196 -81zM317 1073q40 0 70 32q31 33 31 73q0 38 -31 69t-70 31t-72 -31q-32 -30 -32 -69q0 -41 32 -73t72 -32z" />
    <glyph glyph-name="plusminus" unicode="&#xb1;" horiz-adv-x="1146" 
d="M477 532v211h-307q-15 0 -27 12t-12 27v115q0 16 12 28q11 11 27 11h307v303q0 15 11 26t28 11h115q16 0 27 -11q12 -12 12 -26v-303h307q14 0 25 -11q12 -12 12 -28v-115q0 -15 -12 -27t-25 -12h-307v-211q0 -13 -12 -25q-11 -11 -27 -11h-115q-17 0 -28 11t-11 25z
M131 135v115q0 16 12 28q11 11 27 11h807q14 0 25 -11q12 -12 12 -28v-115q0 -15 -12 -27t-25 -12h-807q-15 0 -27 12t-12 27z" />
    <glyph glyph-name="twosuperior" unicode="&#xb2;" horiz-adv-x="567" 
d="M76 1032q-21 0 -21 19v34l226 258q51 57 51 103q0 30 -23 51q-22 21 -59 21q-52 0 -90 -41q-18 -12 -33 6l-45 63q-18 25 6 43q85 70 193 70q97 0 156 -52q61 -53 61 -137q0 -85 -76 -176l-111 -131h164q19 0 19 -18v-94q0 -19 -19 -19h-399z" />
    <glyph glyph-name="threesuperior" unicode="&#xb3;" horiz-adv-x="542" 
d="M250 1012q-119 0 -195 67q-17 17 -2 37l45 60q13 19 35 4l6 -4q2 -1 6.5 -4t7.5 -4l20 -10q15 -6 27 -8q15 -3 29 -3q86 0 86 63q0 68 -96 68h-59q-31 0 -31 29v63q0 29 31 29h59q41 0 62 17q22 18 22 46q0 26 -21 44t-57 18q-43 0 -80 -33q-18 -11 -30 6l-49 59
q-22 22 2 37q67 66 182 66q99 0 160 -46t61 -124q0 -50 -32 -88q-31 -37 -72 -55v-3q122 -46 122 -155q0 -83 -68 -129q-70 -47 -171 -47z" />
    <glyph glyph-name="acute" unicode="&#xb4;" horiz-adv-x="618" 
d="M182 1081q-38 -15 -53 13l-35 73q-12 23 12 39l334 199q38 24 54 -6l59 -105q18 -40 -12 -55z" />
    <glyph glyph-name="mu" unicode="&#xb5;" horiz-adv-x="1073" 
d="M371 -8v-567q0 -15 -12 -27t-27 -12h-168q-16 0 -28 12q-11 11 -11 27v1355q0 17 11 28t28 11h168q16 0 27 -11q12 -12 12 -28v-407q5 -77 43 -118q39 -42 106 -42q61 0 108 47q45 45 56 107v413q0 24 10 31q11 8 35 8h156q16 0 27 -11q12 -12 12 -28v-741q0 -15 -12 -27
t-27 -12h-76q-27 0 -39 31l-25 67q-6 -6 -15 -14q-3 -3 -10 -9.5t-10 -8.5q-18 -14 -25 -19q-25 -17 -31 -20q-3 -2 -9 -5.5t-12.5 -7t-12.5 -6.5q-20 -10 -43 -15q-14 -3 -50 -9q-24 -4 -56 -4q-53 0 -100 12z" />
    <glyph glyph-name="paragraph" unicode="&#xb6;" horiz-adv-x="1435" 
d="M465 575q-173 0 -300 125q-126 124 -126 306q0 175 116 302q115 126 281 126l934 -2q15 0 27 -12t12 -27v-95q0 -16 -11 -27t-28 -11h-160v-1835q0 -17 -11 -28t-28 -11h-110q-16 0 -28 12q-11 11 -11 27v1835h-279v-1835q0 -16 -11 -27q-12 -12 -27 -12h-111
q-16 0 -28 12q-11 11 -11 27v1150h-90z" />
    <glyph glyph-name="periodcentered" unicode="&#xb7;" horiz-adv-x="528" 
d="M262 342q-74 0 -128 54t-54 128q0 78 54 133q54 56 128 56q77 0 133 -56t56 -133q0 -74 -56 -128q-55 -54 -133 -54z" />
    <glyph glyph-name="cedilla" unicode="&#xb8;" horiz-adv-x="505" 
d="M111 0h135v-106q93 -12 146 -69q52 -56 52 -142q0 -90 -63 -153q-62 -62 -154 -62q-94 0 -155 71q-28 29 6 58l41 34q22 22 43 -2q22 -24 61 -24q30 0 51 22q21 23 21 54q0 88 -150 100q-34 4 -34 37v182z" />
    <glyph glyph-name="onesuperior" unicode="&#xb9;" horiz-adv-x="401" 
d="M170 1032q-20 0 -20 19v395l-101 -8q-18 0 -18 18l-4 64q0 11 14 22l152 96h104q18 0 18 -18v-569q0 -19 -18 -19h-127z" />
    <glyph glyph-name="ordmasculine" unicode="&#xba;" horiz-adv-x="618" 
d="M311 807q-124 0 -192 86t-68 237q0 152 67 239q66 85 193 85q125 0 191 -85q65 -84 65 -239q0 -154 -65 -238q-66 -85 -191 -85zM311 950q90 0 90 180q0 181 -90 181t-90 -181q0 -180 90 -180z" />
    <glyph glyph-name="guillemotright" unicode="&#xbb;" horiz-adv-x="964" 
d="M508 125l133 301l-139 285q-12 24 -4 44q7 19 34 19h117q22 0 37 -24l223 -304q16 -27 0 -49l-213 -317q-12 -17 -30 -17h-127q-25 0 -34 19q-9 18 3 43zM129 63q-25 0 -34 19q-9 18 3 43l133 301l-139 285q-12 24 -4 44q7 19 35 19h117q21 0 36 -24l224 -304
q16 -27 0 -49l-213 -317q-12 -17 -31 -17h-127z" />
    <glyph glyph-name="onequarter" unicode="&#xbc;" horiz-adv-x="1359" 
d="M182 55l703 1358q11 21 35 21h102q22 0 34 -18q11 -17 1 -38l-707 -1358q-10 -20 -35 -20h-98q-23 0 -34 17t-1 38zM186 827q-20 0 -20 19v395l-100 -8q-19 0 -19 18l-4 64q0 11 14 22l152 97h104q19 0 19 -19v-569q0 -19 -19 -19h-127zM719 133v105l334 362q6 6 16 6h84
q18 0 18 -18v-348h82q19 0 19 -17v-88q0 -18 -19 -18h-82v-99q0 -18 -18 -18h-115q-20 0 -20 18v99h-281q-18 0 -18 16zM868 238h152v170z" />
    <glyph glyph-name="onehalf" unicode="&#xbd;" horiz-adv-x="1353" 
d="M182 55l703 1358q11 21 35 21h102q22 0 34 -18q11 -17 1 -38l-707 -1358q-10 -20 -35 -20h-98q-23 0 -34 17t-1 38zM186 827q-20 0 -20 19v395l-100 -8q-19 0 -19 18l-4 64q0 11 14 22l152 97h104q19 0 19 -19v-569q0 -19 -19 -19h-127zM801 18v35l225 258q51 57 51 103
q0 30 -22 51q-21 20 -60 20q-52 0 -90 -41q-17 -12 -33 7l-45 63q-18 24 7 43q85 70 192 70q96 0 157 -53q60 -52 60 -136q0 -85 -76 -176l-110 -131h164q18 0 18 -18v-95q0 -18 -18 -18h-400q-20 0 -20 18z" />
    <glyph glyph-name="threequarters" unicode="&#xbe;" horiz-adv-x="1435" 
d="M262 807q-118 0 -194 67q-17 17 -2 37l45 60q12 18 34 4l7 -4q2 -1 6 -3.5t7 -3.5q2 -1 8.5 -5t11.5 -6q15 -6 27 -8q15 -3 30 -3q86 0 86 64q0 67 -97 67h-59q-31 0 -31 29v63q0 29 31 29h59q41 0 62 17q22 18 22 46q0 27 -21 45q-20 17 -56 17q-42 0 -80 -33
q-19 -11 -31 6l-49 60q-22 22 2 37q66 65 182 65q99 0 160 -46t61 -124q0 -51 -31 -88q-30 -36 -73 -55v-2q123 -47 123 -156q0 -83 -69 -129q-70 -47 -171 -47zM258 55l703 1358q11 21 34 21h103q22 0 34 -18q11 -17 1 -38l-707 -1358q-10 -20 -35 -20h-98q-23 0 -34 17
t-1 38zM795 133v105l333 362q6 6 17 6h84q18 0 18 -18v-348h82q19 0 19 -17v-88q0 -18 -19 -18h-82v-99q0 -18 -18 -18h-115q-20 0 -20 18v99h-281q-18 0 -18 16zM944 238h152v170z" />
    <glyph glyph-name="questiondown" unicode="&#xbf;" horiz-adv-x="888" 
d="M475 502q-70 0 -120 50t-50 120q0 69 50 119q49 49 120 49q70 0 119 -49t49 -119q0 -71 -49 -120q-50 -50 -119 -50zM39 -291q0 68 32 129t77 100q39 34 93 74q42 31 77 71q32 37 32 69v67q0 43 41 43h166q17 0 28 -11t11 -28v-86q0 -65 -44 -126q-43 -59 -98 -99
q-57 -41 -99 -89q-44 -50 -44 -97q0 -58 45 -98q44 -40 119 -40q53 0 97 19q42 18 82 52q40 35 42 36q24 16 45 -2l97 -94q29 -25 0 -54q-2 -3 -8 -9.5t-9 -9.5q-10 -12 -49 -43q-38 -31 -82 -55q-43 -24 -111 -43q-71 -20 -143 -20q-164 0 -280 98q-117 99 -117 246z" />
    <glyph glyph-name="Agrave" unicode="&#xc0;" horiz-adv-x="1357" 
d="M35 0q-22 0 -34 16t-1 37l637 1379q10 22 35 22h20q25 0 35 -22l631 -1379q11 -21 -1 -37t-34 -16h-178q-39 0 -60 41l-100 221h-612l-101 -221q-17 -41 -59 -41h-178zM473 489h412l-205 451h-6zM823 1573l-358 158q-34 16 -12 55l57 106q16 28 53 6l336 -200
q24 -15 12 -39l-36 -72q-15 -30 -52 -14z" />
    <glyph glyph-name="Aacute" unicode="&#xc1;" horiz-adv-x="1357" 
d="M35 0q-22 0 -34 16t-1 37l637 1379q10 22 35 22h20q25 0 35 -22l631 -1379q11 -21 -1 -37t-34 -16h-178q-39 0 -60 41l-100 221h-612l-101 -221q-17 -41 -59 -41h-178zM473 489h412l-205 451h-6zM535 1573q-37 -16 -52 14l-37 72q-12 24 13 39l336 200q37 22 53 -6
l57 -106q22 -39 -12 -55z" />
    <glyph glyph-name="Acircumflex" unicode="&#xc2;" horiz-adv-x="1357" 
d="M35 0q-22 0 -34 16t-1 37l637 1379q10 22 35 22h20q25 0 35 -22l631 -1379q11 -21 -1 -37t-34 -16h-178q-39 0 -60 41l-100 221h-612l-101 -221q-17 -41 -59 -41h-178zM473 489h412l-205 451h-6zM479 1569q-29 -17 -47 6l-53 76q-15 21 12 39l266 206q21 16 43 0
l267 -206q27 -18 12 -39l-53 -76q-18 -23 -47 -6l-199 125z" />
    <glyph glyph-name="Atilde" unicode="&#xc3;" horiz-adv-x="1357" 
d="M35 0q-22 0 -34 16t-1 37l637 1379q10 22 35 22h20q25 0 35 -22l631 -1379q11 -21 -1 -37t-34 -16h-178q-39 0 -60 41l-100 221h-612l-101 -221q-17 -41 -59 -41h-178zM473 489h412l-205 451h-6zM432 1616l-59 43q-25 19 -13 47q11 20 26 45q8 13 39 52q32 40 68 57
q37 18 80 18q59 0 121 -56q63 -57 99 -57q25 0 43 20q18 19 27 39q8 17 27 30q18 12 36 -5l57 -41q26 -20 2 -63q-62 -107 -123 -137q-36 -19 -76 -19q-56 0 -126 58q-69 57 -97 57q-29 0 -51 -31q-31 -45 -37 -52q-17 -21 -43 -5z" />
    <glyph glyph-name="Adieresis" unicode="&#xc4;" horiz-adv-x="1357" 
d="M35 0q-22 0 -34 16t-1 37l637 1379q10 22 35 22h20q25 0 35 -22l631 -1379q11 -21 -1 -37t-34 -16h-178q-39 0 -60 41l-100 221h-612l-101 -221q-17 -41 -59 -41h-178zM473 489h412l-205 451h-6zM930 1587q-54 0 -91 39q-38 40 -38 92q0 53 38 91t91 38q52 0 92 -38
q39 -37 39 -91q0 -53 -39 -92t-92 -39zM424 1587q-54 0 -91 39q-38 40 -38 92q0 53 38 91t91 38q52 0 92 -38q39 -37 39 -91q0 -53 -39 -92t-92 -39z" />
    <glyph glyph-name="Aring" unicode="&#xc5;" horiz-adv-x="1357" 
d="M35 0q-22 0 -34 16t-1 37l637 1379q10 22 35 22h20q25 0 35 -22l631 -1379q11 -21 -1 -37t-34 -16h-178q-39 0 -60 41l-100 221h-612l-101 -221q-17 -41 -59 -41h-178zM473 489h412l-205 451h-6zM678 1544q-96 0 -164 68t-68 164q0 95 68 163t164 68t164 -68
q67 -67 67 -163q0 -97 -67 -164q-68 -68 -164 -68zM678 1673q38 0 69 31q29 29 29 72q0 39 -29 68q-30 30 -69 30q-42 0 -72 -30q-31 -31 -31 -68q0 -39 32 -71t71 -32z" />
    <glyph glyph-name="AE" unicode="&#xc6;" horiz-adv-x="1843" 
d="M2 0q-23 0 -30 16t5 37l822 1317q30 50 51 57q18 7 39 7h809q15 0 27 -12t12 -27v-168q0 -16 -12 -28q-11 -11 -27 -11h-613v-336h512q16 0 28 -12q11 -11 11 -27v-170q0 -17 -11 -28t-28 -11h-512v-358h613q15 0 27 -12t12 -27v-168q0 -16 -12 -28q-11 -11 -27 -11h-836
q-16 0 -27 11q-12 12 -12 28v223h-430l-145 -231q-22 -31 -51 -31h-195zM537 489h286v463z" />
    <glyph glyph-name="Ccedilla" unicode="&#xc7;" horiz-adv-x="1404" 
d="M692 -8q-262 45 -435 249q-173 205 -173 474q0 307 216 523t523 216q284 0 496 -190q31 -29 2 -58l-125 -129q-24 -27 -51 0q-136 121 -316 121q-195 0 -325 -140q-131 -142 -131 -337t132 -334t326 -139q170 0 314 117q27 24 51 0l127 -132q12 -12 11 -27
q-2 -17 -13 -28q-199 -193 -494 -198v-86q95 -12 147 -69q52 -56 52 -142q0 -90 -63 -153q-62 -62 -154 -62q-95 0 -156 71q-28 29 6 58l41 34q22 22 43 -2q23 -24 62 -24q30 0 51 22q21 23 21 54q0 88 -150 100q-35 5 -35 37v174z" />
    <glyph glyph-name="Egrave" unicode="&#xc8;" horiz-adv-x="1204" 
d="M186 39v1356q0 15 12 27t27 12h834q15 0 27 -12t12 -27v-168q0 -16 -12 -28q-11 -11 -27 -11h-606v-336h505q16 0 28 -12q11 -11 11 -27v-170q0 -17 -11 -28t-28 -11h-505v-358h606q15 0 27 -12t12 -27v-168q0 -16 -12 -28q-11 -11 -27 -11h-834q-16 0 -27 11
q-12 12 -12 28zM799 1573l-359 158q-34 16 -12 55l57 106q17 28 54 6l335 -200q25 -15 13 -39l-37 -72q-15 -30 -51 -14z" />
    <glyph glyph-name="Eacute" unicode="&#xc9;" horiz-adv-x="1204" 
d="M186 39v1356q0 15 12 27t27 12h834q15 0 27 -12t12 -27v-168q0 -16 -12 -28q-11 -11 -27 -11h-606v-336h505q16 0 28 -12q11 -11 11 -27v-170q0 -17 -11 -28t-28 -11h-505v-358h606q15 0 27 -12t12 -27v-168q0 -16 -12 -28q-11 -11 -27 -11h-834q-16 0 -27 11
q-12 12 -12 28zM512 1573q-36 -16 -51 14l-37 72q-12 24 12 39l336 200q37 22 53 -6l58 -106q22 -38 -13 -55z" />
    <glyph glyph-name="Ecircumflex" unicode="&#xca;" horiz-adv-x="1204" 
d="M186 39v1356q0 15 12 27t27 12h834q15 0 27 -12t12 -27v-168q0 -16 -12 -28q-11 -11 -27 -11h-606v-336h505q16 0 28 -12q11 -11 11 -27v-170q0 -17 -11 -28t-28 -11h-505v-358h606q15 0 27 -12t12 -27v-168q0 -16 -12 -28q-11 -11 -27 -11h-834q-16 0 -27 11
q-12 12 -12 28zM444 1569q-29 -17 -47 6l-53 76q-15 21 12 39l267 206q21 16 43 0l266 -206q27 -18 12 -39l-53 -76q-18 -23 -47 -6l-199 125z" />
    <glyph glyph-name="Edieresis" unicode="&#xcb;" horiz-adv-x="1204" 
d="M186 39v1356q0 15 12 27t27 12h834q15 0 27 -12t12 -27v-168q0 -16 -12 -28q-11 -11 -27 -11h-606v-336h505q16 0 28 -12q11 -11 11 -27v-170q0 -17 -11 -28t-28 -11h-505v-358h606q15 0 27 -12t12 -27v-168q0 -16 -12 -28q-11 -11 -27 -11h-834q-16 0 -27 11
q-12 12 -12 28zM905 1587q-53 0 -91 39q-38 40 -38 92q0 53 38 91t91 38q52 0 92 -38q39 -37 39 -91q0 -53 -39 -92t-92 -39zM399 1587q-53 0 -91 39q-38 40 -38 92q0 53 38 91t91 38t93 -38q38 -37 38 -91t-38 -92q-39 -39 -93 -39z" />
    <glyph glyph-name="Igrave" unicode="&#xcc;" horiz-adv-x="641" 
d="M186 39v1356q0 14 12 26q13 13 27 13h191q13 0 26 -13t13 -26v-1356q0 -14 -13 -27q-12 -12 -26 -12h-191q-15 0 -27 12t-12 27zM463 1573l-359 158q-34 16 -12 55l58 106q16 28 53 6l336 -200q24 -15 12 -39l-37 -72q-15 -30 -51 -14z" />
    <glyph glyph-name="Iacute" unicode="&#xcd;" horiz-adv-x="641" 
d="M186 39v1356q0 14 12 26q13 13 27 13h191q13 0 26 -13t13 -26v-1356q0 -14 -13 -27q-12 -12 -26 -12h-191q-15 0 -27 12t-12 27zM176 1573q-36 -16 -51 14l-37 72q-12 24 12 39l336 200q37 22 53 -6l58 -106q22 -39 -12 -55z" />
    <glyph glyph-name="Icircumflex" unicode="&#xce;" horiz-adv-x="641" 
d="M186 39v1356q0 14 12 26q13 13 27 13h191q13 0 26 -13t13 -26v-1356q0 -14 -13 -27q-12 -12 -26 -12h-191q-15 0 -27 12t-12 27zM117 1569q-29 -17 -47 6l-54 76q-15 21 13 39l266 206q21 16 43 0l266 -206q27 -18 12 -39l-53 -76q-18 -23 -47 -6l-199 125z" />
    <glyph glyph-name="Idieresis" unicode="&#xcf;" horiz-adv-x="641" 
d="M186 39v1356q0 14 12 26q13 13 27 13h191q13 0 26 -13t13 -26v-1356q0 -14 -13 -27q-12 -12 -26 -12h-191q-15 0 -27 12t-12 27zM571 1587q-53 0 -91 39q-38 40 -38 92q0 53 38 91t91 38t93 -38q38 -37 38 -91t-38 -92q-39 -39 -93 -39zM66 1587q-54 0 -92 39
q-37 38 -37 92t37 91q38 38 92 38q52 0 92 -38q39 -37 39 -91q0 -53 -39 -92t-92 -39z" />
    <glyph glyph-name="Eth" unicode="&#xd0;" horiz-adv-x="1521" 
d="M197 39v618h-60q-13 0 -25 12t-12 27v27q0 16 12 28q11 11 25 11h60v633q0 16 11 27q12 12 25 12h486q297 0 508 -210t211 -505q0 -297 -211 -508t-508 -211h-486q-14 0 -25 11t-11 28zM461 250h233q199 0 330 134t131 335q0 200 -131 334q-130 133 -330 133h-233v-424
h338q16 0 27 -11q12 -12 12 -28v-29q0 -16 -12 -26q-13 -11 -27 -11h-338v-407z" />
    <glyph glyph-name="Ntilde" unicode="&#xd1;" horiz-adv-x="1583" 
d="M186 39v1378q0 14 12 26q11 11 27 11h51l852 -905h2v846q0 15 12 27t27 12h189q13 0 26 -13t13 -26v-1379q0 -13 -12 -25q-11 -11 -27 -11h-49l-856 940h-2v-881q0 -16 -12 -28q-11 -11 -27 -11h-187q-15 0 -27 12t-12 27zM545 1616l-60 43q-24 18 -12 47q11 20 26 45
q8 13 39 52q32 40 67 57q37 18 81 18q59 0 121 -56q63 -57 98 -57q25 0 43 20q20 22 28 39q8 18 26 30t36 -5l58 -41q26 -20 2 -63q-62 -107 -123 -137q-36 -19 -76 -19q-56 0 -126 58q-69 57 -97 57q-29 0 -51 -31q-31 -45 -37 -52q-17 -21 -43 -5z" />
    <glyph glyph-name="Ograve" unicode="&#xd2;" horiz-adv-x="1638" 
d="M84 715q0 308 214 523q214 216 521 216t522 -216q215 -217 215 -523t-215 -521q-214 -214 -522 -214q-307 0 -521 214t-214 521zM350 715q0 -196 138 -332q139 -137 331 -137q195 0 333 138t138 331q0 195 -139 334t-332 139t-331 -139t-138 -334zM969 1573l-359 158
q-34 16 -12 55l57 106q17 28 54 6l335 -200q25 -15 13 -39l-37 -72q-15 -30 -51 -14z" />
    <glyph glyph-name="Oacute" unicode="&#xd3;" horiz-adv-x="1638" 
d="M84 715q0 308 214 523q214 216 521 216t522 -216q215 -217 215 -523t-215 -521q-214 -214 -522 -214q-307 0 -521 214t-214 521zM350 715q0 -196 138 -332q139 -137 331 -137q195 0 333 138t138 331q0 195 -139 334t-332 139t-331 -139t-138 -334zM678 1573
q-36 -16 -51 14l-37 72q-12 24 12 39l336 200q37 22 53 -6l58 -106q22 -38 -13 -55z" />
    <glyph glyph-name="Ocircumflex" unicode="&#xd4;" horiz-adv-x="1638" 
d="M84 715q0 308 214 523q214 216 521 216t522 -216q215 -217 215 -523t-215 -521q-214 -214 -522 -214q-307 0 -521 214t-214 521zM350 715q0 -196 138 -332q139 -137 331 -137q195 0 333 138t138 331q0 195 -139 334t-332 139t-331 -139t-138 -334zM618 1569
q-29 -17 -47 6l-53 76q-15 21 12 39l267 206q21 16 43 0l266 -206q27 -18 12 -39l-53 -76q-18 -23 -47 -6l-199 125z" />
    <glyph glyph-name="Otilde" unicode="&#xd5;" horiz-adv-x="1638" 
d="M84 715q0 308 214 523q214 216 521 216t522 -216q215 -217 215 -523t-215 -521q-214 -214 -522 -214q-307 0 -521 214t-214 521zM350 715q0 -196 138 -332q139 -137 331 -137q195 0 333 138t138 331q0 195 -139 334t-332 139t-331 -139t-138 -334zM575 1616l-59 43
q-24 18 -12 47q22 40 25 45q8 13 39 52q32 40 68 57q38 18 81 18q59 0 121 -56q63 -57 98 -57q25 0 43 20q20 22 28 39q8 18 26 30t36 -5l57 -41q26 -20 2 -63q-62 -108 -122 -137q-36 -19 -76 -19q-56 0 -126 58q-69 57 -97 57q-30 0 -52 -31q-31 -45 -37 -52
q-17 -21 -43 -5z" />
    <glyph glyph-name="Odieresis" unicode="&#xd6;" horiz-adv-x="1638" 
d="M84 715q0 308 214 523q214 216 521 216t522 -216q215 -217 215 -523t-215 -521q-214 -214 -522 -214q-307 0 -521 214t-214 521zM350 715q0 -196 138 -332q139 -137 331 -137q195 0 333 138t138 331q0 195 -139 334t-332 139t-331 -139t-138 -334zM1071 1587
q-53 0 -91 39q-38 40 -38 92q0 53 38 91t91 38q52 0 92 -38q39 -37 39 -91q0 -53 -39 -92t-92 -39zM565 1587q-53 0 -91 39q-38 40 -38 92q0 53 38 91t91 38q52 0 92 -38q39 -37 39 -91q0 -53 -39 -92t-92 -39z" />
    <glyph glyph-name="multiply" unicode="&#xd7;" horiz-adv-x="950" 
d="M205 358l-82 82q-27 27 0 54l217 217l-217 217q-10 10 -10 27q0 18 10 28l80 82q10 10 27 10q18 0 28 -10l217 -217l217 219q24 27 53 -2l82 -82q29 -29 2 -53l-217 -219l217 -217q25 -29 -2 -56l-82 -80q-28 -27 -53 -2l-217 219l-217 -217q-26 -26 -53 0z" />
    <glyph glyph-name="Oslash" unicode="&#xd8;" horiz-adv-x="1636" 
d="M129 47q-26 26 -2 53l133 131q-176 206 -176 484q0 308 214 523q214 216 521 216q273 0 484 -180l139 137q26 27 53 0l21 -20q25 -25 0 -54l-140 -139q180 -211 180 -481q0 -307 -215 -522t-522 -215q-283 0 -483 178l-133 -133q-27 -24 -53 2zM453 424l661 659
q-135 105 -295 105q-193 0 -331 -139t-138 -334q0 -161 103 -291zM526 348q129 -102 293 -102q193 0 332 139t139 332q0 168 -104 291z" />
    <glyph glyph-name="Ugrave" unicode="&#xd9;" horiz-adv-x="1476" 
d="M168 543v852q0 14 12 26q13 13 27 13h194q16 0 28 -12q11 -11 11 -27v-838q0 -133 83 -222t214 -89t215 89t84 220v840q0 15 12 27t27 12h195q14 0 27 -13q12 -12 12 -26v-852q0 -237 -165 -400q-164 -163 -407 -163q-240 0 -404 163q-165 163 -165 400zM881 1573
l-359 158q-34 16 -12 55l57 106q17 28 54 6l335 -200q25 -15 13 -39l-37 -72q-15 -30 -51 -14z" />
    <glyph glyph-name="Uacute" unicode="&#xda;" horiz-adv-x="1476" 
d="M168 543v852q0 14 12 26q13 13 27 13h194q16 0 28 -12q11 -11 11 -27v-838q0 -133 83 -222t214 -89t215 89t84 220v840q0 15 12 27t27 12h195q14 0 27 -13q12 -12 12 -26v-852q0 -237 -165 -400q-164 -163 -407 -163q-240 0 -404 163q-165 163 -165 400zM598 1573
q-36 -16 -51 14l-37 72q-12 24 12 39l336 200q37 22 53 -6l58 -106q22 -38 -13 -55z" />
    <glyph glyph-name="Ucircumflex" unicode="&#xdb;" horiz-adv-x="1476" 
d="M168 543v852q0 14 12 26q13 13 27 13h194q16 0 28 -12q11 -11 11 -27v-838q0 -133 83 -222t214 -89t215 89t84 220v840q0 15 12 27t27 12h195q14 0 27 -13q12 -12 12 -26v-852q0 -237 -165 -400q-164 -163 -407 -163q-240 0 -404 163q-165 163 -165 400zM539 1569
q-29 -17 -47 6l-54 76q-15 21 13 39l266 206q21 16 43 0l266 -206q27 -18 12 -39l-53 -76q-18 -23 -47 -6l-199 125z" />
    <glyph glyph-name="Udieresis" unicode="&#xdc;" horiz-adv-x="1476" 
d="M168 543v852q0 14 12 26q13 13 27 13h194q16 0 28 -12q11 -11 11 -27v-838q0 -133 83 -222t214 -89t215 89t84 220v840q0 15 12 27t27 12h195q14 0 27 -13q12 -12 12 -26v-852q0 -237 -165 -400q-164 -163 -407 -163q-240 0 -404 163q-165 163 -165 400zM989 1587
q-53 0 -91 39q-38 40 -38 92q0 53 38 91t91 38q52 0 92 -38q39 -37 39 -91q0 -53 -39 -92t-92 -39zM483 1587q-53 0 -91 39q-38 40 -38 92q0 53 38 91t91 38q52 0 92 -38q39 -37 39 -91q0 -53 -39 -92t-92 -39z" />
    <glyph glyph-name="Yacute" unicode="&#xdd;" horiz-adv-x="1193" 
d="M461 39v651l-467 684q-12 21 -2 40q11 20 35 20h209q16 0 32 -19l328 -471l328 471q16 19 32 19h211q24 0 35 -20q10 -19 -2 -40l-473 -682v-653q0 -16 -11 -27q-12 -12 -28 -12h-188q-17 0 -28 11t-11 28zM453 1573q-37 -16 -52 14l-36 72q-12 24 12 39l336 200
q37 22 53 -6l57 -106q22 -39 -12 -55z" />
    <glyph glyph-name="Thorn" unicode="&#xde;" horiz-adv-x="1210" 
d="M186 39v1356q0 15 12 27t27 12h189q14 0 27 -13q12 -12 12 -26v-221h254q187 1 323 -133q135 -134 135 -320q0 -190 -134 -326q-134 -135 -322 -135h-256v-221q0 -15 -12 -27t-27 -12h-189q-16 0 -27 11q-12 12 -12 28zM453 510h237q87 0 149 61t62 152q0 85 -62 141
q-64 58 -149 58h-237v-412z" />
    <glyph glyph-name="germandbls" unicode="&#xdf;" horiz-adv-x="1058" 
d="M123 39v805q0 299 130 454q130 156 355 156q139 0 242 -83q102 -83 102 -238q0 -81 -40 -161q-43 -86 -81 -148q-40 -65 -40 -107q0 -31 32 -73q38 -50 72 -88q39 -43 72 -116q32 -70 32 -145q0 -157 -99 -237q-97 -78 -236 -78q-85 0 -91 40l-18 138q-1 15 8 27
q11 13 27 12q60 -4 107 23q46 27 46 81q0 52 -53 116q-73 88 -106 130q-54 69 -54 133q0 69 83 220t83 222q0 50 -31 80q-33 31 -81 31q-86 0 -148 -93q-61 -92 -61 -300v-801q0 -16 -11 -27q-12 -12 -28 -12h-174q-15 0 -27 12t-12 27z" />
    <glyph glyph-name="agrave" unicode="&#xe0;" horiz-adv-x="872" 
d="M63 260q0 113 89 185q90 73 239 73q32 0 74 -5q34 -4 55 -11l21 -6q1 78 -24 109q-26 32 -83 32q-125 0 -229 -31q-40 -12 -47 37l-19 107q-8 39 29 51q13 5 49 12q44 9 104 17q73 10 125 10q183 0 249 -87q67 -88 67 -270v-444q0 -15 -12 -27t-27 -12h-74q-23 0 -35 29
l-24 55q-113 -104 -250 -104q-126 0 -201 75q-76 76 -76 205zM289 260q0 -48 29 -77t77 -29q46 0 87 28q44 30 55 51v113q-58 25 -115 25t-96 -31q-37 -30 -37 -80zM608 1081l-358 158q-33 16 -12 55l57 105q16 30 53 6l336 -199q24 -12 12 -39l-37 -73q-12 -29 -51 -13z
" />
    <glyph glyph-name="aacute" unicode="&#xe1;" horiz-adv-x="872" 
d="M63 260q0 113 89 185q90 73 239 73q32 0 74 -5q34 -4 55 -11l21 -6q1 78 -24 109q-26 32 -83 32q-125 0 -229 -31q-40 -12 -47 37l-19 107q-8 39 29 51q13 5 49 12q44 9 104 17q73 10 125 10q183 0 249 -87q67 -88 67 -270v-444q0 -15 -12 -27t-27 -12h-74q-23 0 -35 29
l-24 55q-113 -104 -250 -104q-126 0 -201 75q-76 76 -76 205zM289 260q0 -48 29 -77t77 -29q46 0 87 28q44 30 55 51v113q-58 25 -115 25t-96 -31q-37 -30 -37 -80zM319 1081q-38 -15 -53 13l-35 73q-12 22 13 39l334 199q37 24 53 -6l59 -105q18 -40 -12 -55z" />
    <glyph glyph-name="acircumflex" unicode="&#xe2;" horiz-adv-x="872" 
d="M63 260q0 113 89 185q90 73 239 73q32 0 74 -5q34 -4 55 -11l21 -6q1 78 -24 109q-26 32 -83 32q-125 0 -229 -31q-40 -12 -47 37l-19 107q-8 39 29 51q13 5 49 12q44 9 104 17q73 10 125 10q183 0 249 -87q67 -88 67 -270v-444q0 -15 -12 -27t-27 -12h-74q-23 0 -35 29
l-24 55q-113 -104 -250 -104q-126 0 -201 75q-76 76 -76 205zM289 260q0 -48 29 -77t77 -29q46 0 87 28q44 30 55 51v113q-58 25 -115 25t-96 -31q-37 -30 -37 -80zM193 1083l-54 76q-15 21 13 39l266 207q21 16 43 0l266 -207q27 -18 12 -39l-53 -76q-18 -23 -47 -6
l-199 125l-200 -125q-29 -17 -47 6z" />
    <glyph glyph-name="atilde" unicode="&#xe3;" horiz-adv-x="872" 
d="M63 260q0 113 89 185q90 73 239 73q32 0 74 -5q34 -4 55 -11l21 -6q1 78 -24 109q-26 32 -83 32q-125 0 -229 -31q-40 -12 -47 37l-19 107q-8 39 29 51q13 5 49 12q44 9 104 17q73 10 125 10q183 0 249 -87q67 -88 67 -270v-444q0 -15 -12 -27t-27 -12h-74q-23 0 -35 29
l-24 55q-113 -104 -250 -104q-126 0 -201 75q-76 76 -76 205zM289 260q0 -48 29 -77t77 -29q46 0 87 28q44 30 55 51v113q-58 25 -115 25t-96 -31q-37 -30 -37 -80zM199 1151l-60 43q-24 18 -12 47q11 20 26 45q11 18 38 52q32 40 68 57q37 18 81 18q59 0 121 -56
q63 -57 98 -57q25 0 43 20q20 22 28 39q9 20 26 31t36 -6l58 -41q26 -20 2 -63q-62 -107 -123 -137q-36 -19 -76 -19q-56 0 -126 58q-69 57 -97 57q-29 0 -51 -31q-32 -45 -37 -52q-17 -21 -43 -5z" />
    <glyph glyph-name="adieresis" unicode="&#xe4;" horiz-adv-x="872" 
d="M63 260q0 113 89 185q90 73 239 73q32 0 74 -5q34 -4 55 -11l21 -6q1 78 -24 109q-26 32 -83 32q-125 0 -229 -31q-40 -12 -47 37l-19 107q-8 39 29 51q13 5 49 12q44 9 104 17q73 10 125 10q183 0 249 -87q67 -88 67 -270v-444q0 -15 -12 -27t-27 -12h-74q-23 0 -35 29
l-24 55q-113 -104 -250 -104q-126 0 -201 75q-76 76 -76 205zM289 260q0 -48 29 -77t77 -29q46 0 87 28q44 30 55 51v113q-58 25 -115 25t-96 -31q-37 -30 -37 -80zM653 1128q-53 0 -91 39q-38 40 -38 93t38 91t91 38q52 0 92 -38q39 -37 39 -91t-39 -93t-92 -39zM242 1128
q-54 0 -91 39q-38 40 -38 93t38 91t91 38q52 0 92 -38q39 -37 39 -91t-39 -93t-92 -39z" />
    <glyph glyph-name="aring" unicode="&#xe5;" horiz-adv-x="872" 
d="M63 260q0 113 89 185q90 73 239 73q32 0 74 -5q34 -4 55 -11l21 -6q1 78 -24 109q-26 32 -83 32q-125 0 -229 -31q-40 -12 -47 37l-19 107q-8 39 29 51q13 5 49 12q44 9 104 17q73 10 125 10q183 0 249 -87q67 -88 67 -270v-444q0 -15 -12 -27t-27 -12h-74q-23 0 -35 29
l-24 55q-113 -104 -250 -104q-126 0 -201 75q-76 76 -76 205zM289 260q0 -48 29 -77t77 -29q46 0 87 28q44 30 55 51v113q-58 25 -115 25t-96 -31q-37 -30 -37 -80zM451 991q-96 0 -164 68t-68 164q0 95 68 163t164 68q95 0 163 -68t68 -163q0 -96 -68 -164t-163 -68z
M451 1120q37 0 68 31q30 30 30 72q0 37 -29 68q-28 30 -69 30q-42 0 -72 -30q-31 -31 -31 -68q0 -38 31 -71q30 -32 72 -32z" />
    <glyph glyph-name="ae" unicode="&#xe6;" horiz-adv-x="1372" 
d="M61 260q0 113 86 185q87 73 234 73q41 0 76 -4q47 -5 59 -8l21 -4q-4 82 -26 116q-21 33 -87 33q-98 0 -223 -33q-39 -5 -47 33l-19 111q-5 33 33 41q149 37 278 37q182 0 248 -84q106 84 246 84q160 0 271 -108q112 -109 112 -273q0 -90 -43 -90h-522q7 -68 61 -125
q53 -56 133 -56q82 0 162 54q35 23 53 0l82 -97q24 -33 -2 -53q-121 -112 -305 -112q-196 0 -307 133q-37 -47 -114 -90q-76 -43 -177 -43q-129 0 -205 75q-78 77 -78 205zM776 514h307q-1 56 -46 97q-43 40 -103 40q-62 0 -106 -39q-45 -40 -52 -98zM287 266q0 -50 34 -80
q35 -30 80 -30q41 0 75 21q31 19 48 44l13 21v106q-55 27 -127 27q-50 0 -87 -31q-36 -30 -36 -78z" />
    <glyph glyph-name="ccedilla" unicode="&#xe7;" horiz-adv-x="876" 
d="M369 0q-133 39 -221 151q-87 111 -87 259q0 177 132 304q131 126 305 126q181 0 303 -146q24 -33 -10 -57l-95 -90q-22 -18 -51 6q-56 65 -141 65q-82 0 -142 -61q-59 -60 -59 -147q0 -89 57 -149t142 -60q44 0 76 14q37 16 47 25q16 14 41 39q24 24 51 6l88 -76
q35 -29 14 -57q-112 -171 -315 -172v-84q93 -12 146 -69q52 -56 52 -142q0 -90 -63 -153q-62 -62 -154 -62q-94 0 -155 71q-28 29 6 58l41 34q22 22 43 -2q22 -24 61 -24q30 0 51 22q21 23 21 54q0 88 -150 100q-34 4 -34 37v180z" />
    <glyph glyph-name="egrave" unicode="&#xe8;" horiz-adv-x="911" 
d="M61 410q0 175 119 303q118 127 299 127q160 0 272 -109q111 -108 111 -272q0 -31 -4 -56q-4 -34 -39 -34h-524q5 -71 58 -124q55 -55 139 -55q86 0 159 52q35 22 54 0l83 -97q29 -29 -2 -53q-121 -112 -305 -112q-183 0 -301 124q-119 125 -119 306zM313 512h310
q-4 57 -49 98q-44 41 -101 41q-62 0 -106 -40q-47 -42 -54 -99zM618 1081l-358 158q-33 16 -12 55l57 105q16 30 53 6l336 -199q25 -12 13 -39l-37 -73q-13 -30 -52 -13z" />
    <glyph glyph-name="eacute" unicode="&#xe9;" horiz-adv-x="911" 
d="M61 410q0 175 119 303q118 127 299 127q160 0 272 -109q111 -108 111 -272q0 -31 -4 -56q-4 -34 -39 -34h-524q5 -71 58 -124q55 -55 139 -55q86 0 159 52q35 22 54 0l83 -97q29 -29 -2 -53q-121 -112 -305 -112q-183 0 -301 124q-119 125 -119 306zM313 512h310
q-4 57 -49 98q-44 41 -101 41q-62 0 -106 -40q-47 -42 -54 -99zM328 1081q-39 -15 -54 13l-34 73q-12 23 12 39l334 199q37 24 53 -6l59 -105q18 -40 -12 -55z" />
    <glyph glyph-name="ecircumflex" unicode="&#xea;" horiz-adv-x="911" 
d="M61 410q0 175 119 303q118 127 299 127q160 0 272 -109q111 -108 111 -272q0 -31 -4 -56q-4 -34 -39 -34h-524q5 -71 58 -124q55 -55 139 -55q86 0 159 52q35 22 54 0l83 -97q29 -29 -2 -53q-121 -112 -305 -112q-183 0 -301 124q-119 125 -119 306zM313 512h310
q-4 57 -49 98q-44 41 -101 41q-62 0 -106 -40q-47 -42 -54 -99zM227 1083l-53 76q-15 21 12 39l267 207q21 16 43 0l266 -207q27 -18 12 -39l-53 -76q-18 -23 -47 -6l-199 125l-201 -125q-29 -17 -47 6z" />
    <glyph glyph-name="edieresis" unicode="&#xeb;" horiz-adv-x="911" 
d="M61 410q0 175 119 303q118 127 299 127q160 0 272 -109q111 -108 111 -272q0 -31 -4 -56q-4 -34 -39 -34h-524q5 -71 58 -124q55 -55 139 -55q86 0 159 52q35 22 54 0l83 -97q29 -29 -2 -53q-121 -112 -305 -112q-183 0 -301 124q-119 125 -119 306zM313 512h310
q-4 57 -49 98q-44 41 -101 41q-62 0 -106 -40q-47 -42 -54 -99zM680 1128q-54 0 -91 39q-38 40 -38 93t38 91t91 38q52 0 92 -38q39 -37 39 -91t-39 -93t-92 -39zM268 1128q-54 0 -91 39q-38 40 -38 93t38 91t91 38q52 0 92 -38q39 -37 39 -91t-39 -93t-92 -39z" />
    <glyph glyph-name="igrave" unicode="&#xec;" horiz-adv-x="493" 
d="M387 1081l-358 158q-34 17 -13 55l58 105q16 30 53 6l336 -199q24 -12 12 -39l-37 -73q-12 -29 -51 -13zM123 39v741q0 17 11 28t28 11h170q16 0 27 -11q12 -12 12 -28v-741q0 -15 -12 -27t-27 -12h-170q-15 0 -27 12t-12 27z" />
    <glyph glyph-name="iacute" unicode="&#xed;" horiz-adv-x="493" 
d="M98 1081q-38 -15 -53 13l-35 73q-12 22 13 39l333 199q38 24 54 -6l59 -105q18 -40 -12 -55zM123 39v741q0 17 11 28t28 11h170q16 0 27 -11q12 -12 12 -28v-741q0 -15 -12 -27t-27 -12h-170q-15 0 -27 12t-12 27z" />
    <glyph glyph-name="icircumflex" unicode="&#xee;" horiz-adv-x="493" 
d="M123 39v741q0 17 11 28t28 11h170q16 0 27 -11q12 -12 12 -28v-741q0 -15 -12 -27t-27 -12h-170q-15 0 -27 12t-12 27zM-4 1083l-53 76q-15 21 12 39l266 207q21 16 43 0l266 -207q28 -18 13 -39l-54 -76q-18 -23 -47 -6l-198 125l-201 -125q-29 -17 -47 6z" />
    <glyph glyph-name="idieresis" unicode="&#xef;" horiz-adv-x="493" 
d="M451 1128q-55 0 -92 39q-37 38 -37 93q0 54 37 91q38 38 92 38q52 0 92 -38q39 -37 39 -91t-39 -93t-92 -39zM39 1128q-53 0 -91 39q-38 40 -38 93t38 91t91 38q52 0 92 -38q39 -37 39 -91t-39 -93t-92 -39zM123 39v741q0 17 11 28t28 11h170q16 0 27 -11q12 -12 12 -28
v-741q0 -15 -12 -27t-27 -12h-170q-15 0 -27 12t-12 27z" />
    <glyph glyph-name="eth" unicode="&#xf0;" horiz-adv-x="1081" 
d="M59 449q0 207 126 325q127 119 292 119q135 0 234 -57q-44 148 -215 270l-166 -96q-33 -18 -51 12l-15 27q-21 33 12 51l119 67q-68 39 -135 62q-55 16 -37 59l47 121q12 41 58 29q156 -62 280 -146l142 82q35 17 53 -16l14 -23q21 -35 -12 -53l-107 -61
q312 -264 312 -676q0 -241 -128 -404q-127 -161 -360 -161q-188 0 -325 138q-138 140 -138 331zM291 453q0 -100 68 -169q69 -71 165 -71q114 0 177 92q63 91 63 209q-21 69 -83 123q-62 55 -155 55q-98 0 -167 -70q-68 -69 -68 -169z" />
    <glyph glyph-name="ntilde" unicode="&#xf1;" horiz-adv-x="1062" 
d="M123 39v741q0 17 11 28t28 11h78q24 0 34 -24l29 -76q112 121 289 121q184 0 274 -117t90 -291v-393q0 -16 -11 -27q-12 -12 -27 -12h-168q-17 0 -28 11t-11 28v405q0 81 -40 127q-41 47 -114 47q-76 0 -124 -39q-50 -41 -68 -90v-450q0 -39 -52 -39h-151q-15 0 -27 12
t-12 27zM303 1151l-59 43q-25 19 -13 47q11 20 26 45q8 13 39 52q32 40 68 57q38 18 80 18q59 0 121 -56q63 -57 99 -57q25 0 43 20t27 39t27 31q17 11 36 -6l57 -41q26 -20 2 -63q-62 -107 -123 -137q-36 -19 -76 -19q-56 0 -126 58q-69 57 -97 57q-29 0 -51 -31
q-32 -45 -37 -52q-17 -21 -43 -5z" />
    <glyph glyph-name="ograve" unicode="&#xf2;" horiz-adv-x="958" 
d="M59 412q0 174 124 301t296 127t296 -127t124 -301q0 -176 -123 -304t-297 -128t-297 128t-123 304zM283 412q0 -88 57 -150q57 -61 139 -61t139 61q58 63 58 150q0 85 -58 146q-57 60 -139 60t-139 -60t-57 -146zM627 1081l-359 158q-33 16 -12 55l57 105q17 30 54 6
l335 -199q25 -12 13 -39l-37 -73q-12 -29 -51 -13z" />
    <glyph glyph-name="oacute" unicode="&#xf3;" horiz-adv-x="958" 
d="M59 412q0 174 124 301t296 127t296 -127t124 -301q0 -176 -123 -304t-297 -128t-297 128t-123 304zM283 412q0 -88 57 -150q57 -61 139 -61t139 61q58 63 58 150q0 85 -58 146q-57 60 -139 60t-139 -60t-57 -146zM334 1081q-38 -15 -53 13l-35 73q-12 23 12 39l334 199
q37 24 53 -6l60 -105q18 -40 -13 -55z" />
    <glyph glyph-name="ocircumflex" unicode="&#xf4;" horiz-adv-x="958" 
d="M59 412q0 174 124 301t296 127t296 -127t124 -301q0 -176 -123 -304t-297 -128t-297 128t-123 304zM283 412q0 -88 57 -150q57 -61 139 -61t139 61q58 63 58 150q0 85 -58 146q-57 60 -139 60t-139 -60t-57 -146zM229 1083l-53 76q-15 21 12 39l267 207q21 16 43 0
l266 -207q27 -18 12 -39l-53 -76q-18 -23 -47 -6l-199 125l-201 -125q-29 -17 -47 6z" />
    <glyph glyph-name="otilde" unicode="&#xf5;" horiz-adv-x="958" 
d="M59 412q0 174 124 301t296 127t296 -127t124 -301q0 -176 -123 -304t-297 -128t-297 128t-123 304zM283 412q0 -88 57 -150q57 -61 139 -61t139 61q58 63 58 150q0 85 -58 146q-57 60 -139 60t-139 -60t-57 -146zM231 1151l-59 43q-24 18 -12 47q22 40 25 45q8 13 39 52
q32 40 68 57q38 18 81 18q59 0 121 -56q63 -57 98 -57q25 0 43 20q20 22 28 39q9 20 26 31t36 -6l57 -41q26 -20 2 -63q-62 -108 -122 -137q-36 -19 -76 -19q-56 0 -126 58q-69 57 -98 57t-51 -31q-32 -45 -37 -52q-17 -21 -43 -5z" />
    <glyph glyph-name="odieresis" unicode="&#xf6;" horiz-adv-x="958" 
d="M59 412q0 174 124 301t296 127t296 -127t124 -301q0 -176 -123 -304t-297 -128t-297 128t-123 304zM283 412q0 -88 57 -150q57 -61 139 -61t139 61q58 63 58 150q0 85 -58 146q-57 60 -139 60t-139 -60t-57 -146zM682 1128q-54 0 -91 39q-38 40 -38 93t38 91t91 38
q52 0 92 -38q39 -37 39 -91t-39 -93t-92 -39zM270 1128q-54 0 -91 39q-38 40 -38 93t38 91t91 38q52 0 92 -38q39 -37 39 -91t-39 -93t-92 -39z" />
    <glyph glyph-name="divide" unicode="&#xf7;" horiz-adv-x="1034" 
d="M512 965q-57 0 -99 42t-42 99t42 99t99 42t99 -42t42 -99t-42 -99t-99 -42zM115 612q-16 0 -28 12q-11 11 -11 27v115q0 17 11 28t28 11h807q14 0 25 -11t11 -28v-115q0 -16 -11 -27q-12 -12 -25 -12h-807zM371 328q0 58 40 98q41 41 99 41q59 0 100 -41t41 -98t-41 -100
q-40 -42 -100 -42q-57 0 -98 41t-41 101z" />
    <glyph glyph-name="oslash" unicode="&#xf8;" horiz-adv-x="958" 
d="M104 49q-27 28 -2 53l45 45q-86 118 -86 267q0 175 124 300q125 126 296 126q143 0 258 -95l54 54q24 29 53 0l20 -21q29 -24 0 -53l-53 -53q86 -118 86 -258q0 -178 -123 -306t-295 -128q-145 0 -260 92l-43 -45q-11 -11 -27 -11q-17 0 -28 13zM307 311l275 277
q-43 30 -101 30q-83 0 -139 -59q-57 -60 -57 -145q0 -59 22 -103zM379 229q44 -28 102 -28q83 0 139 62t56 151q0 50 -23 96z" />
    <glyph glyph-name="ugrave" unicode="&#xf9;" horiz-adv-x="1030" 
d="M109 383v397q0 17 11 28t27 11h168q17 0 28 -11t11 -28v-403q0 -83 40 -129q41 -47 110 -47q60 0 107 47t57 106v426q0 24 10 31q11 8 35 8h155q17 0 28 -11t11 -28v-741q0 -16 -11 -27q-12 -12 -28 -12h-75q-27 0 -39 31l-25 67q-6 -6 -15 -14l-21 -18q-23 -18 -24 -19
q-25 -17 -31 -20q-27 -15 -35 -19q-20 -10 -43 -15q-17 -4 -49 -9q-24 -4 -56 -4q-178 0 -262 114t-84 289zM664 1081l-359 158q-33 16 -12 55l57 105q16 30 53 6l336 -199q25 -12 13 -39l-37 -73q-12 -29 -51 -13z" />
    <glyph glyph-name="uacute" unicode="&#xfa;" horiz-adv-x="1030" 
d="M109 383v397q0 17 11 28t27 11h168q17 0 28 -11t11 -28v-403q0 -83 40 -129q41 -47 110 -47q60 0 107 47t57 106v426q0 24 10 31q11 8 35 8h155q17 0 28 -11t11 -28v-741q0 -16 -11 -27q-12 -12 -28 -12h-75q-27 0 -39 31l-25 67q-6 -6 -15 -14l-21 -18q-23 -18 -24 -19
q-25 -17 -31 -20q-27 -15 -35 -19q-20 -10 -43 -15q-17 -4 -49 -9q-24 -4 -56 -4q-178 0 -262 114t-84 289zM373 1081q-39 -15 -54 13l-34 73q-12 23 12 39l334 199q37 24 53 -6l59 -105q18 -40 -12 -55z" />
    <glyph glyph-name="ucircumflex" unicode="&#xfb;" horiz-adv-x="1030" 
d="M109 383v397q0 17 11 28t27 11h168q17 0 28 -11t11 -28v-403q0 -83 40 -129q41 -47 110 -47q60 0 107 47t57 106v426q0 24 10 31q11 8 35 8h155q17 0 28 -11t11 -28v-741q0 -16 -11 -27q-12 -12 -28 -12h-75q-27 0 -39 31l-25 67q-6 -6 -15 -14l-21 -18q-23 -18 -24 -19
q-25 -17 -31 -20q-27 -15 -35 -19q-20 -10 -43 -15q-17 -4 -49 -9q-24 -4 -56 -4q-178 0 -262 114t-84 289zM264 1083l-53 76q-15 21 12 39l266 207q21 16 43 0l267 -207q27 -18 12 -39l-53 -76q-18 -23 -47 -6l-199 125l-201 -125q-29 -17 -47 6z" />
    <glyph glyph-name="udieresis" unicode="&#xfc;" horiz-adv-x="1030" 
d="M109 383v397q0 17 11 28t27 11h168q17 0 28 -11t11 -28v-403q0 -83 40 -129q41 -47 110 -47q60 0 107 47t57 106v426q0 24 10 31q11 8 35 8h155q17 0 28 -11t11 -28v-741q0 -16 -11 -27q-12 -12 -28 -12h-75q-27 0 -39 31l-25 67q-6 -6 -15 -14l-21 -18q-23 -18 -24 -19
q-25 -17 -31 -20q-27 -15 -35 -19q-20 -10 -43 -15q-17 -4 -49 -9q-24 -4 -56 -4q-178 0 -262 114t-84 289zM731 1128q-53 0 -91 39q-38 40 -38 93t38 91t91 38q52 0 92 -38q39 -37 39 -91t-39 -93t-92 -39zM319 1128q-53 0 -91 39q-38 40 -38 93t38 91t91 38t93 -38
q39 -37 39 -91t-39 -93t-93 -39z" />
    <glyph glyph-name="yacute" unicode="&#xfd;" horiz-adv-x="948" 
d="M350 57l-334 709q-11 21 1 37t34 16h185q22 0 34 -22l207 -463h2l205 463q12 22 49 22h164q25 0 35 -16t0 -37l-627 -1356q-12 -24 -35 -24h-176q-23 0 -34 17t-1 38zM336 1081q-38 -15 -53 13l-35 73q-12 23 12 39l334 199q37 24 53 -6l60 -105q18 -40 -13 -55z" />
    <glyph glyph-name="thorn" unicode="&#xfe;" 
d="M375 25v-603q0 -16 -11 -27t-28 -11h-174q-16 0 -27 11q-12 12 -12 27v1973q0 14 12 26q13 13 27 13h174q15 0 28 -13q11 -11 11 -26v-615q93 58 192 58q168 0 282 -126t114 -302q0 -183 -121 -307q-120 -123 -295 -123q-82 0 -172 45zM375 258q46 -55 151 -55
q87 0 143 59t56 148q0 86 -54 147t-141 61q-65 0 -105 -26q-43 -27 -50 -51v-283z" />
    <glyph glyph-name="ydieresis" unicode="&#xff;" horiz-adv-x="948" 
d="M350 57l-334 709q-11 21 1 37t34 16h185q22 0 34 -22l207 -463h2l205 463q12 22 49 22h164q25 0 35 -16t0 -37l-627 -1356q-12 -24 -35 -24h-176q-23 0 -34 17t-1 38zM682 1128q-54 0 -91 39q-38 40 -38 93t38 91t91 38q52 0 92 -38q39 -37 39 -91t-39 -93t-92 -39z
M270 1128q-54 0 -91 39q-38 40 -38 93t38 91t91 38q52 0 92 -38q39 -37 39 -91t-39 -93t-92 -39z" />
    <glyph glyph-name="Amacron" unicode="&#x100;" horiz-adv-x="1357" 
d="M35 0q-22 0 -34 16t-1 37l637 1379q10 22 35 22h20q25 0 35 -22l631 -1379q11 -21 -1 -37t-34 -16h-178q-39 0 -60 41l-100 221h-612l-101 -221q-17 -41 -59 -41h-178zM473 489h412l-205 451h-6zM416 1655q-17 0 -28 10t-11 27v69q0 39 39 39h524q39 0 39 -39v-69
q0 -17 -11 -27t-28 -10h-524z" />
    <glyph glyph-name="amacron" unicode="&#x101;" horiz-adv-x="872" 
d="M63 260q0 113 89 185q90 73 239 73q32 0 74 -5q34 -4 55 -11l21 -6q1 78 -24 109q-26 32 -83 32q-125 0 -229 -31q-40 -12 -47 37l-19 107q-8 39 29 51q13 5 49 12q44 9 104 17q73 10 125 10q183 0 249 -87q67 -88 67 -270v-444q0 -15 -12 -27t-27 -12h-74q-23 0 -35 29
l-24 55q-113 -104 -250 -104q-126 0 -201 75q-76 76 -76 205zM289 260q0 -48 29 -77t77 -29q46 0 87 28q44 30 55 51v113q-58 25 -115 25t-96 -31q-37 -30 -37 -80zM182 1167q-14 0 -27 11q-12 10 -12 26v70q0 39 39 39h525q38 0 38 -39v-70q0 -16 -11 -26q-13 -11 -27 -11
h-525z" />
    <glyph glyph-name="Abreve" unicode="&#x102;" horiz-adv-x="1357" 
d="M35 0q-22 0 -34 16t-1 37l637 1379q10 22 35 22h20q25 0 35 -22l631 -1379q11 -21 -1 -37t-34 -16h-178q-39 0 -60 41l-100 221h-612l-101 -221q-17 -41 -59 -41h-178zM473 489h412l-205 451h-6zM680 1569q-113 0 -191 68q-80 69 -96 173q-5 19 7 31t30 12h76
q28 0 35 -28q18 -50 53 -78q39 -31 86 -31q43 0 81 32q37 31 54 77q6 28 35 28h80q18 0 28 -12q11 -12 9 -31q-16 -103 -98 -173q-80 -68 -189 -68z" />
    <glyph glyph-name="abreve" unicode="&#x103;" horiz-adv-x="872" 
d="M63 260q0 113 89 185q90 73 239 73q32 0 74 -5q34 -4 55 -11l21 -6q1 78 -24 109q-26 32 -83 32q-125 0 -229 -31q-40 -12 -47 37l-19 107q-8 39 29 51q13 5 49 12q44 9 104 17q73 10 125 10q183 0 249 -87q67 -88 67 -270v-444q0 -15 -12 -27t-27 -12h-74q-23 0 -35 29
l-24 55q-113 -104 -250 -104q-126 0 -201 75q-76 76 -76 205zM289 260q0 -48 29 -77t77 -29q46 0 87 28q44 30 55 51v113q-58 25 -115 25t-96 -31q-37 -30 -37 -80zM459 1081q-112 0 -191 69q-80 69 -96 173q-5 18 6 32q10 13 31 13h76q26 0 34 -29q16 -47 54 -78
q38 -30 86 -30q44 0 82 32q36 31 53 76q8 29 35 29h80q18 0 28 -13q10 -12 8 -32q-16 -104 -97 -173t-189 -69z" />
    <glyph glyph-name="Aogonek" unicode="&#x104;" horiz-adv-x="1357" 
d="M35 0q-22 0 -34 16t-1 37l637 1379q10 22 35 22h20q25 0 35 -22l631 -1379q11 -21 -1 -37t-34 -16h-125q-92 -92 -92 -197q0 -55 36 -93t99 -38q16 0 94 19q17 5 29 -6t12 -29v-62q0 -26 -28 -38q-83 -21 -136 -21q-112 0 -186 57t-74 168q0 157 140 265l-107 237h-612
l-101 -221q-17 -41 -59 -41h-178zM473 489h412l-205 451h-6z" />
    <glyph glyph-name="aogonek" unicode="&#x105;" horiz-adv-x="872" 
d="M61 260q0 113 89 185q90 73 239 73q32 0 74 -5q32 -4 57 -11l19 -6q1 82 -25 119q-27 38 -94 38q-70 0 -217 -32q-41 -8 -47 36l-19 93q-8 39 29 51q13 5 49 12q46 9 103 17q73 10 126 10q183 0 249 -87q67 -88 67 -270v-444q0 -16 -11 -27q-12 -12 -28 -12h-8
q-92 -92 -92 -197q0 -57 35 -93q36 -38 100 -38q16 0 94 19q17 5 29 -6t12 -29v-62q0 -26 -29 -38q-82 -21 -135 -21q-113 0 -186 57q-74 57 -74 168q0 74 37 139q40 71 66 94q32 29 42 34l-24 57q-113 -104 -250 -104q-126 0 -201 75q-76 76 -76 205zM287 260q0 -49 29 -79
q30 -31 77 -31q44 0 88 30q43 29 54 60v106q-58 25 -115 25t-96 -31q-37 -30 -37 -80z" />
    <glyph glyph-name="Cacute" unicode="&#x106;" horiz-adv-x="1400" 
d="M82 715q0 307 216 523t523 216q284 0 496 -190q31 -29 2 -58l-125 -129q-24 -27 -51 0q-136 121 -316 121q-195 0 -325 -140q-131 -142 -131 -337t132 -334t326 -139q170 0 314 117q27 24 51 0l127 -132q12 -12 11 -27q-2 -17 -13 -28q-205 -198 -498 -198
q-308 0 -523 214q-216 214 -216 521zM686 1573q-36 -16 -51 14l-37 72q-12 24 12 39l336 200q37 22 53 -6l58 -106q22 -38 -13 -55z" />
    <glyph glyph-name="cacute" unicode="&#x107;" horiz-adv-x="872" 
d="M59 410q0 178 131 304q130 126 306 126q181 0 303 -146q24 -33 -11 -57l-94 -90q-22 -18 -51 6q-56 65 -141 65q-82 0 -142 -61q-59 -60 -59 -147q0 -89 57 -149t142 -60q43 0 75 14q39 17 48 25q16 14 41 39q24 24 51 6l88 -76q35 -29 14 -57q-111 -172 -323 -172
q-179 0 -306 123q-129 125 -129 307zM350 1081q-38 -15 -53 13l-35 73q-12 23 12 39l334 199q38 24 54 -6l59 -105q18 -40 -12 -55z" />
    <glyph glyph-name="Ccircumflex" unicode="&#x108;" horiz-adv-x="1400" 
d="M82 715q0 307 216 523t523 216q284 0 496 -190q31 -29 2 -58l-125 -129q-24 -27 -51 0q-136 121 -316 121q-195 0 -325 -140q-131 -142 -131 -337t132 -334t326 -139q170 0 314 117q27 24 51 0l127 -132q12 -12 11 -27q-2 -17 -13 -28q-205 -198 -498 -198
q-308 0 -523 214q-216 214 -216 521zM621 1569q-30 -17 -48 6l-53 76q-15 21 12 39l267 206q21 16 43 0l266 -206q27 -18 12 -39l-53 -76q-18 -23 -47 -6l-199 125z" />
    <glyph glyph-name="ccircumflex" unicode="&#x109;" horiz-adv-x="872" 
d="M59 410q0 178 131 304q130 126 306 126q181 0 303 -146q24 -33 -11 -57l-94 -90q-22 -18 -51 6q-56 65 -141 65q-82 0 -142 -61q-59 -60 -59 -147q0 -89 57 -149t142 -60q43 0 75 14q39 17 48 25q16 14 41 39q24 24 51 6l88 -76q35 -29 14 -57q-111 -172 -323 -172
q-179 0 -306 123q-129 125 -129 307zM248 1083l-53 76q-15 21 12 39l266 207q21 16 43 0l266 -207q28 -18 13 -39l-54 -76q-18 -23 -47 -6l-198 125l-201 -125q-29 -17 -47 6z" />
    <glyph glyph-name="Cdotaccent" unicode="&#x10a;" horiz-adv-x="1400" 
d="M82 715q0 307 216 523t523 216q284 0 496 -190q31 -29 2 -58l-125 -129q-24 -27 -51 0q-136 121 -316 121q-195 0 -325 -140q-131 -142 -131 -337t132 -334t326 -139q170 0 314 117q27 24 51 0l127 -132q12 -12 11 -27q-2 -17 -13 -28q-205 -198 -498 -198
q-308 0 -523 214q-216 214 -216 521zM823 1599q-61 0 -104 43t-43 105q0 61 43 104t104 43q62 0 105 -43t43 -104q0 -62 -43 -105t-105 -43z" />
    <glyph glyph-name="cdotaccent" unicode="&#x10b;" horiz-adv-x="872" 
d="M59 410q0 178 131 304q130 126 306 126q181 0 303 -146q24 -33 -11 -57l-94 -90q-22 -18 -51 6q-56 65 -141 65q-82 0 -142 -61q-59 -60 -59 -147q0 -89 57 -149t142 -60q43 0 75 14q39 17 48 25q16 14 41 39q24 24 51 6l88 -76q35 -29 14 -57q-111 -172 -323 -172
q-179 0 -306 123q-129 125 -129 307zM496 1098q-62 0 -105 43t-43 104q0 62 43 105t105 43q61 0 104 -43t43 -105q0 -61 -43 -104t-104 -43z" />
    <glyph glyph-name="Ccaron" unicode="&#x10c;" horiz-adv-x="1400" 
d="M82 715q0 307 216 523t523 216q284 0 496 -190q31 -29 2 -58l-125 -129q-24 -27 -51 0q-136 121 -316 121q-195 0 -325 -140q-131 -142 -131 -337t132 -334t326 -139q170 0 314 117q27 24 51 0l127 -132q12 -12 11 -27q-2 -17 -13 -28q-205 -198 -498 -198
q-308 0 -523 214q-216 214 -216 521zM799 1565l-267 207q-27 18 -12 38l53 76q18 23 48 6l198 -125l201 125q29 17 47 -6l53 -76q15 -20 -12 -38l-266 -207q-21 -16 -43 0z" />
    <glyph glyph-name="ccaron" unicode="&#x10d;" horiz-adv-x="872" 
d="M59 410q0 178 131 304q130 126 306 126q181 0 303 -146q24 -33 -11 -57l-94 -90q-22 -18 -51 6q-56 65 -141 65q-82 0 -142 -61q-59 -60 -59 -147q0 -89 57 -149t142 -60q43 0 75 14q39 17 48 25q16 14 41 39q24 24 51 6l88 -76q35 -29 14 -57q-111 -172 -323 -172
q-179 0 -306 123q-129 125 -129 307zM473 1073l-266 207q-27 18 -12 39l53 76q18 23 47 6l199 -125l200 125q29 17 47 -6l54 -76q15 -21 -13 -39l-266 -207q-21 -16 -43 0z" />
    <glyph glyph-name="Dcaron" unicode="&#x10e;" horiz-adv-x="1511" 
d="M186 39v1356q0 15 12 27t25 12h486q297 0 508 -210q210 -209 210 -505q0 -298 -210 -508q-211 -211 -508 -211h-486q-14 0 -25 11q-12 12 -12 28zM451 250h233q199 0 330 134t131 335q0 200 -131 334q-130 133 -330 133h-233v-936zM694 1565l-266 207q-27 18 -12 38
l53 76q18 23 47 6l199 -125l200 125q30 17 48 -6l53 -76q15 -20 -12 -38l-267 -207q-21 -16 -43 0z" />
    <glyph glyph-name="dcaron" unicode="&#x10f;" horiz-adv-x="1085" 
d="M61 410q0 181 113 306q112 124 293 124q89 0 182 -37v592q0 15 11 26q13 13 28 13h174q14 0 27 -13q12 -12 12 -26v-1356q0 -15 -12 -27t-27 -12h-80q-28 0 -39 39l-20 63q-5 -7 -32 -34q-19 -19 -91 -55q-66 -33 -145 -33q-167 0 -280 125q-114 126 -114 305zM299 410
q0 -88 53 -149q52 -60 133 -60q71 0 115 42q42 40 57 91v237q-59 48 -159 48q-85 0 -143 -61q-56 -59 -56 -148zM1180 866l-29 29q-23 23 4 47q19 14 46 39q25 23 60 86q33 59 33 125h-4l-9 -3q-5 -1 -12 -3t-18 -3q-7 -1 -18 -1q-57 0 -97 39t-40 96t42 97q41 40 103 40
q68 0 119 -52t51 -167q0 -208 -184 -371q-27 -18 -47 2z" />
    <glyph glyph-name="Dcroat" unicode="&#x110;" horiz-adv-x="1521" 
d="M197 39v618h-60q-13 0 -25 12t-12 27v27q0 16 12 28q11 11 25 11h60v633q0 16 11 27q12 12 25 12h486q297 0 508 -210t211 -505q0 -297 -211 -508t-508 -211h-486q-14 0 -25 11t-11 28zM461 250h233q199 0 330 134t131 335q0 200 -131 334q-130 133 -330 133h-233v-424
h338q16 0 27 -11q12 -12 12 -28v-29q0 -16 -12 -26q-13 -11 -27 -11h-338v-407z" />
    <glyph glyph-name="dcroat" unicode="&#x111;" 
d="M61 410q0 181 113 306q112 124 293 124q89 0 182 -37v289h-235q-17 0 -28 10t-11 26v29q0 17 11 28t28 11h235v199q0 15 11 26q13 13 28 13h174q14 0 27 -13q12 -12 12 -26v-199h68q14 0 25 -11q12 -12 12 -28v-27q0 -15 -12 -27q-11 -11 -25 -11h-68v-1053
q0 -15 -12 -27t-27 -12h-80q-28 0 -39 39l-20 63q-5 -7 -32 -34q-19 -19 -91 -55q-66 -33 -145 -33q-167 0 -280 125q-114 126 -114 305zM299 410q0 -88 53 -149q52 -60 133 -60q71 0 115 42q42 40 57 91v233q-58 47 -159 47q-87 0 -143 -59t-56 -145z" />
    <glyph glyph-name="Emacron" unicode="&#x112;" horiz-adv-x="1204" 
d="M186 39v1356q0 15 12 27t27 12h834q15 0 27 -12t12 -27v-168q0 -16 -12 -28q-11 -11 -27 -11h-606v-336h505q16 0 28 -12q11 -11 11 -27v-170q0 -17 -11 -28t-28 -11h-505v-358h606q15 0 27 -12t12 -27v-168q0 -16 -12 -28q-11 -11 -27 -11h-834q-16 0 -27 11
q-12 12 -12 28zM387 1655q-17 0 -28 10t-11 27v69q0 39 39 39h524q39 0 39 -39v-69q0 -17 -11 -27t-28 -10h-524z" />
    <glyph glyph-name="emacron" unicode="&#x113;" horiz-adv-x="911" 
d="M61 410q0 175 119 303q118 127 299 127q160 0 272 -109q111 -108 111 -272q0 -31 -4 -56q-4 -34 -39 -34h-524q5 -71 58 -124q55 -55 139 -55q86 0 159 52q35 22 54 0l83 -97q29 -29 -2 -53q-121 -112 -305 -112q-183 0 -301 124q-119 125 -119 306zM313 512h310
q-4 57 -49 98q-44 41 -101 41q-62 0 -106 -40q-47 -42 -54 -99zM211 1167q-15 0 -28 11q-11 10 -11 26v70q0 39 39 39h524q39 0 39 -39v-70q0 -16 -11 -26q-13 -11 -28 -11h-524z" />
    <glyph glyph-name="Ebreve" unicode="&#x114;" horiz-adv-x="1204" 
d="M186 39v1356q0 15 12 27t27 12h834q15 0 27 -12t12 -27v-168q0 -16 -12 -28q-11 -11 -27 -11h-606v-336h505q16 0 28 -12q11 -11 11 -27v-170q0 -17 -11 -28t-28 -11h-505v-358h606q15 0 27 -12t12 -27v-168q0 -16 -12 -28q-11 -11 -27 -11h-834q-16 0 -27 11
q-12 12 -12 28zM659 1569q-112 0 -190 68q-80 69 -96 173q-5 19 7 31t30 12h75q28 0 35 -28q18 -50 53 -78q39 -31 86 -31q43 0 81 32q39 32 55 77q6 28 34 28h80q19 0 29 -12q10 -11 8 -31q-16 -104 -97 -173q-80 -68 -190 -68z" />
    <glyph glyph-name="ebreve" unicode="&#x115;" horiz-adv-x="911" 
d="M61 410q0 175 119 303q118 127 299 127q160 0 272 -109q111 -108 111 -272q0 -31 -4 -56q-4 -34 -39 -34h-524q5 -71 58 -124q55 -55 139 -55q86 0 159 52q35 22 54 0l83 -97q29 -29 -2 -53q-121 -112 -305 -112q-183 0 -301 124q-119 125 -119 306zM313 512h310
q-4 57 -49 98q-44 41 -101 41q-62 0 -106 -40q-47 -42 -54 -99zM475 1081q-111 0 -190 69q-81 70 -97 173q-4 17 7 32q10 13 30 13h76q27 0 35 -29q16 -49 53 -78q38 -30 86 -30q44 0 82 32q36 31 53 76q8 29 35 29h80q19 0 29 -13q10 -12 8 -32q-16 -104 -97 -173t-190 -69
z" />
    <glyph glyph-name="Edotaccent" unicode="&#x116;" horiz-adv-x="1204" 
d="M186 39v1356q0 15 12 27t27 12h834q15 0 27 -12t12 -27v-168q0 -16 -12 -28q-11 -11 -27 -11h-606v-336h505q16 0 28 -12q11 -11 11 -27v-170q0 -17 -11 -28t-28 -11h-505v-358h606q15 0 27 -12t12 -27v-168q0 -16 -12 -28q-11 -11 -27 -11h-834q-16 0 -27 11
q-12 12 -12 28zM659 1599q-61 0 -104 43t-43 105q0 61 43 104t104 43q62 0 105 -43t43 -104q0 -62 -43 -105t-105 -43z" />
    <glyph glyph-name="edotaccent" unicode="&#x117;" horiz-adv-x="911" 
d="M61 410q0 175 119 303q118 127 299 127q160 0 272 -109q111 -108 111 -272q0 -31 -4 -56q-4 -34 -39 -34h-524q5 -71 58 -124q55 -55 139 -55q86 0 159 52q35 22 54 0l83 -97q29 -29 -2 -53q-121 -112 -305 -112q-183 0 -301 124q-119 125 -119 306zM313 512h310
q-4 57 -49 98q-44 41 -101 41q-62 0 -106 -40q-47 -42 -54 -99zM475 1098q-61 0 -104 43t-43 104q0 62 43 105t104 43q62 0 105 -43t43 -105q0 -61 -43 -104t-105 -43z" />
    <glyph glyph-name="Eogonek" unicode="&#x118;" horiz-adv-x="1204" 
d="M186 39v1356q0 15 12 27t27 12h834q15 0 27 -12t12 -27v-168q0 -16 -12 -28q-11 -11 -27 -11h-606v-336h505q16 0 28 -12q11 -11 11 -27v-170q0 -17 -11 -28t-28 -11h-505v-358h606q15 0 27 -12t12 -27v-141q0 -42 -33 -66q-94 -94 -94 -197q0 -55 36 -93t99 -38
q16 0 94 19q17 5 29 -6t12 -29v-62q0 -26 -29 -38q-82 -21 -135 -21q-113 0 -186 57q-74 57 -74 168q0 138 113 240h-705q-16 0 -27 11q-12 12 -12 28z" />
    <glyph glyph-name="eogonek" unicode="&#x119;" horiz-adv-x="913" 
d="M313 -240q0 124 99 226q-155 24 -253 143t-98 281q0 175 119 303q118 127 299 127q160 0 272 -109q111 -108 111 -272q0 -31 -4 -56q-4 -34 -39 -34h-524q5 -70 58 -125q54 -56 139 -56q83 0 159 54q39 22 54 0q7 -7 41 -47q6 -7 21 -25t21 -25q29 -29 -2 -53
q-93 -87 -241 -108q-78 -85 -78 -181q0 -55 36 -93t99 -38q16 0 94 19q17 5 29 -6t12 -29v-62q0 -26 -28 -38q-82 -21 -136 -21q-113 0 -186 57q-74 57 -74 168zM313 512h310q-4 57 -49 98q-44 41 -101 41q-62 0 -106 -40q-47 -42 -54 -99z" />
    <glyph glyph-name="Ecaron" unicode="&#x11a;" horiz-adv-x="1204" 
d="M186 39v1356q0 15 12 27t27 12h834q15 0 27 -12t12 -27v-168q0 -16 -12 -28q-11 -11 -27 -11h-606v-336h505q16 0 28 -12q11 -11 11 -27v-170q0 -17 -11 -28t-28 -11h-505v-358h606q15 0 27 -12t12 -27v-168q0 -16 -12 -28q-11 -11 -27 -11h-834q-16 0 -27 11
q-12 12 -12 28zM625 1565l-267 207q-27 18 -12 38l53 76q18 23 47 6l199 -125l201 125q29 17 47 -6l53 -76q15 -20 -12 -38l-266 -207q-21 -16 -43 0z" />
    <glyph glyph-name="ecaron" unicode="&#x11b;" horiz-adv-x="911" 
d="M61 410q0 175 119 303q118 127 299 127q160 0 272 -109q111 -108 111 -272q0 -31 -4 -56q-4 -34 -39 -34h-524q5 -71 58 -124q55 -55 139 -55q86 0 159 52q35 22 54 0l83 -97q29 -29 -2 -53q-121 -112 -305 -112q-183 0 -301 124q-119 125 -119 306zM313 512h310
q-4 57 -49 98q-44 41 -101 41q-62 0 -106 -40q-47 -42 -54 -99zM453 1073l-267 207q-27 18 -12 39l53 76q18 23 47 6l199 -125l201 125q29 17 47 -6l53 -76q15 -21 -12 -39l-266 -207q-21 -16 -43 0z" />
    <glyph glyph-name="Gcircumflex" unicode="&#x11c;" horiz-adv-x="1458" 
d="M84 715q0 306 215 523q215 216 520 216q277 0 500 -190q29 -31 2 -58l-127 -133q-24 -24 -53 0q-136 119 -310 119q-191 0 -324 -140q-134 -142 -134 -335q0 -192 134 -331q133 -138 327 -138q116 0 243 51v174h-164q-16 0 -27 10q-12 11 -12 27v162q0 39 39 39h394
q13 0 25 -12q11 -11 11 -27v-525q0 -20 -16 -32q-22 -14 -67 -37q-44 -22 -177 -60q-128 -36 -264 -36q-307 0 -521 213t-214 520zM616 1569q-29 -17 -47 6l-53 76q-15 21 12 39l267 206q21 16 43 0l266 -206q27 -18 12 -39l-53 -76q-18 -23 -47 -6l-199 125z" />
    <glyph glyph-name="gcircumflex" unicode="&#x11d;" horiz-adv-x="946" 
d="M37 61q0 44 15 85q15 40 39 66q27 29 46 44q27 21 39 27l14 8q-61 68 -61 192q0 147 103 251q104 106 253 106h373q39 0 39 -39v-68q0 -29 -23 -35l-114 -36l22 -22q13 -13 37 -69q23 -54 23 -118q0 -127 -98 -225q-97 -97 -252 -97q-42 0 -100 8t-64 8q-24 0 -50 -21
t-26 -56q0 -32 23 -51t59 -19h262q146 0 242 -78t96 -209q0 -150 -118 -249t-331 -99q-208 0 -313 84q-104 83 -104 197q0 121 122 194v6q-20 6 -56 27q-26 16 -63 70q-34 50 -34 118zM348 473q0 -62 41 -105q41 -42 103 -42q63 0 102 41t39 106q0 67 -39 107
q-39 41 -102 41q-62 0 -103 -42q-41 -43 -41 -106zM303 -309q0 -53 49 -87t131 -34q87 0 139 36t52 93q0 37 -35 69q-34 31 -115 31q-72 0 -133 -8q-88 -28 -88 -100zM264 1083l-53 76q-15 21 12 39l266 207q21 16 43 0l267 -207q27 -18 12 -39l-53 -76q-18 -23 -47 -6
l-199 125l-201 -125q-29 -17 -47 6z" />
    <glyph glyph-name="Gbreve" unicode="&#x11e;" horiz-adv-x="1458" 
d="M84 715q0 306 215 523q215 216 520 216q277 0 500 -190q29 -31 2 -58l-127 -133q-24 -24 -53 0q-136 119 -310 119q-191 0 -324 -140q-134 -142 -134 -335q0 -192 134 -331q133 -138 327 -138q116 0 243 51v174h-164q-16 0 -27 10q-12 11 -12 27v162q0 39 39 39h394
q13 0 25 -12q11 -11 11 -27v-525q0 -20 -16 -32q-22 -14 -67 -37q-44 -22 -177 -60q-128 -36 -264 -36q-307 0 -521 213t-214 520zM821 1569q-112 0 -190 68q-80 69 -96 173q-5 19 7 31t29 12h76q28 0 35 -28q18 -50 53 -78q39 -31 86 -31q43 0 81 32q37 31 54 77
q6 28 35 28h80q19 0 29 -12q10 -11 8 -31q-16 -104 -97 -173q-80 -68 -190 -68z" />
    <glyph glyph-name="gbreve" unicode="&#x11f;" horiz-adv-x="946" 
d="M37 61q0 44 15 85q15 40 39 66q27 29 46 44q27 21 39 27l14 8q-61 68 -61 192q0 147 103 251q104 106 253 106h373q39 0 39 -39v-68q0 -29 -23 -35l-114 -36l22 -22q13 -13 37 -69q23 -54 23 -118q0 -127 -98 -225q-97 -97 -252 -97q-42 0 -100 8t-64 8q-24 0 -50 -21
t-26 -56q0 -32 23 -51t59 -19h262q146 0 242 -78t96 -209q0 -150 -118 -249t-331 -99q-208 0 -313 84q-104 83 -104 197q0 121 122 194v6q-20 6 -56 27q-26 16 -63 70q-34 50 -34 118zM348 473q0 -62 41 -105q41 -42 103 -42q63 0 102 41t39 106q0 67 -39 107
q-39 41 -102 41q-62 0 -103 -42q-41 -43 -41 -106zM303 -309q0 -53 49 -87t131 -34q87 0 139 36t52 93q0 37 -35 69q-34 31 -115 31q-72 0 -133 -8q-88 -28 -88 -100zM510 1081q-112 0 -191 69q-80 69 -96 173q-5 18 6 32q10 13 31 13h76q27 0 35 -29q16 -49 53 -78
q38 -30 86 -30q44 0 82 32q36 31 53 76q6 29 35 29h80q18 0 28 -13q11 -14 9 -32q-16 -103 -98 -173q-81 -69 -189 -69z" />
    <glyph glyph-name="Gdotaccent" unicode="&#x120;" horiz-adv-x="1458" 
d="M84 715q0 306 215 523q215 216 520 216q277 0 500 -190q29 -31 2 -58l-127 -133q-24 -24 -53 0q-136 119 -310 119q-191 0 -324 -140q-134 -142 -134 -335q0 -192 134 -331q133 -138 327 -138q116 0 243 51v174h-164q-16 0 -27 10q-12 11 -12 27v162q0 39 39 39h394
q13 0 25 -12q11 -11 11 -27v-525q0 -20 -16 -32q-22 -14 -67 -37q-44 -22 -177 -60q-128 -36 -264 -36q-307 0 -521 213t-214 520zM821 1599q-61 0 -104 43t-43 105q0 61 43 104t104 43q62 0 105 -43t43 -104q0 -62 -43 -105t-105 -43z" />
    <glyph glyph-name="gdotaccent" unicode="&#x121;" horiz-adv-x="946" 
d="M37 61q0 44 15 85q15 40 39 66q27 29 46 44q27 21 39 27l14 8q-61 68 -61 192q0 147 103 251q104 106 253 106h373q39 0 39 -39v-68q0 -29 -23 -35l-114 -36l22 -22q13 -13 37 -69q23 -54 23 -118q0 -127 -98 -225q-97 -97 -252 -97q-42 0 -100 8t-64 8q-24 0 -50 -21
t-26 -56q0 -32 23 -51t59 -19h262q146 0 242 -78t96 -209q0 -150 -118 -249t-331 -99q-208 0 -313 84q-104 83 -104 197q0 121 122 194v6q-20 6 -56 27q-26 16 -63 70q-34 50 -34 118zM348 473q0 -62 41 -105q41 -42 103 -42q63 0 102 41t39 106q0 67 -39 107
q-39 41 -102 41q-62 0 -103 -42q-41 -43 -41 -106zM303 -309q0 -53 49 -87t131 -34q87 0 139 36t52 93q0 37 -35 69q-34 31 -115 31q-72 0 -133 -8q-88 -28 -88 -100zM506 1098q-62 0 -105 43t-43 104q0 62 43 105t105 43q61 0 104 -43t43 -105q0 -61 -43 -104t-104 -43z
" />
    <glyph glyph-name="Gcommaaccent" unicode="&#x122;" horiz-adv-x="1458" 
d="M84 715q0 306 215 523q215 216 520 216q277 0 500 -190q29 -31 2 -58l-127 -133q-24 -24 -53 0q-136 119 -310 119q-191 0 -324 -140q-134 -142 -134 -335q0 -192 134 -331q133 -138 327 -138q116 0 243 51v174h-164q-16 0 -27 10q-12 11 -12 27v162q0 39 39 39h394
q13 0 25 -12q11 -11 11 -27v-525q0 -20 -16 -32q-22 -14 -67 -37q-44 -22 -177 -60q-128 -36 -264 -36q-307 0 -521 213t-214 520zM811 -186q68 0 119 -53t51 -167q0 -207 -184 -370q-26 -20 -47 2l-31 29q-21 24 6 47q19 14 46 39q23 21 59 86q34 61 34 124l-4 -2
q-3 0 -9 -2q-3 -1 -13 -3q-3 -1 -9 -1.5t-9 -0.5q-6 -1 -19 -1q-56 0 -96 40q-41 41 -41 95q0 58 42 98q41 40 105 40z" />
    <glyph glyph-name="gcommaaccent" unicode="&#x123;" horiz-adv-x="946" 
d="M516 1083q-68 0 -119 53q-51 52 -51 167q0 207 184 370q27 21 48 -2l30 -29q21 -24 -6 -47q-19 -14 -46 -39q-23 -21 -59 -86q-34 -61 -34 -124l4 2q3 0 9 2q3 1 13 3q3 1 9 1.5t9 0.5q6 1 19 1q57 0 97 -40q41 -41 41 -95q0 -57 -42 -98q-41 -40 -106 -40zM37 61
q0 44 15 85q15 40 39 66q27 29 46 44q27 21 39 27l14 8q-61 68 -61 192q0 147 103 251q104 106 253 106h373q39 0 39 -39v-68q0 -29 -23 -35l-114 -36l22 -22q13 -13 37 -69q23 -54 23 -118q0 -127 -98 -225q-97 -97 -252 -97q-42 0 -100 8t-64 8q-24 0 -50 -21t-26 -56
q0 -32 23 -51t59 -19h262q146 0 242 -78t96 -209q0 -150 -118 -249t-331 -99q-208 0 -313 84q-104 83 -104 197q0 121 122 194v6q-20 6 -56 27q-26 16 -63 70q-34 50 -34 118zM348 473q0 -62 41 -105q41 -42 103 -42q63 0 102 41t39 106q0 67 -39 107q-39 41 -102 41
q-62 0 -103 -42q-41 -43 -41 -106zM303 -309q0 -53 49 -87t131 -34q87 0 139 36t52 93q0 37 -35 69q-34 31 -115 31q-72 0 -133 -8q-88 -28 -88 -100z" />
    <glyph glyph-name="Hcircumflex" unicode="&#x124;" horiz-adv-x="1574" 
d="M186 39v1356q0 14 12 26q13 13 27 13h191q15 0 27 -12t12 -27v-543h667v543q0 15 12 27t27 12h189q13 0 26 -13t13 -26v-1356q0 -14 -13 -27q-12 -12 -26 -12h-189q-16 0 -27 11q-12 12 -12 28v565h-667v-565q0 -16 -12 -28q-11 -11 -27 -11h-191q-15 0 -27 12t-12 27z
M596 1569q-29 -17 -47 6l-53 76q-15 21 12 39l266 206q21 16 43 0l266 -206q28 -18 13 -39l-54 -76q-18 -23 -47 -6l-198 125z" />
    <glyph glyph-name="hcircumflex" unicode="&#x125;" horiz-adv-x="1064" 
d="M123 39v1356q0 14 12 26q13 13 27 13h174q15 0 28 -13q11 -11 11 -26v-623q91 68 217 68q183 0 274 -118q92 -119 92 -290v-393q0 -15 -12 -27t-26 -12h-166q-17 0 -28 11t-11 28v395q0 84 -44 134t-118 50q-70 0 -115 -39q-47 -41 -63 -106v-434q0 -39 -43 -39h-170
q-15 0 -27 12t-12 27zM-4 1528l-53 76q-15 20 12 38l266 207q21 16 43 0l266 -207q27 -18 13 -38l-54 -76q-18 -23 -47 -6l-198 125l-201 -125q-29 -17 -47 6z" />
    <glyph glyph-name="Hbar" unicode="&#x126;" horiz-adv-x="1574" 
d="M186 39v1053h-53q-14 0 -25 11q-12 12 -12 27v27q0 16 12 28q11 11 25 11h53v199q0 14 12 26q13 13 27 13h191q15 0 27 -12t12 -27v-199h667v199q0 15 12 27t27 12h189q13 0 26 -13t13 -26v-199h53q16 0 27 -11q12 -12 12 -28v-29q0 -16 -12 -26q-11 -10 -27 -10h-53
v-1053q0 -14 -13 -27q-12 -12 -26 -12h-189q-16 0 -27 11q-12 12 -12 28v565h-667v-565q0 -16 -12 -28q-11 -11 -27 -11h-191q-15 0 -27 12t-12 27zM455 852h667v240h-667v-240z" />
    <glyph glyph-name="hbar" unicode="&#x127;" horiz-adv-x="1064" 
d="M123 39v1053h-64q-14 0 -25 11t-11 27v27q0 17 11 28t25 11h64v199q0 14 12 26q13 13 27 13h174q15 0 28 -13q11 -11 11 -26v-199h237q17 0 28 -11t11 -28v-29q0 -16 -11 -26t-28 -10h-237v-320q91 68 217 68q183 0 274 -118q92 -119 92 -290v-393q0 -15 -12 -27t-26 -12
h-166q-17 0 -28 11t-11 28v391q0 84 -44 134t-118 50q-69 0 -115 -40q-47 -41 -63 -105v-430q0 -39 -43 -39h-170q-15 0 -27 12t-12 27z" />
    <glyph glyph-name="Itilde" unicode="&#x128;" horiz-adv-x="641" 
d="M186 39v1356q0 14 12 26q13 13 27 13h191q13 0 26 -13t13 -26v-1356q0 -14 -13 -27q-12 -12 -26 -12h-191q-15 0 -27 12t-12 27zM76 1616l-60 43q-24 18 -12 47q11 20 26 45q8 13 39 52q32 40 67 57q38 18 81 18q59 0 121 -56q63 -57 98 -57q25 0 43 20q20 22 28 39
t27 30q17 11 35 -5l58 -41q26 -20 2 -63q-62 -107 -123 -137q-36 -19 -76 -19q-56 0 -126 58q-69 57 -97 57q-29 0 -51 -31q-31 -45 -37 -52q-17 -21 -43 -5z" />
    <glyph glyph-name="itilde" unicode="&#x129;" horiz-adv-x="493" 
d="M2 1151l-59 43q-25 19 -13 47q11 20 26 45q8 13 39 52q32 40 67 57q38 18 81 18q59 0 121 -56q63 -57 98 -57q26 0 44 20t27 39t27 31q17 11 36 -6l57 -41q26 -20 2 -63q-62 -107 -123 -137q-36 -19 -76 -19q-56 0 -126 58q-69 57 -97 57q-29 0 -51 -31q-32 -45 -37 -52
q-17 -21 -43 -5zM123 39v741q0 17 11 28t28 11h170q16 0 27 -11q12 -12 12 -28v-741q0 -15 -12 -27t-27 -12h-170q-15 0 -27 12t-12 27z" />
    <glyph glyph-name="Imacron" unicode="&#x12a;" horiz-adv-x="641" 
d="M186 39v1356q0 14 12 26q13 13 27 13h191q13 0 26 -13t13 -26v-1356q0 -14 -13 -27q-12 -12 -26 -12h-191q-15 0 -27 12t-12 27zM59 1655q-16 0 -27 10q-12 11 -12 27v69q0 39 39 39h525q39 0 39 -39v-69q0 -16 -12 -27q-11 -10 -27 -10h-525z" />
    <glyph glyph-name="imacron" unicode="&#x12b;" horiz-adv-x="493" 
d="M-14 1167q-15 0 -28 11q-11 10 -11 26v70q0 39 39 39h524q39 0 39 -39v-70q0 -16 -11 -26q-13 -11 -28 -11h-524zM123 39v741q0 17 11 28t28 11h170q16 0 27 -11q12 -12 12 -28v-741q0 -15 -12 -27t-27 -12h-170q-15 0 -27 12t-12 27z" />
    <glyph glyph-name="Ibreve" unicode="&#x12c;" horiz-adv-x="641" 
d="M186 39v1356q0 14 12 26q13 13 27 13h191q13 0 26 -13t13 -26v-1356q0 -14 -13 -27q-12 -12 -26 -12h-191q-15 0 -27 12t-12 27zM322 1569q-113 0 -191 68q-80 69 -96 173q-5 19 7 31t30 12h75q28 0 35 -28q17 -49 54 -78q39 -31 86 -31q42 0 80 32q39 32 55 77
q6 28 35 28h79q19 0 29 -12q10 -11 8 -31q-16 -104 -97 -173q-80 -68 -189 -68z" />
    <glyph glyph-name="ibreve" unicode="&#x12d;" horiz-adv-x="493" 
d="M248 1081q-112 0 -191 69q-80 69 -96 173q-5 18 6 32q10 13 31 13h76q27 0 35 -29q16 -49 53 -78q37 -30 86 -30q44 0 82 32q36 31 53 76q6 29 35 29h80q18 0 28 -13q11 -14 9 -32q-16 -103 -98 -173q-81 -69 -189 -69zM123 39v741q0 17 11 28t28 11h170q16 0 27 -11
q12 -12 12 -28v-741q0 -15 -12 -27t-27 -12h-170q-15 0 -27 12t-12 27z" />
    <glyph glyph-name="Iogonek" unicode="&#x12e;" horiz-adv-x="641" 
d="M186 39v1356q0 14 12 26q13 13 27 13h191q13 0 26 -13t13 -26v-1356q0 -14 -13 -27q-12 -12 -26 -12h-37q-92 -92 -92 -197q0 -55 36 -93t99 -38q16 0 94 19q17 5 29 -6t12 -29v-62q0 -26 -29 -38q-82 -21 -135 -21q-113 0 -186 57q-74 57 -74 168q0 138 113 240h-21
q-15 0 -27 12t-12 27z" />
    <glyph glyph-name="iogonek" unicode="&#x12f;" horiz-adv-x="493" 
d="M244 1110q-58 0 -99 41t-41 100q0 60 41 101t99 41t101 -41q42 -40 42 -101q0 -59 -42 -100q-43 -41 -101 -41zM123 39v741q0 17 11 28t28 11h170q16 0 27 -11q12 -12 12 -28v-741q0 -15 -12 -27t-27 -12h-37q-92 -92 -92 -197q0 -55 36 -93t99 -38q16 0 94 19
q17 5 29 -6t12 -29v-62q0 -26 -29 -38q-82 -21 -135 -21q-113 0 -186 57q-74 57 -74 168q0 138 113 240q-15 0 -27 12t-12 27z" />
    <glyph glyph-name="Idotaccent" unicode="&#x130;" horiz-adv-x="641" 
d="M186 39v1356q0 14 12 26q13 13 27 13h191q13 0 26 -13t13 -26v-1356q0 -14 -13 -27q-12 -12 -26 -12h-191q-15 0 -27 12t-12 27zM322 1599q-62 0 -105 43t-43 105q0 61 43 104t105 43q61 0 104 -43t43 -104q0 -62 -43 -105t-104 -43z" />
    <glyph glyph-name="dotlessi" unicode="&#x131;" horiz-adv-x="493" 
d="M123 39v741q0 17 11 28t28 11h170q16 0 27 -11q12 -12 12 -28v-741q0 -15 -12 -27t-27 -12h-170q-15 0 -27 12t-12 27z" />
    <glyph glyph-name="IJ" unicode="&#x132;" horiz-adv-x="1536" 
d="M186 39v1356q0 14 12 26q13 13 27 13h191q13 0 26 -13t13 -26v-1356q0 -14 -13 -27q-12 -12 -26 -12h-191q-15 0 -27 12t-12 27zM647 129q-17 27 4 51l107 109q30 29 61 -2q61 -66 135 -66q65 0 115 54q49 53 49 153v967q0 16 11 27q12 12 28 12h193q15 0 27 -12t12 -27
v-967q0 -206 -122 -328q-120 -120 -309 -120q-190 0 -311 149z" />
    <glyph glyph-name="ij" unicode="&#x133;" 
d="M244 1110q-58 0 -99 41t-41 100q0 60 41 101t99 41t101 -41q42 -40 42 -101q0 -59 -42 -100q-43 -41 -101 -41zM123 39v741q0 17 11 28t28 11h170q16 0 27 -11q12 -12 12 -28v-741q0 -15 -12 -27t-27 -12h-170q-15 0 -27 12t-12 27zM774 1110q-57 0 -98 41t-41 100
q0 60 41 101t98 41q59 0 102 -41q42 -40 42 -101q0 -59 -42 -100q-43 -41 -102 -41zM651 -221v1001q0 16 12 28q11 11 27 11h172q17 0 28 -11t11 -28v-1001q0 -198 -106 -305q-107 -109 -275 -109q-72 0 -142 26q-69 25 -99 54q-25 19 -9 47l68 131q15 28 49 10
q68 -41 121 -41q68 0 106 49q37 47 37 138z" />
    <glyph glyph-name="Jcircumflex" unicode="&#x134;" horiz-adv-x="856" 
d="M-33 129q-17 27 4 51l107 109q30 29 61 -2q61 -66 135 -66q66 0 115 54q49 53 49 153v967q0 15 12 27t27 12h193q15 0 27 -12t12 -27v-967q0 -206 -122 -328q-120 -120 -308 -120q-191 0 -312 149zM377 1569q-29 -17 -47 6l-54 76q-15 21 13 39l266 206q21 16 43 0
l266 -206q28 -18 13 -39l-54 -76q-18 -23 -47 -6l-198 125z" />
    <glyph glyph-name="jcircumflex" unicode="&#x135;" horiz-adv-x="495" 
d="M123 -221v1001q0 17 11 28t28 11h172q16 0 27 -11q12 -12 12 -28v-1001q0 -196 -107 -305t-274 -109q-73 0 -143 26q-69 25 -99 54q-25 18 -8 47l68 131q15 28 49 10q68 -41 121 -41q68 0 106 49q37 47 37 138zM-2 1083l-53 76q-15 21 12 39l266 207q21 16 43 0l266 -207
q28 -18 13 -39l-53 -76q-18 -23 -48 -6l-198 125l-201 -125q-29 -17 -47 6z" />
    <glyph glyph-name="Kcommaaccent" unicode="&#x136;" horiz-adv-x="1341" 
d="M186 49v1335q0 20 15 35t35 15h180q20 0 35 -15q14 -14 14 -35v-553l516 582q17 21 39 21h205q29 0 41 -26t-9 -48l-534 -602l573 -686q16 -20 4 -46t-40 -26h-224q-27 0 -37 14l-534 660v-625q0 -21 -14 -35t-35 -14h-180q-21 0 -35 14q-15 15 -15 35zM715 -186
q68 0 119 -53t51 -167q0 -206 -185 -370q-26 -20 -47 2l-30 29q-21 24 6 47q19 14 46 39q23 21 59 86q34 61 34 124l-4 -2q-3 0 -9 -2q-2 -1 -14 -3q-3 -1 -8.5 -1.5t-8.5 -0.5q-6 -1 -19 -1q-57 0 -97 40q-41 41 -41 95q0 58 42 98q41 40 106 40z" />
    <glyph glyph-name="kcommaaccent" unicode="&#x137;" horiz-adv-x="1001" 
d="M123 39v1356q0 14 12 26q13 13 27 13h174q15 0 28 -13q11 -11 11 -26v-887l282 287q29 24 52 24h186q25 0 34 -21q9 -22 -7 -38l-306 -311l365 -392q16 -16 7 -37q-9 -20 -34 -20h-221q-23 0 -35 16l-323 369v-346q0 -16 -11 -27q-12 -12 -28 -12h-174q-15 0 -27 12
t-12 27zM532 -186q68 0 119 -53t51 -167q0 -207 -184 -370q-26 -20 -47 2l-31 29q-21 24 6 47q23 16 47 39q23 21 59 86q34 61 34 124l-4 -2q-4 0 -10 -2q-3 -1 -13 -3q-3 -1 -8.5 -1.5t-8.5 -0.5q-6 -1 -20 -1q-56 0 -96 40q-41 41 -41 95q0 58 42 98q41 40 105 40z" />
    <glyph glyph-name="kgreenlandic" unicode="&#x138;" horiz-adv-x="1009" 
d="M123 39v741q0 15 12 27t27 12h174q16 0 28 -12q11 -11 11 -27v-325l309 340q21 24 51 24h187q24 0 33 -21q9 -22 -7 -38l-340 -361l373 -342q16 -16 7 -37q-9 -20 -34 -20h-221q-13 0 -35 16l-323 316v-293q0 -16 -11 -27q-12 -12 -28 -12h-174q-15 0 -27 12t-12 27z" />
    <glyph glyph-name="Lacute" unicode="&#x139;" horiz-adv-x="1034" 
d="M186 39v1356q0 15 12 27t27 12h189q14 0 27 -13q12 -12 12 -26v-1149h522q15 0 27 -12t12 -27v-168q0 -16 -12 -28q-11 -11 -27 -11h-750q-16 0 -27 11q-12 12 -12 28zM174 1573q-36 -16 -51 14l-37 72q-12 24 12 39l336 200q37 22 53 -6l58 -106q22 -38 -13 -55z" />
    <glyph glyph-name="lacute" unicode="&#x13a;" horiz-adv-x="495" 
d="M123 39v1356q0 14 12 26q13 13 27 13h172q13 0 26 -13t13 -26v-1356q0 -14 -13 -27q-12 -12 -26 -12h-172q-15 0 -27 12t-12 27zM100 1526q-38 -15 -53 12l-35 74q-12 22 13 39l333 198q38 24 54 -6l59 -104q18 -39 -12 -56z" />
    <glyph glyph-name="Lcommaaccent" unicode="&#x13b;" horiz-adv-x="1036" 
d="M186 39v1356q0 15 12 27t27 12h189q14 0 27 -13q12 -12 12 -26v-1149h522q15 0 27 -12t12 -27v-168q0 -16 -12 -28q-11 -11 -27 -11h-750q-16 0 -27 11q-12 12 -12 28zM598 -186q68 0 119 -53t51 -167q0 -207 -184 -370q-26 -20 -47 2l-31 29q-21 24 6 47q19 14 46 39
q23 21 59 86q34 61 34 124l-4 -2q-3 0 -9 -2q-3 -1 -13 -3q-3 -1 -9 -1.5t-9 -0.5q-6 -1 -19 -1q-56 0 -96 40q-41 41 -41 95q0 58 42 98q41 40 105 40z" />
    <glyph glyph-name="lcommaaccent" unicode="&#x13c;" horiz-adv-x="495" 
d="M123 39v1356q0 14 12 26q13 13 27 13h172q13 0 26 -13t13 -26v-1356q0 -14 -13 -27q-12 -12 -26 -12h-172q-15 0 -27 12t-12 27zM240 -186q67 0 118 -53q52 -54 52 -167q0 -206 -185 -370q-26 -20 -47 2l-31 29q-21 24 7 47q19 14 46 39q23 21 59 86q34 61 34 124l-4 -2
q-3 0 -9 -2q-1 -1 -14 -3q-3 -1 -8.5 -1.5t-8.5 -0.5q-6 -1 -20 -1q-56 0 -96 40q-41 41 -41 95q0 58 42 98q41 40 106 40z" />
    <glyph glyph-name="Lcaron" unicode="&#x13d;" horiz-adv-x="1034" 
d="M186 39v1356q0 15 12 27t27 12h189q14 0 27 -13q12 -12 12 -26v-1149h522q15 0 27 -12t12 -27v-168q0 -16 -12 -28q-11 -11 -27 -11h-750q-16 0 -27 11q-12 12 -12 28zM813 1454q68 0 119 -52t51 -167q0 -208 -184 -371q-26 -20 -47 2l-31 29q-21 24 6 47q19 14 46 39
q25 23 60 86q33 59 33 125h-4l-9 -3q-3 -1 -13 -3l-18 -3q-6 -1 -19 -1q-56 0 -96 40q-41 41 -41 95q0 57 42 97q41 40 105 40z" />
    <glyph glyph-name="lcaron" unicode="&#x13e;" horiz-adv-x="557" 
d="M123 39v1356q0 14 12 26q13 13 27 13h172q13 0 26 -13t13 -26v-1356q0 -14 -13 -27q-12 -12 -26 -12h-172q-15 0 -27 12t-12 27zM651 866l-28 29q-23 23 4 47q19 14 46 39q23 21 59 86q34 61 34 125l-8 -2q-3 0 -7 -1t-9 -2t-9 -2q-15 -3 -28 -3q-57 0 -98 39
q-40 39 -40 96t42 97q41 40 104 40q67 0 118 -52q52 -54 52 -167q0 -207 -185 -371q-27 -18 -47 2z" />
    <glyph glyph-name="Ldot" unicode="&#x13f;" horiz-adv-x="1181" 
d="M186 39v1356q0 15 12 27t27 12h189q14 0 27 -13q12 -12 12 -26v-1149h522q15 0 27 -12t12 -27v-168q0 -16 -12 -28q-11 -11 -27 -11h-750q-16 0 -27 11q-12 12 -12 28zM985 582q-61 0 -104 43t-43 104q0 62 43 105t104 43q62 0 105 -43t43 -105q0 -61 -43 -104t-105 -43z
" />
    <glyph glyph-name="ldot" unicode="&#x140;" horiz-adv-x="808" 
d="M123 39v1356q0 14 12 26q13 13 27 13h172q13 0 26 -13t13 -26v-1356q0 -14 -13 -27q-12 -12 -26 -12h-172q-15 0 -27 12t-12 27zM651 590q-61 0 -104 43t-43 104q0 62 43 105t104 43q62 0 105 -43t43 -105q0 -61 -43 -104t-105 -43z" />
    <glyph glyph-name="Lslash" unicode="&#x141;" horiz-adv-x="1060" 
d="M213 39v588l-47 -25q-13 -8 -28 -4q-16 5 -23 18l-15 25q-21 33 13 51l100 56v647q0 16 11 27q12 12 28 12h188q14 0 27 -13q12 -12 12 -26v-492l178 105q32 16 54 -15l14 -26q19 -30 -14 -52l-232 -135v-534h522q16 0 28 -12q11 -11 11 -27v-168q0 -17 -11 -28t-28 -11
h-749q-17 0 -28 11t-11 28z" />
    <glyph glyph-name="lslash" unicode="&#x142;" horiz-adv-x="526" 
d="M152 39v598l-70 -39q-35 -21 -53 14l-13 25q-21 33 13 51l123 70v637q0 14 12 26q13 13 26 13h172q14 0 27 -13q12 -12 12 -26v-490l129 76q35 22 54 -14l14 -27q8 -13 4 -28q-5 -16 -18 -23l-183 -107v-743q0 -15 -12 -27t-27 -12h-172q-14 0 -26 12t-12 27z" />
    <glyph glyph-name="Nacute" unicode="&#x143;" horiz-adv-x="1583" 
d="M186 39v1378q0 14 12 26q11 11 27 11h51l852 -905h2v846q0 15 12 27t27 12h189q13 0 26 -13t13 -26v-1379q0 -13 -12 -25q-11 -11 -27 -11h-49l-856 940h-2v-881q0 -16 -12 -28q-11 -11 -27 -11h-187q-15 0 -27 12t-12 27zM653 1573q-36 -16 -51 14l-37 72q-12 24 13 39
l335 200q37 22 54 -6l57 -106q22 -39 -12 -55z" />
    <glyph glyph-name="nacute" unicode="&#x144;" horiz-adv-x="1062" 
d="M123 39v741q0 17 11 28t28 11h78q24 0 34 -24l29 -76q112 121 289 121q184 0 274 -117t90 -291v-393q0 -16 -11 -27q-12 -12 -27 -12h-168q-17 0 -28 11t-11 28v405q0 81 -40 127q-41 47 -114 47q-76 0 -124 -39q-50 -41 -68 -90v-450q0 -39 -52 -39h-151q-15 0 -27 12
t-12 27zM406 1081q-39 -15 -54 13l-35 73q-12 22 13 39l334 199q37 24 53 -6l59 -105q18 -40 -12 -55z" />
    <glyph glyph-name="Ncommaaccent" unicode="&#x145;" horiz-adv-x="1583" 
d="M186 39v1378q0 14 12 26q11 11 27 11h51l852 -905h2v846q0 15 12 27t27 12h189q13 0 26 -13t13 -26v-1379q0 -13 -12 -25q-11 -11 -27 -11h-49l-856 940h-2v-881q0 -16 -12 -28q-11 -11 -27 -11h-187q-15 0 -27 12t-12 27zM817 -186q68 0 119 -53t51 -167
q0 -207 -184 -370q-26 -20 -47 2l-31 29q-21 24 6 47q19 14 46 39q25 23 60 86q33 59 33 124l-4 -2q-3 0 -9 -2q-3 -1 -13 -3q-3 -1 -9 -1.5t-9 -0.5q-6 -1 -19 -1q-56 0 -96 40q-41 41 -41 95q0 58 42 98q41 40 105 40z" />
    <glyph glyph-name="ncommaaccent" unicode="&#x146;" horiz-adv-x="1064" 
d="M123 39v741q0 17 11 28t28 11h78q24 0 34 -24l29 -76q112 121 289 121q184 0 274 -117t90 -291v-393q0 -16 -11 -27q-12 -12 -27 -12h-168q-17 0 -28 11t-11 28v405q0 81 -40 127q-41 47 -114 47q-76 0 -124 -39q-50 -41 -68 -90v-450q0 -39 -52 -39h-151q-15 0 -27 12
t-12 27zM530 -186q68 0 119 -53t51 -167q0 -207 -184 -370q-26 -20 -47 2l-31 29q-21 24 6 47q19 14 46 39q25 23 60 86q34 61 34 124l-4 -2q-4 0 -10 -2q-3 -1 -13 -3q-3 -1 -8.5 -1.5t-8.5 -0.5q-6 -1 -20 -1q-56 0 -96 40q-41 41 -41 95q0 58 42 98q41 40 105 40z" />
    <glyph glyph-name="Ncaron" unicode="&#x147;" horiz-adv-x="1583" 
d="M186 39v1378q0 14 12 26q11 11 27 11h51l852 -905h2v846q0 15 12 27t27 12h189q13 0 26 -13t13 -26v-1379q0 -13 -12 -25q-11 -11 -27 -11h-49l-856 940h-2v-881q0 -16 -12 -28q-11 -11 -27 -11h-187q-15 0 -27 12t-12 27zM766 1565l-266 207q-27 18 -13 38l54 76
q18 23 47 6l198 -125l201 125q29 17 47 -6l53 -76q15 -20 -12 -38l-266 -207q-21 -16 -43 0z" />
    <glyph glyph-name="ncaron" unicode="&#x148;" horiz-adv-x="1062" 
d="M123 39v741q0 17 11 28t28 11h78q24 0 34 -24l29 -76q112 121 289 121q184 0 274 -117t90 -291v-393q0 -16 -11 -27q-12 -12 -27 -12h-168q-17 0 -28 11t-11 28v405q0 81 -40 127q-41 47 -114 47q-76 0 -124 -39q-50 -41 -68 -90v-450q0 -39 -52 -39h-151q-15 0 -27 12
t-12 27zM530 1073l-266 207q-27 18 -12 39l53 76q18 23 47 6l199 -125l201 125q29 17 47 -6l53 -76q15 -21 -12 -39l-267 -207q-21 -16 -43 0z" />
    <glyph glyph-name="napostrophe" unicode="&#x149;" horiz-adv-x="1062" 
d="M123 39v741q0 17 11 28t28 11h78q24 0 34 -24l29 -76q112 121 289 121q184 0 274 -117t90 -291v-393q0 -16 -11 -27q-12 -12 -27 -12h-168q-17 0 -28 11t-11 28v405q0 81 -40 127q-41 47 -114 47q-76 0 -124 -39q-50 -41 -68 -90v-450q0 -39 -52 -39h-151q-15 0 -27 12
t-12 27zM-174 1454q68 0 119 -52t51 -167q0 -208 -184 -371q-27 -21 -48 2l-30 29q-21 24 6 47q19 14 46 39q23 21 59 86q34 61 34 125h-4l-9 -3q-3 -1 -13 -3q-2 0 -5 -0.5t-7 -1.5t-6 -1q-6 -1 -19 -1q-57 0 -97 40q-41 41 -41 95q0 57 42 97q41 40 106 40z" />
    <glyph glyph-name="Eng" unicode="&#x14a;" horiz-adv-x="1583" 
d="M186 39v1378q0 14 12 26q11 11 27 11h51l852 -905h2v846q0 15 12 27t27 12h189q13 0 26 -13t13 -26v-1616q0 -196 -107 -305t-274 -109q-73 0 -143 26q-69 25 -99 54q-25 18 -8 47l68 131q15 28 49 10q68 -41 121 -41q137 0 137 187v383l-688 758h-2v-881q0 -16 -12 -28
q-11 -11 -27 -11h-187q-15 0 -27 12t-12 27z" />
    <glyph glyph-name="eng" unicode="&#x14b;" horiz-adv-x="1062" 
d="M123 39v741q0 17 11 28t28 11h78q24 0 34 -24l29 -76q112 121 289 121q184 0 274 -117t90 -291v-653q0 -198 -106 -305q-107 -109 -275 -109q-72 0 -142 26q-69 25 -99 54q-25 18 -8 47l67 131q15 28 49 10q67 -41 121 -41q70 0 109 50t39 137v653q0 81 -40 127
q-41 47 -114 47q-75 0 -124 -40q-51 -42 -68 -89v-438q0 -39 -52 -39h-151q-15 0 -27 12t-12 27z" />
    <glyph glyph-name="Omacron" unicode="&#x14c;" horiz-adv-x="1638" 
d="M84 715q0 308 214 523q214 216 521 216t522 -216q215 -217 215 -523t-215 -521q-214 -214 -522 -214q-307 0 -521 214t-214 521zM350 715q0 -196 138 -332q139 -137 331 -137q195 0 333 138t138 331q0 195 -139 334t-332 139t-331 -139t-138 -334zM557 1655q-17 0 -28 10
t-11 27v69q0 39 39 39h524q39 0 39 -39v-69q0 -17 -11 -27t-28 -10h-524z" />
    <glyph glyph-name="omacron" unicode="&#x14d;" horiz-adv-x="958" 
d="M59 412q0 174 124 301t296 127t296 -127t124 -301q0 -176 -123 -304t-297 -128t-297 128t-123 304zM283 412q0 -88 57 -150q57 -61 139 -61t139 61q58 63 58 150q0 85 -58 146q-57 60 -139 60t-139 -60t-57 -146zM217 1167q-15 0 -28 11q-11 10 -11 26v70q0 39 39 39h524
q39 0 39 -39v-70q0 -16 -11 -26q-13 -11 -28 -11h-524z" />
    <glyph glyph-name="Obreve" unicode="&#x14e;" horiz-adv-x="1638" 
d="M84 715q0 308 214 523q214 216 521 216t522 -216q215 -217 215 -523t-215 -521q-214 -214 -522 -214q-307 0 -521 214t-214 521zM350 715q0 -196 138 -332q139 -137 331 -137q195 0 333 138t138 331q0 195 -139 334t-332 139t-331 -139t-138 -334zM819 1569
q-112 0 -190 68q-81 70 -97 173q-5 18 8 31q12 12 29 12h76q28 0 35 -28q18 -50 53 -78q39 -31 86 -31q43 0 81 32q37 31 54 77q6 28 35 28h80q19 0 29 -12q10 -11 8 -31q-16 -104 -97 -173q-80 -68 -190 -68z" />
    <glyph glyph-name="obreve" unicode="&#x14f;" horiz-adv-x="958" 
d="M59 412q0 174 124 301t296 127t296 -127t124 -301q0 -176 -123 -304t-297 -128t-297 128t-123 304zM283 412q0 -88 57 -150q57 -61 139 -61t139 61q58 63 58 150q0 85 -58 146q-57 60 -139 60t-139 -60t-57 -146zM481 1081q-111 0 -190 69q-80 69 -96 173q-5 18 6 32
q10 13 30 13h76q27 0 35 -29q16 -49 53 -78q37 -30 86 -30q44 0 82 32q36 31 53 76q6 29 35 29h80q19 0 29 -13q10 -12 8 -32q-16 -104 -97 -173t-190 -69z" />
    <glyph glyph-name="Ohungarumlaut" unicode="&#x150;" horiz-adv-x="1638" 
d="M84 715q0 308 214 523q214 216 521 216t522 -216q215 -217 215 -523t-215 -521q-214 -214 -522 -214q-307 0 -521 214t-214 521zM350 715q0 -196 138 -332q139 -137 331 -137q195 0 333 138t138 331q0 195 -139 334t-332 139t-331 -139t-138 -334zM981 1573q-23 0 -33 11
q-10 12 -6 28l76 289q12 38 39 38h155q29 0 39 -16t-2 -35l-159 -284q-17 -31 -37 -31h-72zM641 1573q-23 0 -33 11q-10 12 -6 28l76 289q12 38 39 38h155q28 0 39 -15q10 -15 -2 -36l-159 -284q-17 -31 -37 -31h-72z" />
    <glyph glyph-name="ohungarumlaut" unicode="&#x151;" horiz-adv-x="958" 
d="M59 412q0 174 124 301t296 127t296 -127t124 -301q0 -176 -123 -304t-297 -128t-297 128t-123 304zM283 412q0 -88 57 -150q57 -61 139 -61t139 61q58 63 58 150q0 85 -58 146q-57 60 -139 60t-139 -60t-57 -146zM623 1067q-23 0 -33 11q-10 12 -6 28l75 289q12 39 39 39
h156q28 0 39 -17q10 -16 -2 -35l-160 -284q-15 -31 -37 -31h-71zM283 1067q-23 0 -33 11q-10 12 -6 28l75 289q12 39 39 39h156q28 0 39 -16q10 -15 -2 -36l-160 -284q-15 -31 -37 -31h-71z" />
    <glyph glyph-name="OE" unicode="&#x152;" horiz-adv-x="1996" 
d="M84 715q0 308 214 523q214 216 521 216q45 0 100 -5q47 -4 74 -11l25 -4h833q16 0 28 -12q11 -11 11 -27v-168q0 -17 -11 -28t-28 -11h-606v-336h506q15 0 27 -12t12 -27v-170q0 -17 -11 -28t-28 -11h-506v-358h606q16 0 28 -12q11 -11 11 -27v-168q0 -17 -11 -28
t-28 -11h-833q-109 -20 -199 -20q-307 0 -521 214t-214 521zM350 715q0 -194 138 -334q138 -139 331 -139q96 0 160 26v895q-81 29 -160 29q-193 0 -331 -141t-138 -336z" />
    <glyph glyph-name="oe" unicode="&#x153;" horiz-adv-x="1499" 
d="M59 414q0 175 124 300q125 126 296 126q170 0 293 -129q117 129 295 129q157 0 270 -108t113 -273q0 -31 -4 -56q-4 -34 -39 -34h-522q7 -68 61 -125q53 -56 133 -56q82 0 162 54q35 23 53 0l82 -97q24 -33 -2 -53q-116 -112 -305 -112q-179 0 -297 129
q-118 -129 -293 -129q-171 0 -296 128q-124 127 -124 306zM903 512h307q-1 56 -46 97q-43 40 -103 40q-63 0 -106 -39q-45 -40 -52 -98zM283 414q0 -88 57 -151q56 -62 139 -62t139 62q58 64 58 151q0 84 -58 145q-56 59 -139 59t-139 -59q-57 -60 -57 -145z" />
    <glyph glyph-name="Racute" unicode="&#x154;" horiz-adv-x="1363" 
d="M186 39v1356q0 15 12 27t27 12h586q185 0 315 -129q131 -129 131 -312q0 -140 -82 -249q-81 -107 -221 -164l281 -521q12 -22 1 -40q-12 -19 -36 -19h-215q-23 0 -33 18l-272 543h-227v-522q0 -15 -12 -27t-27 -12h-189q-16 0 -27 11q-12 12 -12 28zM455 780h333
q83 0 143 62t60 147q0 81 -60 140q-61 59 -143 59h-333v-408zM528 1573q-36 -16 -51 14l-37 72q-12 24 13 39l335 200q38 22 54 -6l57 -106q22 -39 -12 -55z" />
    <glyph glyph-name="racute" unicode="&#x155;" horiz-adv-x="698" 
d="M123 39v741q0 17 11 28t28 11h78q26 0 36 -26l29 -80q88 127 232 127q76 0 127 -23q48 -22 30 -59l-76 -133q-19 -34 -47 -19q-37 12 -59 12q-56 0 -93 -27q-36 -26 -52 -56v-496q0 -39 -48 -39h-157q-15 0 -27 12t-12 27zM221 1081q-38 -15 -53 13l-35 73q-12 23 12 39
l334 199q37 24 53 -6l60 -105q18 -40 -12 -55z" />
    <glyph glyph-name="Rcommaaccent" unicode="&#x156;" horiz-adv-x="1363" 
d="M186 39v1356q0 15 12 27t27 12h586q185 0 315 -129q131 -129 131 -312q0 -140 -82 -249q-81 -107 -221 -164l281 -521q12 -22 1 -40q-12 -19 -36 -19h-215q-23 0 -33 18l-272 543h-227v-522q0 -15 -12 -27t-27 -12h-189q-16 0 -27 11q-12 12 -12 28zM455 780h333
q83 0 143 62t60 147q0 81 -60 140q-61 59 -143 59h-333v-408zM692 -186q68 0 119 -53t51 -167q0 -207 -184 -370q-26 -20 -47 2l-31 29q-21 24 6 47q19 14 46 39q25 23 60 86q33 59 33 124l-4 -2q-3 0 -9 -2q-3 -1 -13 -3q-3 -1 -9 -1.5t-9 -0.5q-6 -1 -19 -1q-56 0 -96 40
q-41 41 -41 95q0 58 42 98q41 40 105 40z" />
    <glyph glyph-name="rcommaaccent" unicode="&#x157;" horiz-adv-x="698" 
d="M123 39v741q0 17 11 28t28 11h78q26 0 36 -26l29 -80q88 127 232 127q76 0 127 -23q48 -22 30 -59l-76 -133q-19 -34 -47 -19q-37 12 -59 12q-56 0 -93 -27q-36 -26 -52 -56v-496q0 -39 -48 -39h-157q-15 0 -27 12t-12 27zM231 -186q68 0 119 -53t51 -167
q0 -207 -184 -370q-26 -20 -47 2l-31 29q-21 24 6 47q19 14 46 39q25 23 60 86q34 61 34 124l-4 -2q-4 0 -10 -2q-3 -1 -13 -3q-3 -1 -8.5 -1.5t-8.5 -0.5q-6 -1 -20 -1q-56 0 -96 40q-41 41 -41 95q0 58 42 98q41 40 105 40z" />
    <glyph glyph-name="Rcaron" unicode="&#x158;" horiz-adv-x="1363" 
d="M186 39v1356q0 15 12 27t27 12h586q185 0 315 -129q131 -129 131 -312q0 -140 -82 -249q-81 -107 -221 -164l281 -521q12 -22 1 -40q-12 -19 -36 -19h-215q-23 0 -33 18l-272 543h-227v-522q0 -15 -12 -27t-27 -12h-189q-16 0 -27 11q-12 12 -12 28zM455 780h333
q83 0 143 62t60 147q0 81 -60 140q-61 59 -143 59h-333v-408zM641 1565l-266 207q-27 18 -13 38l54 76q18 23 47 6l199 -125l200 125q29 17 47 -6l54 -76q14 -20 -13 -38l-266 -207q-21 -16 -43 0z" />
    <glyph glyph-name="rcaron" unicode="&#x159;" horiz-adv-x="698" 
d="M123 39v741q0 17 11 28t28 11h78q26 0 36 -26l29 -80q88 127 232 127q76 0 127 -23q48 -22 30 -59l-76 -133q-19 -34 -47 -19q-37 12 -59 12q-56 0 -93 -27q-36 -26 -52 -56v-496q0 -39 -48 -39h-157q-15 0 -27 12t-12 27zM336 1073l-266 207q-28 18 -13 39l54 76
q18 23 47 6l198 -125l201 125q29 17 47 -6l53 -76q15 -21 -12 -39l-266 -207q-21 -16 -43 0z" />
    <glyph glyph-name="Sacute" unicode="&#x15a;" horiz-adv-x="1110" 
d="M113 139q-29 29 -11 62l74 127q11 20 35 23q23 3 35 -9l10 -6q23 -16 24 -17q4 -2 15 -9t18 -11t20.5 -12t20.5 -12q9 -5 47 -22q28 -13 52 -20q31 -10 51 -13q30 -5 51 -5q81 0 133 46q53 47 53 112q0 75 -63 134q-63 58 -197 111q-169 68 -278 175q-107 105 -107 268
q0 156 118 274q119 119 343 119q226 0 410 -137q13 -7 18 -31q4 -22 -6 -37l-78 -116q-33 -49 -72 -25q-181 113 -284 113q-81 0 -131 -45q-49 -45 -49 -99q0 -73 57 -125q58 -54 184 -104q86 -33 153 -71q63 -35 133 -90q66 -52 105 -131q37 -75 37 -171q0 -166 -131 -286
q-129 -119 -340 -119q-119 0 -222 34q-105 35 -151 65q-41 28 -77 60zM416 1573q-36 -16 -51 14l-37 72q-12 24 12 39l336 201q36 22 53 -7l57 -106q22 -39 -12 -55z" />
    <glyph glyph-name="sacute" unicode="&#x15b;" horiz-adv-x="745" 
d="M90 55q-24 21 -12 43l55 111q12 32 47 14q91 -49 187 -49q69 0 69 51q0 28 -28 49q-27 20 -109 54q-231 90 -231 270q0 103 76 172q78 70 225 70q154 0 252 -64q34 -22 18 -55l-51 -105q-14 -26 -49 -14q-90 43 -170 43q-70 0 -70 -47q0 -25 19 -37q25 -15 79 -37
q11 -4 15 -6q136 -52 206 -116t70 -173q0 -106 -88 -178q-87 -71 -238 -71q-173 0 -272 75zM236 1081q-39 -15 -54 13l-35 73q-12 22 13 39l334 199q37 24 53 -6l59 -105q18 -40 -12 -55z" />
    <glyph glyph-name="Scircumflex" unicode="&#x15c;" horiz-adv-x="1110" 
d="M113 139q-29 29 -11 62l74 127q11 20 35 23q23 3 35 -9l10 -6q23 -16 24 -17q4 -2 15 -9t18 -11t20.5 -12t20.5 -12q9 -5 47 -22q28 -13 52 -20q31 -10 51 -13q30 -5 51 -5q81 0 133 46q53 47 53 112q0 75 -63 134q-63 58 -197 111q-169 68 -278 175q-107 105 -107 268
q0 156 118 274q119 119 343 119q226 0 410 -137q13 -7 18 -31q4 -22 -6 -37l-78 -116q-33 -49 -72 -25q-181 113 -284 113q-81 0 -131 -45q-49 -45 -49 -99q0 -73 57 -125q58 -54 184 -104q86 -33 153 -71q63 -35 133 -90q66 -52 105 -131q37 -75 37 -171q0 -166 -131 -286
q-129 -119 -340 -119q-119 0 -222 34q-105 35 -151 65q-41 28 -77 60zM354 1569q-29 -17 -47 6l-53 76q-15 21 12 39l266 206q21 16 43 0l267 -206q27 -18 12 -39l-53 -76q-18 -23 -47 -6l-199 125z" />
    <glyph glyph-name="scircumflex" unicode="&#x15d;" horiz-adv-x="745" 
d="M90 55q-24 21 -12 43l55 111q12 32 47 14q91 -49 187 -49q69 0 69 51q0 28 -28 49q-27 20 -109 54q-231 90 -231 270q0 103 76 172q78 70 225 70q154 0 252 -64q34 -22 18 -55l-51 -105q-14 -26 -49 -14q-90 43 -170 43q-70 0 -70 -47q0 -25 19 -37q25 -15 79 -37
q11 -4 15 -6q136 -52 206 -116t70 -173q0 -106 -88 -178q-87 -71 -238 -71q-173 0 -272 75zM123 1083l-53 76q-15 21 12 39l266 207q21 16 43 0l266 -207q28 -18 13 -39l-54 -76q-18 -23 -47 -6l-198 125l-201 -125q-29 -17 -47 6z" />
    <glyph glyph-name="Scedilla" unicode="&#x15e;" horiz-adv-x="1112" 
d="M113 139q-29 29 -11 62l74 127q11 20 35 23q23 3 35 -9l10 -6q23 -16 24 -17q4 -2 15 -9t18 -11t20.5 -12t20.5 -12q9 -5 47 -22q28 -13 52 -20q31 -10 51 -13q30 -5 51 -5q81 0 133 46q53 47 53 112q0 75 -63 134q-63 58 -197 111q-169 68 -278 175q-107 105 -107 268
q0 156 118 274q119 119 343 119q226 0 410 -137q13 -7 18 -31q4 -22 -6 -37l-78 -116q-33 -49 -72 -25q-181 113 -284 113q-81 0 -131 -45q-49 -45 -49 -99q0 -73 57 -125q58 -54 184 -104q86 -33 153 -71q63 -35 133 -90q66 -52 105 -131q37 -75 37 -171q0 -164 -128 -284
q-127 -119 -333 -121v-86q95 -12 147 -69q52 -56 52 -142q0 -90 -63 -153q-62 -62 -154 -62q-95 0 -156 71q-27 29 7 58l40 34q22 22 43 -2q23 -24 62 -24q30 0 51 22q21 23 21 54q0 88 -150 100q-35 5 -35 37v172q-209 33 -325 149z" />
    <glyph glyph-name="scedilla" unicode="&#x15f;" horiz-adv-x="749" 
d="M92 55q-24 21 -12 43l55 111q12 32 47 14q91 -49 187 -49q69 0 69 51q0 28 -28 49q-27 20 -109 54q-231 90 -231 270q0 103 76 172q78 70 225 70q156 0 252 -64q34 -22 18 -55l-51 -105q-14 -26 -49 -14q-90 43 -170 43q-70 0 -70 -47q0 -25 20 -37q27 -17 78 -37
q11 -4 15 -6q138 -53 207 -116t69 -173q0 -103 -81 -172t-220 -75v-88q95 -12 147 -69q52 -56 52 -142q0 -89 -64 -153q-62 -62 -153 -62q-95 0 -156 71q-28 29 6 58l41 34q22 22 43 -2q23 -24 62 -24q30 0 51 22q20 21 20 54q0 88 -149 100q-35 5 -35 37v172
q-101 18 -162 65z" />
    <glyph glyph-name="Scaron" unicode="&#x160;" horiz-adv-x="1110" 
d="M113 139q-29 29 -11 62l74 127q11 20 35 23q23 3 35 -9l10 -6q23 -16 24 -17q4 -2 15 -9t18 -11t20.5 -12t20.5 -12q9 -5 47 -22q28 -13 52 -20q31 -10 51 -13q30 -5 51 -5q81 0 133 46q53 47 53 112q0 75 -63 134q-63 58 -197 111q-169 68 -278 175q-107 105 -107 268
q0 156 118 274q119 119 343 119q226 0 410 -137q13 -7 18 -31q4 -22 -6 -37l-78 -116q-33 -49 -72 -25q-181 113 -284 113q-81 0 -131 -45q-49 -45 -49 -99q0 -73 57 -125q58 -54 184 -104q86 -33 153 -71q63 -35 133 -90q66 -52 105 -131q37 -75 37 -171q0 -166 -131 -286
q-129 -119 -340 -119q-119 0 -222 34q-105 35 -151 65q-41 28 -77 60zM535 1565l-267 207q-27 18 -12 38l53 76q18 23 47 6l199 -125l201 125q29 17 47 -6l53 -76q15 -20 -12 -38l-266 -207q-21 -16 -43 0z" />
    <glyph glyph-name="scaron" unicode="&#x161;" horiz-adv-x="745" 
d="M90 55q-24 21 -12 43l55 111q12 32 47 14q91 -49 187 -49q69 0 69 51q0 28 -28 49q-27 20 -109 54q-231 90 -231 270q0 103 76 172q78 70 225 70q154 0 252 -64q34 -22 18 -55l-51 -105q-14 -26 -49 -14q-90 43 -170 43q-70 0 -70 -47q0 -25 19 -37q25 -15 79 -37
q11 -4 15 -6q136 -52 206 -116t70 -173q0 -106 -88 -178q-87 -71 -238 -71q-173 0 -272 75zM358 1073l-266 207q-27 18 -12 39l53 76q18 23 47 6l199 -125l201 125q29 17 47 -6l53 -76q15 -21 -12 -39l-267 -207q-21 -16 -43 0z" />
    <glyph glyph-name="Tcommaaccent" unicode="&#x162;" horiz-adv-x="1026" 
d="M379 39v1149h-313q-17 0 -28 11t-11 28v168q0 16 11 27q12 12 28 12h895q15 0 27 -12q11 -11 11 -27v-168q0 -17 -11 -28t-27 -11h-314v-1149q0 -15 -12 -27t-27 -12h-190q-16 0 -28 12q-11 11 -11 27zM502 -186q68 0 119 -53t51 -167q0 -206 -185 -370q-26 -20 -47 2
l-30 29q-21 24 6 47q19 14 46 39q23 21 59 86q34 61 34 124l-4 -2q-3 0 -9 -2q-2 -1 -14 -3q-3 -1 -8.5 -1.5t-8.5 -0.5q-6 -1 -19 -1q-57 0 -97 40q-41 41 -41 95q0 58 42 98q41 40 106 40z" />
    <glyph glyph-name="tcommaaccent" unicode="&#x163;" horiz-adv-x="708" 
d="M166 244v360h-70q-14 0 -25 11q-12 12 -12 28v137q0 15 11 28q10 11 26 11h70v228q0 15 11 26q12 12 28 12l168 2q14 0 25 -11q12 -12 12 -27v-230h180q39 0 39 -39v-137q0 -16 -12 -28q-11 -11 -27 -11h-180v-328q0 -65 63 -65q40 0 100 22q35 12 45 -22l41 -129
q15 -34 -22 -49q-9 -5 -44 -17q-37 -12 -95 -24q-60 -12 -105 -12q-227 0 -227 264zM395 -186q68 0 119 -53t51 -167q0 -207 -184 -370q-26 -20 -47 2l-31 29q-21 24 6 47q19 14 46 39q25 23 60 86q34 61 34 124l-5 -2q-3 0 -9 -2q-3 -1 -13 -3q-3 -1 -9 -1.5t-9 -0.5
q-6 -1 -19 -1q-56 0 -96 40q-41 41 -41 95q0 58 42 98q41 40 105 40z" />
    <glyph glyph-name="Tcaron" unicode="&#x164;" horiz-adv-x="1026" 
d="M379 39v1149h-313q-17 0 -28 11t-11 28v168q0 16 11 27q12 12 28 12h895q15 0 27 -12q11 -11 11 -27v-168q0 -17 -11 -28t-27 -11h-314v-1149q0 -15 -12 -27t-27 -12h-190q-16 0 -28 12q-11 11 -11 27zM489 1565l-266 207q-27 18 -12 38l53 76q18 23 47 6l199 -125
l201 125q29 17 47 -6l53 -76q15 -20 -12 -38l-267 -207q-21 -16 -43 0z" />
    <glyph glyph-name="tcaron" unicode="&#x165;" horiz-adv-x="706" 
d="M166 244v360h-70q-14 0 -25 11q-12 12 -12 28v137q0 15 11 28q10 11 26 11h70v228q0 15 11 26q12 12 28 12l168 2q14 0 25 -11q12 -12 12 -27v-230h180q39 0 39 -39v-137q0 -16 -12 -28q-11 -11 -27 -11h-180v-328q0 -65 63 -65q40 0 100 22q35 12 45 -22l41 -129
q15 -34 -22 -49q-9 -5 -44 -17q-37 -12 -95 -24q-60 -12 -105 -12q-227 0 -227 264zM815 866l-29 29q-23 23 5 47q19 14 46 39q23 21 59 86q34 61 34 125l-8 -2l-25 -5q-15 -3 -29 -3q-56 0 -97 39q-40 39 -40 96t42 97q41 40 104 40q67 0 118 -52q52 -54 52 -167
q0 -207 -185 -371q-27 -18 -47 2z" />
    <glyph glyph-name="Tbar" unicode="&#x166;" horiz-adv-x="1026" 
d="M379 39v557h-193q-14 0 -25 11t-11 28v27q0 16 11 27t25 11h193v488h-313q-17 0 -28 11t-11 28v168q0 16 11 27q12 12 28 12h895q15 0 27 -12q11 -11 11 -27v-168q0 -17 -11 -28t-27 -11h-314v-488h201q17 0 28 -11t11 -27v-29q0 -17 -11 -27t-28 -10h-201v-557
q0 -15 -12 -27t-27 -12h-190q-16 0 -28 12q-11 11 -11 27z" />
    <glyph glyph-name="tbar" unicode="&#x167;" horiz-adv-x="706" 
d="M166 244v104h-64q-14 0 -25 11t-11 28v27q0 16 11 27q12 12 25 12h64v151h-70q-14 0 -25 11q-12 12 -12 28v137q0 15 11 28q10 11 26 11h70v228q0 15 11 26q12 12 28 12l168 2q14 0 25 -11q12 -12 12 -27v-230h180q39 0 39 -39v-137q0 -16 -12 -28q-11 -11 -27 -11h-180
v-151h165q16 0 28 -12q11 -11 11 -27v-29q0 -17 -11 -27t-28 -10h-165v-69q0 -66 63 -66q46 0 100 20q35 12 45 -22l41 -129q10 -37 -22 -49q-9 -5 -44 -17q-37 -12 -95 -24q-60 -12 -105 -12q-227 0 -227 264z" />
    <glyph glyph-name="Utilde" unicode="&#x168;" horiz-adv-x="1476" 
d="M168 543v852q0 14 12 26q13 13 27 13h194q16 0 28 -12q11 -11 11 -27v-838q0 -133 83 -222t214 -89t215 89t84 220v840q0 15 12 27t27 12h195q14 0 27 -13q12 -12 12 -26v-852q0 -237 -165 -400q-164 -163 -407 -163q-240 0 -404 163q-165 163 -165 400zM494 1616l-60 43
q-24 18 -12 47q22 40 25 45q8 13 39 52q32 40 68 57q38 18 81 18q59 0 121 -56q63 -57 98 -57q25 0 43 20q20 22 28 39q8 18 26 30t36 -5l57 -41q26 -21 3 -63q-62 -107 -123 -137q-36 -19 -76 -19q-56 0 -126 58q-69 57 -97 57q-30 0 -52 -31q-4 -6 -17 -25t-19 -27
q-17 -21 -43 -5z" />
    <glyph glyph-name="utilde" unicode="&#x169;" horiz-adv-x="1030" 
d="M109 383v397q0 17 11 28t27 11h168q17 0 28 -11t11 -28v-403q0 -83 40 -129q41 -47 110 -47q60 0 107 47t57 106v426q0 24 10 31q11 8 35 8h155q17 0 28 -11t11 -28v-741q0 -16 -11 -27q-12 -12 -28 -12h-75q-27 0 -39 31l-25 67q-6 -6 -15 -14l-21 -18q-23 -18 -24 -19
q-25 -17 -31 -20q-27 -15 -35 -19q-20 -10 -43 -15q-17 -4 -49 -9q-24 -4 -56 -4q-178 0 -262 114t-84 289zM272 1151l-59 43q-24 18 -12 47q22 40 25 45q8 13 39 52q32 40 68 57q37 18 81 18q59 0 121 -56q63 -57 98 -57q25 0 43 20t27 39t27 31q17 11 36 -6l57 -41
q26 -20 2 -63q-62 -107 -123 -137q-36 -19 -75 -19q-56 0 -126 58q-69 57 -98 57t-51 -31q-31 -45 -37 -52q-17 -21 -43 -5z" />
    <glyph glyph-name="Umacron" unicode="&#x16a;" horiz-adv-x="1476" 
d="M168 543v852q0 14 12 26q13 13 27 13h194q16 0 28 -12q11 -11 11 -27v-838q0 -133 83 -222t214 -89t215 89t84 220v840q0 15 12 27t27 12h195q14 0 27 -13q12 -12 12 -26v-852q0 -237 -165 -400q-164 -163 -407 -163q-240 0 -404 163q-165 163 -165 400zM477 1655
q-16 0 -27 10q-12 11 -12 27v69q0 39 39 39h524q39 0 39 -39v-69q0 -17 -11 -27t-28 -10h-524z" />
    <glyph glyph-name="umacron" unicode="&#x16b;" horiz-adv-x="1030" 
d="M109 383v397q0 17 11 28t27 11h168q17 0 28 -11t11 -28v-403q0 -83 40 -129q41 -47 110 -47q60 0 107 47t57 106v426q0 24 10 31q11 8 35 8h155q17 0 28 -11t11 -28v-741q0 -16 -11 -27q-12 -12 -28 -12h-75q-27 0 -39 31l-25 67q-6 -6 -15 -14l-21 -18q-23 -18 -24 -19
q-25 -17 -31 -20q-27 -15 -35 -19q-20 -10 -43 -15q-17 -4 -49 -9q-24 -4 -56 -4q-178 0 -262 114t-84 289zM256 1167q-15 0 -28 11q-11 10 -11 26v70q0 39 39 39h524q39 0 39 -39v-70q0 -16 -11 -26q-13 -11 -28 -11h-524z" />
    <glyph glyph-name="Ubreve" unicode="&#x16c;" horiz-adv-x="1476" 
d="M168 543v852q0 14 12 26q13 13 27 13h194q16 0 28 -12q11 -11 11 -27v-838q0 -133 83 -222t214 -89t215 89t84 220v840q0 15 12 27t27 12h195q14 0 27 -13q12 -12 12 -26v-852q0 -237 -165 -400q-164 -163 -407 -163q-240 0 -404 163q-165 163 -165 400zM741 1569
q-112 0 -190 68q-80 69 -96 173q-5 19 7 31t30 12h75q28 0 35 -28q18 -50 53 -78q39 -31 86 -31q43 0 81 32q39 32 55 77q6 28 34 28h80q18 0 29 -12q10 -11 8 -31q-16 -104 -97 -173q-80 -68 -190 -68z" />
    <glyph glyph-name="ubreve" unicode="&#x16d;" horiz-adv-x="1030" 
d="M109 383v397q0 17 11 28t27 11h168q17 0 28 -11t11 -28v-403q0 -83 40 -129q41 -47 110 -47q60 0 107 47t57 106v426q0 24 10 31q11 8 35 8h155q17 0 28 -11t11 -28v-741q0 -16 -11 -27q-12 -12 -28 -12h-75q-27 0 -39 31l-25 67q-6 -6 -15 -14l-21 -18q-23 -18 -24 -19
q-25 -17 -31 -20q-27 -15 -35 -19q-20 -10 -43 -15q-17 -4 -49 -9q-24 -4 -56 -4q-178 0 -262 114t-84 289zM520 1081q-110 0 -190 69q-81 70 -97 173q-4 17 7 32q10 13 30 13h76q27 0 35 -29q16 -49 53 -78q38 -30 86 -30q44 0 82 32q36 31 53 76q8 29 35 29h80
q19 0 29 -13q10 -12 8 -32q-16 -104 -97 -173t-190 -69z" />
    <glyph glyph-name="Uring" unicode="&#x16e;" horiz-adv-x="1476" 
d="M168 543v852q0 14 12 26q13 13 27 13h194q16 0 28 -12q11 -11 11 -27v-838q0 -133 83 -222t214 -89t215 89t84 220v840q0 15 12 27t27 12h195q14 0 27 -13q12 -12 12 -26v-852q0 -237 -165 -400q-164 -163 -407 -163q-240 0 -404 163q-165 163 -165 400zM741 1544
q-95 0 -163 68t-68 164q0 95 68 163t163 68q96 0 164 -68t68 -163q0 -96 -68 -164t-164 -68zM741 1673q38 0 69 31q30 30 30 72q0 37 -29 68q-28 30 -70 30q-41 0 -71 -30q-31 -31 -31 -68q0 -38 31 -71q30 -32 71 -32z" />
    <glyph glyph-name="uring" unicode="&#x16f;" horiz-adv-x="1030" 
d="M109 383v397q0 17 11 28t27 11h168q17 0 28 -11t11 -28v-403q0 -83 40 -129q41 -47 110 -47q60 0 107 47t57 106v426q0 24 10 31q11 8 35 8h155q17 0 28 -11t11 -28v-741q0 -16 -11 -27q-12 -12 -28 -12h-75q-27 0 -39 31l-25 67q-6 -6 -15 -14l-21 -18q-23 -18 -24 -19
q-25 -17 -31 -20q-27 -15 -35 -19q-20 -10 -43 -15q-17 -4 -49 -9q-24 -4 -56 -4q-178 0 -262 114t-84 289zM516 991q-96 0 -164 68q-67 67 -67 164q0 96 67 163q68 68 164 68t164 -68t68 -163q0 -96 -68 -164t-164 -68zM516 1120q38 0 69 31q29 29 29 72q0 39 -28 68
q-28 30 -70 30t-72 -30t-30 -68q0 -39 30 -71t72 -32z" />
    <glyph glyph-name="Uhungarumlaut" unicode="&#x170;" horiz-adv-x="1476" 
d="M168 543v852q0 14 12 26q13 13 27 13h194q16 0 28 -12q11 -11 11 -27v-838q0 -133 83 -222t214 -89t215 89t84 220v840q0 15 12 27t27 12h195q14 0 27 -13q12 -12 12 -26v-852q0 -237 -165 -400q-164 -163 -407 -163q-240 0 -404 163q-165 163 -165 400zM885 1573
q-23 0 -33 11q-10 12 -6 28l76 289q12 38 39 38h155q29 0 39 -16t-2 -35l-160 -284q-15 -31 -37 -31h-71zM545 1573q-23 0 -33 11q-10 12 -6 28l76 289q12 38 39 38h155q28 0 39 -15q10 -15 -2 -36l-160 -284q-15 -31 -37 -31h-71z" />
    <glyph glyph-name="uhungarumlaut" unicode="&#x171;" horiz-adv-x="1030" 
d="M109 383v397q0 17 11 28t27 11h168q17 0 28 -11t11 -28v-403q0 -83 40 -129q41 -47 110 -47q60 0 107 47t57 106v426q0 24 10 31q11 8 35 8h155q17 0 28 -11t11 -28v-741q0 -16 -11 -27q-12 -12 -28 -12h-75q-27 0 -39 31l-25 67q-6 -6 -15 -14l-21 -18q-23 -18 -24 -19
q-25 -17 -31 -20q-27 -15 -35 -19q-20 -10 -43 -15q-17 -4 -49 -9q-24 -4 -56 -4q-178 0 -262 114t-84 289zM666 1067q-23 0 -33 11q-10 12 -6 28l75 289q12 39 39 39h156q28 0 39 -17q10 -16 -2 -35l-160 -284q-17 -31 -37 -31h-71zM326 1067q-23 0 -33 11q-10 12 -6 28
l75 289q12 39 39 39h156q28 0 39 -16q10 -15 -2 -36l-160 -284q-17 -31 -37 -31h-71z" />
    <glyph glyph-name="Uogonek" unicode="&#x172;" horiz-adv-x="1484" 
d="M172 543v852q0 14 12 26q13 13 27 13h195q15 0 27 -12q11 -11 11 -27v-838q0 -133 83 -222t214 -89t215 89t84 220v840q0 15 12 27t27 12h195q15 0 28 -13q11 -11 11 -26v-852q0 -223 -150 -384t-375 -177q-75 -88 -75 -179q0 -55 36 -93t99 -38q16 0 94 19q17 5 29 -6
t12 -29v-62q0 -26 -29 -38q-82 -21 -135 -21q-113 0 -186 57q-74 57 -74 168q0 125 98 226q-211 28 -348 186t-137 371z" />
    <glyph glyph-name="uogonek" unicode="&#x173;" horiz-adv-x="1030" 
d="M109 383v397q0 17 11 28t27 11h168q17 0 28 -11t11 -28v-391q0 -83 40 -129q41 -47 110 -47q60 0 107 47q46 46 57 107v413q0 24 10 31q11 8 35 8h155q17 0 28 -11t11 -28v-741q0 -16 -11 -27q-12 -12 -28 -12h-12q-92 -92 -92 -197q0 -55 36 -93t99 -38q16 0 94 19
q17 5 29 -6t12 -29v-62q0 -26 -28 -38q-83 -21 -136 -21q-112 0 -186 57t-74 168q0 74 37 139q38 66 65 92q26 25 44 36l-27 71q-6 -6 -15 -14l-21 -18q-23 -18 -24 -19q-25 -17 -31 -20q-27 -15 -35 -19q-20 -10 -43 -15q-17 -4 -49 -9q-24 -4 -56 -4q-178 0 -262 114
t-84 289z" />
    <glyph glyph-name="Wcircumflex" unicode="&#x174;" horiz-adv-x="1841" 
d="M446 8l-387 1376q-6 21 4 35q11 15 33 15h189q29 0 37 -29l213 -817h8l325 844q7 22 35 22h37q28 0 35 -22l328 -844h8l209 817q8 29 36 29h189q23 0 33 -15q10 -14 4 -35l-387 -1376q-6 -28 -37 -28h-33q-28 0 -35 22l-366 928h-11l-362 -928q-10 -22 -35 -22h-33
q-30 0 -37 28zM721 1569q-29 -17 -47 6l-53 76q-15 21 12 39l266 206q21 16 43 0l266 -206q28 -18 13 -39l-54 -76q-18 -23 -47 -6l-198 125z" />
    <glyph glyph-name="wcircumflex" unicode="&#x175;" horiz-adv-x="1261" 
d="M293 2l-256 770q-8 22 2 34q10 13 33 13h147q31 0 37 -24l123 -367h2l209 393q8 19 33 19h16q22 0 33 -19l207 -393h2l123 367q8 24 47 24h133q22 0 34 -13q11 -12 3 -34l-256 -770q-7 -22 -37 -22h-8q-22 0 -33 18l-258 477h-2l-256 -477q-11 -18 -33 -18h-10
q-28 0 -35 22zM381 1083l-53 76q-15 21 12 39l266 207q21 16 43 0l266 -207q28 -18 13 -39l-54 -76q-18 -23 -47 -6l-198 125l-201 -125q-29 -17 -47 6z" />
    <glyph glyph-name="Ycircumflex" unicode="&#x176;" horiz-adv-x="1193" 
d="M461 39v651l-467 684q-12 21 -2 40q11 20 35 20h209q16 0 32 -19l328 -471l328 471q16 19 32 19h211q24 0 35 -20q10 -19 -2 -40l-473 -682v-653q0 -16 -11 -27q-12 -12 -28 -12h-188q-17 0 -28 11t-11 28zM397 1569q-29 -17 -47 6l-53 76q-15 21 12 39l266 206
q21 16 43 0l267 -206q27 -18 12 -39l-53 -76q-18 -23 -47 -6l-199 125z" />
    <glyph glyph-name="ycircumflex" unicode="&#x177;" horiz-adv-x="948" 
d="M350 57l-334 709q-11 21 1 37t34 16h185q22 0 34 -22l207 -463h2l205 463q12 22 49 22h164q25 0 35 -16t0 -37l-627 -1356q-12 -24 -35 -24h-176q-23 0 -34 17t-1 38zM229 1083l-53 76q-15 21 12 39l267 207q21 16 43 0l266 -207q27 -18 12 -39l-53 -76q-18 -23 -47 -6
l-199 125l-201 -125q-29 -17 -47 6z" />
    <glyph glyph-name="Ydieresis" unicode="&#x178;" horiz-adv-x="1193" 
d="M461 39v651l-467 684q-12 21 -2 40q11 20 35 20h209q16 0 32 -19l328 -471l328 471q16 19 32 19h211q24 0 35 -20q10 -19 -2 -40l-473 -682v-653q0 -16 -11 -27q-12 -12 -28 -12h-188q-17 0 -28 11t-11 28zM848 1587q-54 0 -91 39q-38 40 -38 92q0 53 38 91t91 38
q52 0 92 -38q39 -37 39 -91q0 -53 -39 -92t-92 -39zM342 1587q-54 0 -91 39q-38 40 -38 92q0 53 38 91t91 38q52 0 92 -38q39 -37 39 -91q0 -53 -39 -92t-92 -39z" />
    <glyph glyph-name="Zacute" unicode="&#x179;" horiz-adv-x="1101" 
d="M51 39v37l611 1102v8h-512q-16 0 -27 11q-12 12 -12 28v170q0 14 12 26q13 13 27 13h856q13 0 26 -13q12 -12 12 -26v-27l-602 -1116v-4h523q16 0 27 -11q12 -12 12 -28v-170q0 -16 -12 -28q-11 -11 -27 -11h-875q-16 0 -28 12q-11 11 -11 27zM438 1573q-36 -16 -51 14
l-37 72q-12 24 12 39l336 200q38 22 54 -6l57 -106q22 -39 -12 -55z" />
    <glyph glyph-name="zacute" unicode="&#x17a;" horiz-adv-x="749" 
d="M61 39v20l291 537v4h-233q-15 0 -26 11t-11 28v141q0 17 10 28t27 11h540q24 0 35 -17q12 -18 0 -38l-297 -541v-6h221q39 0 39 -39v-139q0 -17 -11 -28t-28 -11h-518q-14 0 -26 12q-13 13 -13 27zM252 1081q-38 -15 -53 13l-35 73q-12 23 12 39l334 199q37 24 53 -6
l60 -105q18 -40 -13 -55z" />
    <glyph glyph-name="Zdotaccent" unicode="&#x17b;" horiz-adv-x="1101" 
d="M51 39v37l611 1102v8h-512q-16 0 -27 11q-12 12 -12 28v170q0 14 12 26q13 13 27 13h856q13 0 26 -13q12 -12 12 -26v-27l-602 -1116v-4h523q16 0 27 -11q12 -12 12 -28v-170q0 -16 -12 -28q-11 -11 -27 -11h-875q-16 0 -28 12q-11 11 -11 27zM575 1599q-61 0 -104 43
t-43 105q0 61 43 104t104 43q62 0 105 -43t43 -104q0 -62 -43 -105t-105 -43z" />
    <glyph glyph-name="zdotaccent" unicode="&#x17c;" horiz-adv-x="749" 
d="M61 39v20l291 537v4h-233q-15 0 -26 11t-11 28v141q0 17 10 28t27 11h540q24 0 35 -17q12 -18 0 -38l-297 -541v-6h221q39 0 39 -39v-139q0 -17 -11 -28t-28 -11h-518q-14 0 -26 12q-13 13 -13 27zM399 1098q-61 0 -104 43t-43 104q0 62 43 105t104 43q62 0 105 -43
t43 -105q0 -61 -43 -104t-105 -43z" />
    <glyph glyph-name="Zcaron" unicode="&#x17d;" horiz-adv-x="1101" 
d="M51 39v37l611 1102v8h-512q-16 0 -27 11q-12 12 -12 28v170q0 14 12 26q13 13 27 13h856q13 0 26 -13q12 -12 12 -26v-27l-602 -1116v-4h523q16 0 27 -11q12 -12 12 -28v-170q0 -16 -12 -28q-11 -11 -27 -11h-875q-16 0 -28 12q-11 11 -11 27zM551 1565l-266 207
q-27 18 -13 38l54 76q18 23 47 6l198 -125l201 125q29 17 47 -6l53 -76q15 -20 -12 -38l-266 -207q-21 -16 -43 0z" />
    <glyph glyph-name="zcaron" unicode="&#x17e;" horiz-adv-x="749" 
d="M61 39v20l291 537v4h-233q-15 0 -26 11t-11 28v141q0 17 10 28t27 11h540q24 0 35 -17q12 -18 0 -38l-297 -541v-6h221q39 0 39 -39v-139q0 -17 -11 -28t-28 -11h-518q-14 0 -26 12q-13 13 -13 27zM369 1073l-267 207q-27 18 -12 39l53 76q18 23 47 6l199 -125l201 125
q29 17 47 -6l53 -76q15 -21 -12 -39l-266 -207q-21 -16 -43 0z" />
    <glyph glyph-name="florin" unicode="&#x192;" horiz-adv-x="759" 
d="M227 -221v827h-153q-17 0 -28 11t-11 28v135q0 39 39 39h153v223q0 196 110 304q109 108 286 108q130 0 227 -80q25 -25 8 -49l-76 -127q-21 -28 -49 -10q-11 8 -46 21q-37 14 -62 14q-61 0 -101 -46q-41 -47 -41 -137v-221h205q39 0 39 -39v-135q0 -17 -11 -28t-28 -11
h-205v-829q0 -196 -110 -303q-112 -109 -287 -109q-130 0 -227 80q-23 23 -9 49l78 127q18 29 49 10q7 -7 45 -21q35 -13 62 -13q59 0 101 46q42 47 42 136z" />
    <glyph glyph-name="Aringacute" unicode="&#x1fa;" horiz-adv-x="1357" 
d="M492 1815l-37 71q-12 24 12 39l336 201q37 22 53 -6l57 -107q22 -39 -12 -55l-358 -158q-36 -16 -51 15zM35 0q-22 0 -34 16t-1 37l600 1299q-64 23 -105 83q-40 58 -40 132q0 97 67 164t164 67t164 -67q68 -68 68 -164q0 -73 -44 -134q-45 -62 -110 -85l594 -1295
q11 -21 -1 -37t-34 -16h-178q-39 0 -60 41l-100 221h-612l-101 -221q-17 -41 -59 -41h-178zM686 1464q38 0 69 31q29 29 29 72q0 39 -29 68q-30 30 -69 30q-42 0 -72 -30t-30 -68q0 -40 31 -71q32 -32 71 -32zM473 489h412l-205 451h-6z" />
    <glyph glyph-name="aringacute" unicode="&#x1fb;" horiz-adv-x="872" 
d="M63 260q0 113 89 185q90 73 239 73q32 0 74 -5q34 -4 55 -11l21 -6q1 78 -24 109q-26 32 -83 32q-125 0 -229 -31q-40 -12 -47 37l-19 107q-8 39 29 51q13 5 49 12q44 9 104 17q73 10 125 10q183 0 249 -87q67 -88 67 -270v-444q0 -15 -12 -27t-27 -12h-74q-23 0 -35 29
l-24 55q-113 -104 -250 -104q-126 0 -201 75q-76 76 -76 205zM289 260q0 -48 29 -77t77 -29q46 0 87 28q44 30 55 51v113q-58 25 -115 25t-96 -31q-37 -30 -37 -80zM449 874q-96 0 -164 68t-68 164t68 164q67 67 164 67q96 0 163 -67q68 -68 68 -164t-68 -164t-163 -68z
M449 1004q38 0 68 30t30 72t-30 70q-29 28 -68 28q-43 0 -72 -29q-31 -31 -31 -69q0 -42 32 -72t71 -30zM303 1356q-38 -15 -53 12l-35 74q-12 22 12 39l334 198q37 24 53 -6l60 -104q18 -41 -12 -56z" />
    <glyph glyph-name="AEacute" unicode="&#x1fc;" horiz-adv-x="1843" 
d="M2 0q-23 0 -30 16t5 37l822 1317q30 50 51 57q18 7 39 7h809q15 0 27 -12t12 -27v-168q0 -16 -12 -28q-11 -11 -27 -11h-613v-336h512q16 0 28 -12q11 -11 11 -27v-170q0 -17 -11 -28t-28 -11h-512v-358h613q15 0 27 -12t12 -27v-168q0 -16 -12 -28q-11 -11 -27 -11h-836
q-16 0 -27 11q-12 12 -12 28v223h-430l-145 -231q-22 -31 -51 -31h-195zM537 489h286v463zM1128 1575q-36 -16 -51 14l-37 72q-12 24 13 39l336 201q36 22 53 -7l57 -106q22 -39 -12 -55z" />
    <glyph glyph-name="aeacute" unicode="&#x1fd;" horiz-adv-x="1372" 
d="M61 260q0 113 86 185q87 73 234 73q41 0 76 -4q47 -5 59 -8l21 -4q-4 82 -26 116q-21 33 -87 33q-98 0 -223 -33q-39 -5 -47 33l-19 111q-5 33 33 41q149 37 278 37q182 0 248 -84q106 84 246 84q160 0 271 -108q112 -109 112 -273q0 -90 -43 -90h-522q7 -68 61 -125
q53 -56 133 -56q82 0 162 54q35 23 53 0l82 -97q24 -33 -2 -53q-121 -112 -305 -112q-196 0 -307 133q-37 -47 -114 -90q-76 -43 -177 -43q-129 0 -205 75q-78 77 -78 205zM776 514h307q-1 56 -46 97q-43 40 -103 40q-62 0 -106 -39q-45 -40 -52 -98zM287 266q0 -50 34 -80
q35 -30 80 -30q41 0 75 21q31 19 48 44l13 21v106q-55 27 -127 27q-50 0 -87 -31q-36 -30 -36 -78zM637 1081q-38 -15 -53 13l-35 73q-12 23 12 39l334 199q37 24 53 -6l60 -105q18 -40 -13 -55z" />
    <glyph glyph-name="Oslashacute" unicode="&#x1fe;" horiz-adv-x="1636" 
d="M129 47q-26 26 -2 53l133 131q-176 206 -176 484q0 308 214 523q214 216 521 216q273 0 484 -180l139 137q26 27 53 0l21 -20q25 -25 0 -54l-140 -139q180 -211 180 -481q0 -307 -215 -522t-522 -215q-283 0 -483 178l-133 -133q-27 -24 -53 2zM453 424l661 659
q-135 105 -295 105q-193 0 -331 -139t-138 -334q0 -161 103 -291zM526 348q129 -102 293 -102q193 0 332 139t139 332q0 168 -104 291zM676 1573q-36 -16 -51 14l-37 72q-12 24 12 39l336 200q37 22 53 -6l58 -106q22 -38 -13 -55z" />
    <glyph glyph-name="oslashacute" unicode="&#x1ff;" horiz-adv-x="958" 
d="M334 1081q-38 -15 -53 13l-35 73q-12 23 12 39l334 199q37 24 53 -6l60 -105q18 -40 -13 -55zM104 49q-27 28 -2 53l45 45q-86 118 -86 267q0 175 124 300q125 126 296 126q143 0 258 -95l54 54q24 29 53 0l20 -21q29 -24 0 -53l-53 -53q86 -118 86 -258
q0 -178 -123 -306t-295 -128q-145 0 -260 92l-43 -45q-11 -11 -27 -11q-17 0 -28 13zM307 311l275 277q-43 30 -101 30q-83 0 -139 -59q-57 -60 -57 -145q0 -59 22 -103zM379 229q44 -28 102 -28q83 0 139 62t56 151q0 50 -23 96z" />
    <glyph glyph-name="Scommaaccent" unicode="&#x218;" horiz-adv-x="1110" 
d="M113 139q-29 29 -11 62l74 127q11 20 35 23q23 3 35 -9l10 -6q23 -16 24 -17q4 -2 15 -9t18 -11t20.5 -12t20.5 -12q9 -5 47 -22q28 -13 52 -20q31 -10 51 -13q30 -5 51 -5q81 0 133 46q53 47 53 112q0 75 -63 134q-63 58 -197 111q-169 68 -278 175q-107 105 -107 268
q0 156 118 274q119 119 343 119q226 0 410 -137q13 -7 18 -31q4 -22 -6 -37l-78 -116q-33 -49 -72 -25q-181 113 -284 113q-81 0 -131 -45q-49 -45 -49 -99q0 -73 57 -125q58 -54 184 -104q86 -33 153 -71q63 -35 133 -90q66 -52 105 -131q37 -75 37 -171q0 -166 -131 -286
q-129 -119 -340 -119q-119 0 -222 34q-105 35 -151 65q-41 28 -77 60zM563 -186q68 0 119 -53t51 -167q0 -207 -184 -370q-26 -20 -47 2l-31 29q-21 24 6 47q19 14 46 39q25 23 60 86q33 59 33 124l-4 -2q-3 0 -9 -2q-3 -1 -13 -3q-3 -1 -9 -1.5t-9 -0.5q-6 -1 -19 -1
q-56 0 -96 40q-41 41 -41 95q0 58 42 98q41 40 105 40z" />
    <glyph glyph-name="scommaaccent" unicode="&#x219;" horiz-adv-x="745" 
d="M90 55q-24 21 -12 43l55 111q12 32 47 14q91 -49 187 -49q69 0 69 51q0 28 -28 49q-27 20 -109 54q-231 90 -231 270q0 103 76 172q78 70 225 70q154 0 252 -64q34 -22 18 -55l-51 -105q-14 -26 -49 -14q-90 43 -170 43q-70 0 -70 -47q0 -25 19 -37q25 -15 79 -37
q11 -4 15 -6q136 -52 206 -116t70 -173q0 -106 -88 -178q-87 -71 -238 -71q-173 0 -272 75zM377 -186q68 0 119 -53t51 -167q0 -207 -184 -370q-27 -21 -48 2l-30 29q-21 24 6 47q19 14 46 39q23 21 59 86q34 61 34 124l-4 -2q-3 0 -9 -2q-1 -1 -14 -3q-3 -1 -8.5 -1.5
t-8.5 -0.5q-6 -1 -19 -1q-57 0 -97 40q-41 41 -41 95q0 58 42 98q41 40 106 40z" />
    <glyph glyph-name="uni021A" unicode="&#x21a;" horiz-adv-x="1026" 
d="M379 39v1149h-313q-17 0 -28 11t-11 28v168q0 16 11 27q12 12 28 12h895q15 0 27 -12q11 -11 11 -27v-168q0 -17 -11 -28t-27 -11h-314v-1149q0 -15 -12 -27t-27 -12h-190q-16 0 -28 12q-11 11 -11 27zM504 -186q68 0 119 -53t51 -167q0 -206 -185 -370q-26 -20 -47 2
l-30 29q-21 24 6 47q19 14 46 39q23 21 59 86q34 61 34 124l-4 -2q-3 0 -9 -2q-2 -1 -14 -3q-3 -1 -8.5 -1.5t-8.5 -0.5q-6 -1 -19 -1q-57 0 -97 40q-41 41 -41 95q0 58 42 98q41 40 106 40z" />
    <glyph glyph-name="uni021B" unicode="&#x21b;" horiz-adv-x="708" 
d="M166 244v360h-70q-14 0 -25 11q-12 12 -12 28v137q0 15 11 28q10 11 26 11h70v228q0 15 11 26q12 12 28 12l168 2q14 0 25 -11q12 -12 12 -27v-230h180q39 0 39 -39v-137q0 -16 -12 -28q-11 -11 -27 -11h-180v-328q0 -65 63 -65q40 0 100 22q35 12 45 -22l41 -129
q15 -34 -22 -49q-9 -5 -44 -17q-37 -12 -95 -24q-60 -12 -105 -12q-227 0 -227 264zM395 -186q68 0 119 -53t51 -167q0 -207 -184 -370q-26 -20 -47 2l-31 29q-21 24 6 47q19 14 46 39q25 23 60 86q34 61 34 124l-5 -2q-3 0 -9 -2q-3 -1 -13 -3q-3 -1 -9 -1.5t-9 -0.5
q-6 -1 -19 -1q-56 0 -96 40q-41 41 -41 95q0 58 42 98q41 40 105 40z" />
    <glyph glyph-name="dotlessj" unicode="&#x237;" horiz-adv-x="495" 
d="M123 -221v1001q0 17 11 28t28 11h172q16 0 27 -11q12 -12 12 -28v-1001q0 -196 -107 -305t-274 -109q-73 0 -143 26q-69 25 -99 54q-25 18 -8 47l68 131q15 28 49 10q68 -41 121 -41q68 0 106 49q37 47 37 138z" />
    <glyph glyph-name="circumflex" unicode="&#x2c6;" horiz-adv-x="763" 
d="M129 1083l-53 76q-15 21 12 39l266 207q21 16 43 0l267 -207q27 -18 12 -39l-53 -76q-18 -23 -48 -6l-198 125l-201 -125q-29 -17 -47 6z" />
    <glyph glyph-name="caron" unicode="&#x2c7;" horiz-adv-x="763" 
d="M356 1073l-266 207q-27 18 -12 39l53 76q18 23 47 6l199 -125l201 125q29 17 47 -6l53 -76q15 -21 -12 -39l-267 -207q-21 -16 -43 0z" />
    <glyph glyph-name="uni02C9" unicode="&#x2c9;" horiz-adv-x="847" 
d="M162 1167q-15 0 -28 11q-11 10 -11 26v70q0 39 39 39h524q39 0 39 -39v-70q0 -16 -11 -26q-13 -11 -28 -11h-524z" />
    <glyph glyph-name="breve" unicode="&#x2d8;" horiz-adv-x="708" 
d="M354 1081q-110 0 -190 69t-96 173q-5 18 6 32q10 13 30 13h76q27 0 35 -29q16 -49 53 -78q38 -30 86 -30q44 0 82 32q36 31 53 76q6 29 35 29h80q19 0 29 -13q10 -12 8 -32q-16 -104 -97 -173t-190 -69z" />
    <glyph glyph-name="dotaccent" unicode="&#x2d9;" horiz-adv-x="448" 
d="M223 1098q-61 0 -104 43t-43 104q0 62 43 105t104 43q62 0 105 -43t43 -105q0 -61 -43 -104t-105 -43z" />
    <glyph glyph-name="ring" unicode="&#x2da;" horiz-adv-x="593" 
d="M297 991q-96 0 -164 68q-67 67 -67 164q0 96 67 163q68 68 164 68t164 -68q67 -67 67 -163q0 -97 -67 -164q-68 -68 -164 -68zM297 1120q38 0 69 31q29 29 29 72q0 39 -29 68q-30 30 -69 30q-42 0 -72 -30t-30 -68q0 -40 31 -71q32 -32 71 -32z" />
    <glyph glyph-name="ogonek" unicode="&#x2db;" horiz-adv-x="565" 
d="M219 29h131q-13 -9 -35 -31q-21 -20 -55 -79q-35 -59 -35 -116q0 -55 36 -93t99 -38q17 0 95 19q16 4 28 -6q13 -11 13 -29v-62q0 -26 -29 -38q-83 -21 -135 -21q-113 0 -187 57q-73 57 -73 168q0 76 37 141q40 71 73 97z" />
    <glyph glyph-name="tilde" unicode="&#x2dc;" horiz-adv-x="778" 
d="M143 1151l-59 43q-24 18 -12 47q22 40 25 45q8 13 39 52q32 40 68 57q38 18 81 18q59 0 121 -56q63 -57 98 -57q25 0 43 20t27 39t27 31q17 11 36 -6l57 -41q26 -20 2 -63q-62 -107 -123 -137q-36 -19 -75 -19q-56 0 -126 58q-69 57 -98 57t-51 -31q-32 -45 -37 -52
q-17 -21 -43 -5z" />
    <glyph glyph-name="hungarumlaut" unicode="&#x2dd;" horiz-adv-x="802" 
d="M459 1067q-23 0 -33 11q-10 12 -6 28l76 289q12 39 39 39h155q28 0 39 -17q10 -16 -2 -35l-160 -284q-15 -31 -37 -31h-71zM119 1067q-23 0 -33 11q-10 12 -6 28l76 289q12 39 39 39h155q28 0 39 -16q10 -15 -2 -36l-160 -284q-15 -31 -37 -31h-71z" />
    <glyph glyph-name="uni0394" unicode="&#x394;" horiz-adv-x="1439" 
d="M59 88l621 1348q10 20 33 20h18q23 0 33 -20l618 -1352q17 -31 7 -57q-11 -27 -48 -27h-1228q-41 0 -57 22q-15 21 3 66zM410 244h622l-313 696h-2z" />
    <glyph glyph-name="uni03A9" unicode="&#x3a9;" horiz-adv-x="1599" 
d="M68 37v180q0 15 11 26t25 11h177q-97 67 -158 201q-62 136 -62 274q0 305 214 515q215 210 524 210t523 -210t214 -515q0 -141 -62 -274q-63 -136 -161 -201h180q15 0 26 -11t11 -26v-180q0 -17 -11 -27t-26 -10h-553q-35 0 -35 37v110q0 26 7 40q8 17 14 21q10 7 28 17
q144 69 228 206t84 284q0 189 -139 331q-137 140 -328 140t-330 -140t-139 -331q0 -148 84 -283q84 -136 227 -207q15 -8 30 -17q6 -3 14 -20q7 -14 7 -41v-110q0 -37 -37 -37h-551q-14 0 -25 10t-11 27z" />
    <glyph glyph-name="uni03BC" unicode="&#x3bc;" horiz-adv-x="1073" 
d="M371 -8v-567q0 -15 -12 -27t-27 -12h-168q-16 0 -28 12q-11 11 -11 27v1355q0 17 11 28t28 11h168q16 0 27 -11q12 -12 12 -28v-407q5 -77 43 -118q39 -42 106 -42q61 0 108 47q45 45 56 107v413q0 24 10 31q11 8 35 8h156q16 0 27 -11q12 -12 12 -28v-741q0 -15 -12 -27
t-27 -12h-76q-27 0 -39 31l-25 67q-6 -6 -15 -14q-3 -3 -10 -9.5t-10 -8.5q-18 -14 -25 -19q-25 -17 -31 -20q-3 -2 -9 -5.5t-12.5 -7t-12.5 -6.5q-20 -10 -43 -15q-14 -3 -50 -9q-24 -4 -56 -4q-53 0 -100 12z" />
    <glyph glyph-name="pi" unicode="&#x3c0;" horiz-adv-x="1394" 
d="M248 37v567h-158q-14 0 -25 11q-12 12 -12 26v141q0 17 10 27t27 10h1174q34 0 34 -35v-143q0 -37 -34 -37h-170v-567q0 -16 -11 -27q-10 -10 -26 -10h-182q-15 0 -26 11t-11 26v567h-334v-567q0 -15 -11 -26t-26 -11h-182q-15 0 -26 10t-11 27z" />
    <glyph glyph-name="Wgrave" unicode="&#x1e80;" horiz-adv-x="1841" 
d="M446 8l-387 1376q-6 21 4 35q11 15 33 15h189q29 0 37 -29l213 -817h8l325 844q7 22 35 22h37q28 0 35 -22l328 -844h8l209 817q8 29 36 29h189q23 0 33 -15q10 -14 4 -35l-387 -1376q-6 -28 -37 -28h-33q-28 0 -35 22l-366 928h-11l-362 -928q-10 -22 -35 -22h-33
q-30 0 -37 28zM1065 1573l-358 158q-35 17 -13 55l58 106q16 28 53 6l336 -200q24 -15 12 -39l-37 -72q-15 -30 -51 -14z" />
    <glyph glyph-name="wgrave" unicode="&#x1e81;" horiz-adv-x="1261" 
d="M293 2l-256 770q-8 22 2 34q10 13 33 13h147q31 0 37 -24l123 -367h2l209 393q8 19 33 19h16q22 0 33 -19l207 -393h2l123 367q8 24 47 24h133q22 0 34 -13q11 -12 3 -34l-256 -770q-7 -22 -37 -22h-8q-22 0 -33 18l-258 477h-2l-256 -477q-11 -18 -33 -18h-10
q-28 0 -35 22zM772 1081l-358 158q-34 17 -13 55l58 105q16 30 53 6l336 -199q24 -12 12 -39l-37 -73q-12 -29 -51 -13z" />
    <glyph glyph-name="Wacute" unicode="&#x1e82;" horiz-adv-x="1841" 
d="M446 8l-387 1376q-6 21 4 35q11 15 33 15h189q29 0 37 -29l213 -817h8l325 844q7 22 35 22h37q28 0 35 -22l328 -844h8l209 817q8 29 36 29h189q23 0 33 -15q10 -14 4 -35l-387 -1376q-6 -28 -37 -28h-33q-28 0 -35 22l-366 928h-11l-362 -928q-10 -22 -35 -22h-33
q-30 0 -37 28zM776 1573q-36 -16 -51 14l-37 72q-12 24 12 39l336 200q38 22 54 -6l57 -106q22 -39 -12 -55z" />
    <glyph glyph-name="wacute" unicode="&#x1e83;" horiz-adv-x="1261" 
d="M293 2l-256 770q-8 22 2 34q10 13 33 13h147q31 0 37 -24l123 -367h2l209 393q8 19 33 19h16q22 0 33 -19l207 -393h2l123 367q8 24 47 24h133q22 0 34 -13q11 -12 3 -34l-256 -770q-7 -22 -37 -22h-8q-22 0 -33 18l-258 477h-2l-256 -477q-11 -18 -33 -18h-10
q-28 0 -35 22zM485 1081q-38 -15 -53 13l-35 73q-12 22 13 39l333 199q37 24 54 -6l59 -105q18 -40 -12 -55z" />
    <glyph glyph-name="Wdieresis" unicode="&#x1e84;" horiz-adv-x="1841" 
d="M446 8l-387 1376q-6 21 4 35q11 15 33 15h189q29 0 37 -29l213 -817h8l325 844q7 22 35 22h37q28 0 35 -22l328 -844h8l209 817q8 29 36 29h189q23 0 33 -15q10 -14 4 -35l-387 -1376q-6 -28 -37 -28h-33q-28 0 -35 22l-366 928h-11l-362 -928q-10 -22 -35 -22h-33
q-30 0 -37 28zM1171 1587q-53 0 -91 39q-38 40 -38 92q0 53 38 91t91 38t93 -38q39 -37 39 -91q0 -53 -39 -92t-93 -39zM666 1587q-54 0 -92 39q-37 38 -37 92t37 91q38 38 92 38q52 0 92 -38q39 -37 39 -91q0 -53 -39 -92t-92 -39z" />
    <glyph glyph-name="wdieresis" unicode="&#x1e85;" horiz-adv-x="1261" 
d="M293 2l-256 770q-8 22 2 34q10 13 33 13h147q31 0 37 -24l123 -367h2l209 393q8 19 33 19h16q22 0 33 -19l207 -393h2l123 367q8 24 47 24h133q22 0 34 -13q11 -12 3 -34l-256 -770q-7 -22 -37 -22h-8q-22 0 -33 18l-258 477h-2l-256 -477q-11 -18 -33 -18h-10
q-28 0 -35 22zM834 1128q-54 0 -92 39q-37 38 -37 93q0 54 37 91q38 38 92 38q52 0 92 -38q39 -37 39 -91t-39 -93t-92 -39zM422 1128q-54 0 -91 39q-38 40 -38 93t38 91t91 38q52 0 92 -38q39 -37 39 -91t-39 -93t-92 -39z" />
    <glyph glyph-name="Ygrave" unicode="&#x1ef2;" horiz-adv-x="1193" 
d="M461 39v651l-467 684q-12 21 -2 40q11 20 35 20h209q16 0 32 -19l328 -471l328 471q16 19 32 19h211q24 0 35 -20q10 -19 -2 -40l-473 -682v-653q0 -16 -11 -27q-12 -12 -28 -12h-188q-17 0 -28 11t-11 28zM741 1573l-358 158q-34 16 -12 55l57 106q16 28 53 6l336 -200
q24 -15 12 -39l-36 -72q-15 -30 -52 -14z" />
    <glyph glyph-name="ygrave" unicode="&#x1ef3;" horiz-adv-x="948" 
d="M350 57l-334 709q-11 21 1 37t34 16h185q22 0 34 -22l207 -463h2l205 463q12 22 49 22h164q25 0 35 -16t0 -37l-627 -1356q-12 -24 -35 -24h-176q-23 0 -34 17t-1 38zM621 1081l-359 158q-33 16 -12 55l57 105q16 30 53 6l336 -199q25 -12 13 -39l-37 -73
q-12 -29 -51 -13z" />
    <glyph glyph-name="endash" unicode="&#x2013;" horiz-adv-x="1103" 
d="M147 430q-16 0 -27 10t-11 27v76q0 39 38 39h809q39 0 39 -39v-76q0 -17 -11 -27t-28 -10h-809z" />
    <glyph glyph-name="emdash" unicode="&#x2014;" horiz-adv-x="1554" 
d="M147 430q-16 0 -27 10t-11 27v76q0 39 38 39h1260q39 0 39 -39v-76q0 -17 -11 -27t-28 -10h-1260z" />
    <glyph glyph-name="quoteleft" unicode="&#x2018;" horiz-adv-x="405" 
d="M217 848q-66 0 -117 53t-51 168q0 208 184 371q27 21 46 -2l30 -31q21 -24 -6 -45l-10 -10q-7 -5 -17 -15l-18 -18q-12 -12 -21 -24q-2 -3 -9.5 -12t-11.5 -15q-11 -15 -19 -33q-1 -3 -7.5 -15.5t-9.5 -20.5q-8 -19 -12 -42q-4 -20 -4 -45l8 2q10 4 26 6q20 2 29 2
q57 0 97 -40q41 -41 41 -97t-43 -96q-44 -41 -105 -41z" />
    <glyph glyph-name="quoteright" unicode="&#x2019;" horiz-adv-x="401" 
d="M127 866l-29 29q-23 23 4 47q19 14 46 39q25 23 60 86q34 61 34 125h-4q-2 0 -5 -1t-5 -2l-12 -3q-10 -2 -17 -3t-19 -1q-56 0 -97 39q-40 39 -40 96t42 97q41 40 103 40q68 0 119 -52t51 -167q0 -208 -184 -371q-27 -18 -47 2z" />
    <glyph glyph-name="quotesinglbase" unicode="&#x201a;" horiz-adv-x="466" 
d="M76 117q0 56 43 96q44 41 104 41q65 0 118 -53q52 -52 52 -168q0 -208 -184 -371q-26 -20 -47 2l-31 31q-21 23 6 45q21 15 46 40t60 86q33 57 33 124l-4 -2q-6 0 -9 -1t-13 -3l-18 -3q-6 -1 -19 -1q-57 0 -96 39q-41 41 -41 98z" />
    <glyph glyph-name="quotedblleft" unicode="&#x201c;" horiz-adv-x="802" 
d="M612 852q-67 0 -118 52q-52 54 -52 167q0 207 185 371q26 20 47 -2l31 -29q21 -24 -7 -47q-137 -113 -139 -250h4l9 3q1 1 14 3q5 1 17 3q6 1 20 1q56 0 96 -40q41 -41 41 -95q0 -57 -42 -97q-41 -40 -106 -40zM217 852q-66 0 -117 52t-51 167q0 208 184 371q27 21 46 -2
l30 -29q22 -26 -6 -47q-137 -113 -139 -250l8 2l26 5q15 3 29 3q57 0 97 -40q41 -41 41 -95q0 -57 -42 -97q-41 -40 -106 -40z" />
    <glyph glyph-name="quotedblright" unicode="&#x201d;" horiz-adv-x="796" 
d="M522 866l-30 29q-21 24 6 47q19 14 46 39q23 21 59 86q34 61 34 125h-4l-9 -3q-1 -1 -14 -3q-5 -1 -17 -3q-6 -1 -20 -1q-56 0 -96 40q-41 41 -41 95q0 57 42 97q41 40 106 40q67 0 118 -52q52 -54 52 -167q0 -207 -185 -371q-26 -20 -47 2zM127 866l-29 29q-23 23 4 47
q19 14 46 39q25 23 60 86q34 61 34 125h-4q-2 0 -5 -1t-5 -2l-12 -3q-10 -2 -17 -3t-19 -1q-56 0 -97 39q-40 39 -40 96t42 97q41 40 103 40q68 0 119 -52t51 -167q0 -208 -184 -371q-27 -18 -47 2z" />
    <glyph glyph-name="quotedblbase" unicode="&#x201e;" horiz-adv-x="862" 
d="M471 117q0 56 43 96q44 41 104 41q65 0 118 -53q52 -52 52 -168q0 -208 -184 -371q-26 -20 -47 2l-31 31q-21 23 6 45q24 17 47 40q22 22 59 86q34 59 34 124l-4 -2q-7 0 -10 -1t-13 -3q-5 -1 -17 -3q-6 -1 -20 -1q-57 0 -96 39q-41 41 -41 98zM78 117q0 55 42 96
q43 41 103 41q65 0 118 -53q52 -52 52 -168q0 -208 -184 -371q-27 -18 -47 2l-29 31q-23 23 4 45q19 14 47 40q26 25 60 86q32 58 32 124l-10 -2q-8 -5 -22 -6q-20 -2 -29 -2q-58 0 -97 39q-40 40 -40 98z" />
    <glyph glyph-name="dagger" unicode="&#x2020;" horiz-adv-x="1265" 
d="M141 586q-14 0 -26 12q-13 13 -13 27v155q0 14 13 27q12 12 26 12h348v576q0 14 12 26q13 13 27 13h197q15 0 28 -13q11 -11 11 -26v-576h362q15 0 26 -11t11 -28v-155q0 -17 -11 -28t-26 -11h-376l-66 -1168q0 -12 -12 -22q-11 -10 -27 -10h-37q-15 0 -26 10
q-13 11 -13 22l-65 1168h-363z" />
    <glyph glyph-name="daggerdbl" unicode="&#x2021;" horiz-adv-x="1265" 
d="M164 41v154q0 14 12 26t27 12h317l-31 582v2h-348q-15 0 -26 11q-13 13 -13 28v156q0 14 13 27q12 12 26 12h348v344q0 14 12 26q13 13 27 13h197q15 0 28 -13q11 -11 11 -26v-344h362q14 0 26 -12q11 -11 11 -27v-156q0 -17 -11 -28t-26 -11h-362l-31 -584h332
q15 0 26 -11t11 -27v-154q0 -17 -11 -28t-26 -11h-348l-33 -584q0 -12 -12 -22q-11 -10 -27 -10h-37q-15 0 -26 10q-13 11 -13 22l-34 584h-332q-16 0 -27 11q-12 12 -12 28z" />
    <glyph glyph-name="bullet" unicode="&#x2022;" horiz-adv-x="796" 
d="M393 195q-107 0 -185 78q-79 79 -79 186q0 111 79 191q80 81 185 81q113 0 193 -80t80 -192q0 -109 -80 -187q-78 -77 -193 -77z" />
    <glyph glyph-name="ellipsis" unicode="&#x2026;" horiz-adv-x="1368" 
d="M977 127q0 61 43 104t104 43q62 0 105 -43t43 -104q0 -60 -43 -103q-44 -44 -105 -44q-60 0 -104 44q-43 43 -43 103zM541 127q0 61 43 104t102 43q63 0 106 -43q44 -44 44 -104q0 -59 -44 -103t-106 -44q-58 0 -102 44q-43 43 -43 103zM96 127q0 61 43 104t103 43
q62 0 105 -43q44 -44 44 -104q0 -59 -44 -103t-105 -44q-59 0 -103 44q-43 43 -43 103z" />
    <glyph glyph-name="perthousand" unicode="&#x2030;" horiz-adv-x="2019" 
d="M365 901q-115 0 -196 81t-81 196q0 114 81 195t196 81q114 0 195 -81t81 -195q0 -115 -81 -196t-195 -81zM256 55l702 1358q10 21 35 21h103q21 0 33 -18q11 -17 1 -38l-706 -1358q-10 -20 -35 -20h-98q-23 0 -34 17t-1 38zM365 1077q41 0 69 30q29 31 29 71q0 37 -29 68
q-28 30 -69 30q-40 0 -71 -29q-30 -29 -30 -69q0 -41 30 -71t71 -30zM1382 256q0 115 81 196q80 80 196 80q115 0 196 -80q82 -81 82 -196t-82 -196q-81 -80 -196 -80q-116 0 -196 80q-81 81 -81 196zM762 256q0 115 81 196q80 80 195 80q116 0 197 -80q82 -81 82 -196
t-82 -196q-81 -80 -197 -80q-115 0 -195 80q-81 81 -81 196zM1561 256q0 -42 28 -71t70 -29t71 29t29 71t-29 70t-71 28t-70 -29t-28 -69zM938 256q0 -41 30 -71q29 -29 70 -29q42 0 71 29q30 30 30 71q0 39 -30 69q-29 29 -71 29q-41 0 -70 -28q-30 -28 -30 -70z" />
    <glyph glyph-name="guilsinglleft" unicode="&#x2039;" horiz-adv-x="555" 
d="M266 80l-213 317q-16 22 0 49l223 304q15 24 37 24h117q28 0 35 -19q8 -20 -4 -44l-139 -285l133 -301q12 -25 3 -43q-10 -19 -34 -19h-127q-19 0 -31 17z" />
    <glyph glyph-name="guilsinglright" unicode="&#x203a;" horiz-adv-x="555" 
d="M129 63q-25 0 -34 19q-9 18 3 43l133 301l-139 285q-12 24 -4 44q7 19 35 19h117q21 0 36 -24l224 -304q16 -27 0 -49l-213 -317q-12 -17 -31 -17h-127z" />
    <glyph glyph-name="fraction" unicode="&#x2044;" horiz-adv-x="251" 
d="M-123 20q-10 -20 -35 -20h-98q-23 0 -34 17t-1 38l703 1358q10 21 34 21h103q22 0 34 -18q11 -17 1 -38z" />
    <glyph glyph-name="zerosuperior" unicode="&#x2070;" horiz-adv-x="731" 
d="M367 1012q-125 0 -193 86t-68 237q0 152 67 239q66 85 194 85q124 0 190 -85q66 -86 66 -239t-66 -238t-190 -85zM367 1155q90 0 90 180q0 181 -90 181q-91 0 -91 -181q0 -180 91 -180z" />
    <glyph glyph-name="foursuperior" unicode="&#x2074;" horiz-adv-x="757" 
d="M422 1032q-21 0 -21 19v98h-280q-19 0 -19 16v105l334 362q6 6 17 6h84q18 0 18 -18v-348h82q18 0 18 -17v-88q0 -18 -18 -18h-82v-98q0 -19 -18 -19h-115zM252 1270h151v170z" />
    <glyph glyph-name="fivesuperior" unicode="&#x2075;" horiz-adv-x="667" 
d="M311 1012q-128 0 -196 78q-14 14 -2 30l55 68q15 20 31 4q43 -43 116 -43q39 0 65 22q28 23 28 56q0 34 -27 55t-72 21h-151q-31 0 -31 32v285q0 18 18 18h328q19 0 19 -18v-90q0 -19 -19 -19h-211v-79h72q109 0 172 -54q61 -52 61 -149q0 -95 -70 -156t-186 -61z" />
    <glyph glyph-name="sixsuperior" unicode="&#x2076;" horiz-adv-x="684" 
d="M348 1012q-115 0 -180 71q-66 72 -66 183q0 94 41 171q40 76 104 123q62 46 109 70q51 26 86 37q27 7 37 -16l27 -70q8 -26 -19 -33q-52 -16 -123 -57q-68 -40 -90 -94q51 26 113 26q78 0 136 -52q59 -53 59 -146q0 -88 -69 -151q-68 -62 -165 -62zM348 1153q34 0 59 23
q23 22 23 55t-23 56q-24 24 -59 24q-29 0 -57 -20t-35 -42q1 -35 28 -66q25 -30 64 -30z" />
    <glyph glyph-name="sevensuperior" unicode="&#x2077;" horiz-adv-x="659" 
d="M139 1032q-22 0 -22 17v12l237 446h-223q-20 0 -20 17v96q0 18 20 18h408q18 0 18 -18v-29l-270 -540q-11 -19 -31 -19h-117z" />
    <glyph glyph-name="eightsuperior" unicode="&#x2078;" horiz-adv-x="700" 
d="M348 1012q-107 0 -177 50q-69 50 -69 126q0 44 30 81q32 40 53 53q25 15 40 21v3q-39 16 -71 53q-33 37 -33 90q0 77 65 123q67 47 162 47q98 0 165 -47t67 -123q0 -53 -34 -90q-33 -36 -73 -53v-3q49 -16 86 -54q39 -41 39 -101q0 -76 -69 -126q-70 -50 -181 -50z
M350 1405q29 1 48 20q18 18 18 43q0 24 -20 44t-48 20q-26 0 -46 -20q-19 -19 -19 -44q0 -57 67 -63zM350 1139q32 0 55 18t23 47q0 26 -21 49q-22 23 -57 25q-33 -1 -57 -25q-23 -23 -23 -49q0 -29 24 -47t56 -18z" />
    <glyph glyph-name="ninesuperior" unicode="&#x2079;" horiz-adv-x="684" 
d="M242 999q-26 -7 -37 17l-27 69q-8 26 19 33q51 15 124 58q67 39 89 94q-52 -27 -113 -27q-78 0 -136 52q-59 53 -59 147q0 87 69 150t165 63q114 0 180 -72t66 -182q0 -94 -41 -171q-40 -76 -104 -123q-66 -49 -109 -71q-51 -26 -86 -37zM336 1356q31 0 57 19
q28 20 35 42q-1 36 -28 67q-25 29 -64 29q-35 0 -58 -22q-24 -23 -24 -55q0 -33 24 -57q23 -23 58 -23z" />
    <glyph glyph-name="zeroinferior" unicode="&#x2080;" horiz-adv-x="731" 
d="M106 -4q0 151 67 238q66 85 194 85q124 0 190 -85t66 -238q0 -154 -66 -239t-190 -85q-125 0 -193 86t-68 238zM276 -4q0 -180 91 -180q90 0 90 180t-90 180q-91 0 -91 -180z" />
    <glyph glyph-name="oneinferior" unicode="&#x2081;" horiz-adv-x="493" 
d="M106 117l-4 63q0 11 15 23l151 96h105q18 0 18 -18v-570q0 -18 -18 -18h-127q-21 0 -21 18v395l-100 -8q-19 0 -19 19z" />
    <glyph glyph-name="twoinferior" unicode="&#x2082;" horiz-adv-x="647" 
d="M174 143l-45 64q-18 25 6 43q84 69 193 69q97 0 156 -52q61 -53 61 -136q0 -85 -76 -176l-111 -131h164q19 0 19 -19v-94q0 -18 -19 -18h-399q-21 0 -21 18v35l226 258q51 57 51 102q0 31 -23 52q-21 20 -59 20q-52 0 -90 -41q-18 -12 -33 6z" />
    <glyph glyph-name="threeinferior" unicode="&#x2083;" horiz-adv-x="649" 
d="M186 31q0 28 31 28h59q40 0 62 18t22 46q0 26 -21 44q-20 17 -56 17q-44 0 -80 -32q-19 -11 -31 6l-49 59q-22 22 2 37q66 65 182 65q99 0 160 -46t61 -123q0 -52 -31 -89q-30 -36 -73 -55v-2q123 -47 123 -156q0 -82 -69 -129q-70 -47 -171 -47q-117 0 -194 68
q-17 17 -2 37l45 59q12 18 34 4l7 -4q2 -1 6 -3.5t7 -3.5l20 -10q15 -6 27 -8q20 -4 30 -4q86 0 86 64q0 68 -97 68h-59q-31 0 -31 28v64z" />
    <glyph glyph-name="fourinferior" unicode="&#x2084;" horiz-adv-x="757" 
d="M102 -70l334 363q6 6 17 6h84q18 0 18 -18v-349h82q18 0 18 -16v-88q0 -18 -18 -18h-82v-99q0 -18 -18 -18h-115q-21 0 -21 18v99h-280q-19 0 -19 16v104zM252 -70h151v170z" />
    <glyph glyph-name="fiveinferior" unicode="&#x2085;" horiz-adv-x="667" 
d="M127 -4v285q0 18 18 18h328q19 0 19 -18v-91q0 -18 -19 -18h-211v-80h72q110 0 172 -53q61 -52 61 -150q0 -94 -70 -155q-71 -62 -186 -62q-128 0 -196 78q-14 14 -2 31l55 67q15 21 31 5q43 -43 116 -43q39 0 65 22q28 23 28 55q0 35 -27 56q-26 20 -72 20h-151
q-31 0 -31 33z" />
    <glyph glyph-name="sixinferior" unicode="&#x2086;" horiz-adv-x="684" 
d="M102 -74q0 94 41 171q40 76 104 123q66 49 109 71q51 26 86 37q26 7 37 -17l27 -69q8 -26 -19 -33q-52 -16 -123 -57q-68 -40 -90 -95q52 27 113 27q78 0 136 -52q59 -53 59 -147q0 -87 -69 -150t-165 -63q-114 0 -180 72t-66 182zM256 -90q1 -36 28 -67q25 -29 64 -29
q36 0 59 22t23 55q0 34 -23 57t-59 23q-31 0 -57 -19q-28 -20 -35 -42z" />
    <glyph glyph-name="seveninferior" unicode="&#x2087;" horiz-adv-x="659" 
d="M131 168q-20 0 -20 16v97q0 18 20 18h408q18 0 18 -18v-29l-270 -541q-11 -18 -31 -18h-117q-22 0 -22 16v12l237 447h-223z" />
    <glyph glyph-name="eightinferior" unicode="&#x2088;" horiz-adv-x="700" 
d="M102 -152q0 44 30 81q33 42 53 54q25 15 40 21v2q-39 16 -71 53q-33 38 -33 91q0 76 65 122q67 47 162 47q98 0 165 -47t67 -122q0 -54 -34 -91q-33 -36 -73 -53v-2q49 -16 86 -54q39 -40 39 -102q0 -76 -69 -126q-70 -50 -181 -50q-107 0 -177 50q-69 50 -69 126z
M283 129q0 -57 67 -63q29 1 48 20q18 18 18 43q0 24 -20 44t-48 20q-26 0 -46 -20q-19 -19 -19 -44zM270 -135q0 -29 24 -47q25 -19 56 -19q32 0 56 19q22 18 22 47q0 27 -21 49q-22 23 -57 25q-33 -1 -57 -25q-23 -23 -23 -49z" />
    <glyph glyph-name="nineinferior" unicode="&#x2089;" horiz-adv-x="684" 
d="M102 102q0 88 69 151q68 62 165 62q115 0 180 -71q66 -72 66 -183q0 -94 -41 -171q-39 -74 -104 -122q-66 -49 -109 -71q-51 -26 -86 -37q-27 -7 -37 16l-27 70q-8 26 19 33q54 16 124 57q67 39 89 94q-51 -26 -113 -26q-78 0 -136 52q-59 53 -59 146zM254 96
q0 -32 24 -56t58 -24q29 0 57 20t35 42q-1 35 -28 66q-26 30 -64 30q-35 0 -58 -22q-24 -22 -24 -56z" />
    <glyph glyph-name="Euro" unicode="&#x20ac;" horiz-adv-x="1470" 
d="M78 512q-15 0 -26 11t-11 28v27q0 16 11 27t26 11h80q-6 50 -6 99q0 23 2 43h-76q-15 0 -26 11t-11 28v26q0 17 11 28t26 11h88q51 256 255 424t470 168q283 0 495 -190q31 -30 3 -58l-123 -127q-27 -29 -56 0q-131 119 -313 119q-156 0 -274 -94t-162 -242h477
q17 0 28 -11t11 -28v-30q0 -17 -11 -27t-28 -10h-498v-35q0 -59 11 -105h405q17 0 28 -11t11 -27v-29q0 -17 -11 -27t-28 -10h-369q56 -119 165 -191q111 -73 247 -73q169 0 313 117q28 24 52 0l127 -132q12 -12 11 -27q-2 -17 -13 -28q-205 -198 -498 -198q-254 0 -448 149
q-196 151 -263 383h-102z" />
    <glyph glyph-name="afii61289" unicode="&#x2113;" horiz-adv-x="1034" 
d="M193 315q0 32 8 115q-53 -15 -90 -22q-30 -5 -31 22l-10 78q-5 35 30 41q94 17 131 31q17 94 33 174q69 348 170 525q100 175 254 175q110 0 173 -77t63 -208q0 -248 -163 -421q-165 -175 -413 -269q-18 -91 -18 -160q0 -85 38 -143q38 -57 115 -57q155 0 301 90
q35 21 54 -10l28 -43q15 -18 15 -29q0 -10 -19 -27q-27 -21 -63 -41q-49 -27 -134 -52q-91 -27 -182 -27q-147 0 -219 96q-71 95 -71 239zM375 623q187 83 299 220t112 326q0 67 -26 105q-27 39 -72 39q-185 0 -293 -582z" />
    <glyph glyph-name="trademark" unicode="&#x2122;" horiz-adv-x="1476" 
d="M692 788q-20 0 -32 15t-7 33l107 577q5 31 39 31h8q27 0 35 -23l178 -379l182 379q11 23 35 23h8q34 0 39 -31l109 -579q2 -19 -10 -32q-12 -14 -29 -14h-80q-31 0 -39 35l-45 256l-131 -278q-8 -19 -33 -19h-12q-24 0 -35 21l-125 276l-49 -258q-1 -11 -14 -22t-25 -11
h-74zM297 788q-16 0 -28 12q-11 11 -11 27v455h-131q-17 0 -28 11t-11 28v74q0 15 11 26q13 13 28 13h420q15 0 27 -12t12 -27v-74q0 -39 -39 -39h-131v-455q0 -15 -12 -27t-27 -12h-80z" />
    <glyph glyph-name="Omega" unicode="&#x2126;" horiz-adv-x="1599" 
d="M68 37v180q0 15 11 26t25 11h177q-97 67 -158 201q-62 136 -62 274q0 305 214 515q215 210 524 210t523 -210t214 -515q0 -141 -62 -274q-63 -136 -161 -201h180q15 0 26 -11t11 -26v-180q0 -17 -11 -27t-26 -10h-553q-35 0 -35 37v110q0 26 7 40q8 17 14 21q10 7 28 17
q144 69 228 206t84 284q0 189 -139 331q-137 140 -328 140t-330 -140t-139 -331q0 -148 84 -283q84 -136 227 -207q15 -8 30 -17q6 -3 14 -20q7 -14 7 -41v-110q0 -37 -37 -37h-551q-14 0 -25 10t-11 27z" />
    <glyph glyph-name="estimated" unicode="&#x212e;" horiz-adv-x="1685" 
d="M307 344q76 -106 208 -169q130 -62 278 -62q222 0 413 166q31 31 58 4l43 -45q23 -24 -13 -60q-213 -198 -501 -198q-312 0 -528 213t-216 522q0 311 216 525q215 214 528 214q309 0 525 -217t220 -528q0 -60 -49 -60h-1182v-305zM307 778h975v307q-84 108 -212 171
t-277 63q-312 0 -486 -229v-312z" />
    <glyph glyph-name="onethird" unicode="&#x2153;" horiz-adv-x="1404" 
d="M242 55l702 1358q10 21 35 21h102q22 0 34 -18q11 -17 1 -38l-706 -1358q-10 -20 -35 -20h-99q-22 0 -33 17t-1 38zM246 827q-21 0 -21 19v395l-100 -8q-19 0 -19 18l-4 64q0 10 15 22l151 97h105q18 0 18 -19v-569q0 -19 -18 -19h-127zM885 47q-17 17 -2 37l45 59
q13 19 35 4l4 -4q2 -1 15 -7l20 -10q15 -6 27 -8q15 -3 30 -3q86 0 86 63q0 68 -96 68h-60q-31 0 -31 28v64q0 29 31 29h60q40 0 61 17q23 18 23 46q0 25 -22 44q-21 18 -56 18q-43 0 -80 -33q-19 -11 -31 6l-49 59q-22 22 2 37q67 66 182 66q99 0 160 -46t61 -124
q0 -51 -31 -88q-32 -38 -73 -56v-2q123 -47 123 -155q0 -82 -69 -129q-70 -47 -171 -47q-118 0 -194 67z" />
    <glyph glyph-name="twothirds" unicode="&#x2154;" horiz-adv-x="1404" 
d="M35 827q-21 0 -21 19v35l226 258q51 57 51 102q0 30 -23 51t-59 21q-52 0 -90 -41q-18 -12 -33 6l-45 63q-18 25 6 43q85 70 193 70q97 0 156 -52q61 -53 61 -136q0 -85 -76 -176l-111 -132h164q19 0 19 -18v-94q0 -19 -19 -19h-399zM242 55l702 1358q10 21 35 21h102
q22 0 34 -18q11 -17 1 -38l-706 -1358q-10 -20 -35 -20h-99q-22 0 -33 17t-1 38zM885 47q-17 17 -2 37l45 59q13 19 35 4l4 -4q2 -1 15 -7l20 -10q15 -6 27 -8q15 -3 30 -3q86 0 86 63q0 68 -96 68h-60q-31 0 -31 28v64q0 29 31 29h60q40 0 61 17q23 18 23 46q0 25 -22 44
q-21 18 -56 18q-43 0 -80 -33q-19 -11 -31 6l-49 59q-22 22 2 37q67 66 182 66q99 0 160 -46t61 -124q0 -51 -31 -88q-32 -38 -73 -56v-2q123 -47 123 -155q0 -82 -69 -129q-70 -47 -171 -47q-118 0 -194 67z" />
    <glyph glyph-name="oneeighth" unicode="&#x215b;" horiz-adv-x="1433" 
d="M242 55l702 1358q10 21 35 21h102q22 0 34 -18q11 -17 1 -38l-706 -1358q-10 -20 -35 -20h-99q-22 0 -33 17t-1 38zM246 827q-21 0 -21 19v395l-100 -8q-19 0 -19 18l-4 64q0 10 15 22l151 97h105q18 0 18 -19v-569q0 -19 -18 -19h-127zM881 156q0 45 29 81q31 38 54 53
q25 15 40 21v2q-39 17 -72 54t-33 90q0 77 66 123q67 47 161 47q98 0 165 -47t67 -123q0 -53 -34 -90q-35 -38 -73 -54v-2q49 -16 86 -54q39 -40 39 -101q0 -77 -68 -126q-70 -50 -182 -50q-107 0 -177 50q-68 49 -68 126zM1061 436q0 -57 67 -63q31 2 49 20q17 17 17 43
q0 25 -19 44q-20 20 -49 20q-26 0 -46 -20q-19 -19 -19 -44zM1049 172q0 -30 23 -47q25 -19 56 -19q32 0 56 19q22 18 22 47q0 26 -21 49q-22 23 -57 25q-33 -1 -57 -25q-22 -22 -22 -49z" />
    <glyph glyph-name="threeeighths" unicode="&#x215c;" horiz-adv-x="1433" 
d="M246 807q-119 0 -195 67q-17 17 -2 37l45 60q13 19 35 4l6 -4q2 -1 6 -3.5t7 -3.5q1 0 8.5 -4.5t12.5 -6.5q15 -6 27 -8q15 -3 29 -3q86 0 86 64q0 67 -96 67h-59q-31 0 -31 29v63q0 29 31 29h59q40 0 61 17q23 18 23 46q0 27 -21 45q-20 17 -57 17q-43 0 -80 -33
q-18 -10 -30 6l-50 60q-22 22 2 37q66 65 183 65q99 0 160 -46t61 -124q0 -50 -32 -88q-30 -36 -73 -55v-2q123 -47 123 -156q0 -83 -68 -129q-70 -47 -171 -47zM242 55l702 1358q10 21 35 21h102q22 0 34 -18q11 -17 1 -38l-706 -1358q-10 -20 -35 -20h-99q-22 0 -33 17
t-1 38zM881 156q0 45 29 81q31 38 54 53q25 15 40 21v2q-39 17 -72 54t-33 90q0 77 66 123q67 47 161 47q98 0 165 -47t67 -123q0 -53 -34 -90q-35 -38 -73 -54v-2q49 -16 86 -54q39 -40 39 -101q0 -77 -68 -126q-70 -50 -182 -50q-107 0 -177 50q-68 49 -68 126zM1061 436
q0 -57 67 -63q31 2 49 20q17 17 17 43q0 25 -19 44q-20 20 -49 20q-26 0 -46 -20q-19 -19 -19 -44zM1049 172q0 -30 23 -47q25 -19 56 -19q32 0 56 19q22 18 22 47q0 26 -21 49q-22 23 -57 25q-33 -1 -57 -25q-22 -22 -22 -49z" />
    <glyph glyph-name="fiveeighths" unicode="&#x215d;" horiz-adv-x="1433" 
d="M244 55l702 1358q10 21 35 21h102q22 0 34 -18q11 -17 1 -38l-706 -1358q-10 -20 -35 -20h-98q-23 0 -34 17t-1 38zM248 807q-129 0 -197 78q-14 14 -2 30l55 68q15 20 31 4q43 -43 117 -43q36 0 64 23t28 55q0 34 -27 55t-71 21h-152q-31 0 -31 32v285q0 19 19 19h328
q18 0 18 -19v-90q0 -18 -18 -18h-211v-80h71q110 0 172 -53t62 -150q0 -94 -71 -156q-70 -61 -185 -61zM883 156q0 45 29 81q31 38 54 53q25 15 40 21v2q-39 17 -72 54t-33 90q0 77 66 123q67 47 161 47q98 0 165 -47t67 -123q0 -53 -34 -90q-35 -38 -73 -54v-2
q49 -16 86 -54q39 -40 39 -101q0 -77 -68 -126q-70 -50 -182 -50q-107 0 -177 50q-68 49 -68 126zM1063 436q0 -57 67 -63q31 2 49 20q17 17 17 43q0 25 -19 44q-20 20 -49 20q-26 0 -46 -20q-19 -19 -19 -44zM1051 172q0 -30 23 -47q25 -19 56 -19q32 0 56 19q22 18 22 47
q0 26 -21 49q-22 23 -57 25q-33 -1 -57 -25q-22 -22 -22 -49z" />
    <glyph glyph-name="seveneighths" unicode="&#x215e;" horiz-adv-x="1433" 
d="M242 55l702 1358q10 21 35 21h102q22 0 34 -18q11 -17 1 -38l-706 -1358q-10 -20 -35 -20h-99q-22 0 -33 17t-1 38zM154 827q-23 0 -23 17v12l238 447h-224q-20 0 -20 16v96q0 19 20 19h408q18 0 18 -19v-29l-270 -540q-11 -19 -31 -19h-116zM881 156q0 45 29 81
q31 38 54 53q25 15 40 21v2q-39 17 -72 54t-33 90q0 77 66 123q67 47 161 47q98 0 165 -47t67 -123q0 -53 -34 -90q-35 -38 -73 -54v-2q49 -16 86 -54q39 -40 39 -101q0 -77 -68 -126q-70 -50 -182 -50q-107 0 -177 50q-68 49 -68 126zM1061 436q0 -57 67 -63q31 2 49 20
q17 17 17 43q0 25 -19 44q-20 20 -49 20q-26 0 -46 -20q-19 -19 -19 -44zM1049 172q0 -30 23 -47q25 -19 56 -19q32 0 56 19q22 18 22 47q0 26 -21 49q-22 23 -57 25q-33 -1 -57 -25q-22 -22 -22 -49z" />
    <glyph glyph-name="partialdiff" unicode="&#x2202;" horiz-adv-x="1167" 
d="M109 449q0 207 125 325q127 119 292 119q135 0 234 -57q-23 79 -82 150q-62 74 -132 121q-72 48 -132 78q-54 27 -105 44q-55 16 -37 59l47 121q12 41 58 29q62 -21 140 -58q76 -36 174 -110q100 -75 179 -169t134 -240t55 -316q0 -241 -128 -404q-127 -161 -360 -161
q-189 0 -325 138q-137 139 -137 331zM340 453q0 -99 69 -169q69 -71 164 -71q115 0 178 92q62 90 62 209q-21 69 -83 123q-62 55 -155 55q-97 0 -166 -70t-69 -169z" />
    <glyph glyph-name="Delta" unicode="&#x2206;" horiz-adv-x="1439" 
d="M59 88l621 1348q10 20 33 20h18q23 0 33 -20l618 -1352q17 -31 7 -57q-11 -27 -48 -27h-1228q-41 0 -57 22q-15 21 3 66zM410 244h622l-313 696h-2z" />
    <glyph glyph-name="product" unicode="&#x220f;" horiz-adv-x="1404" 
d="M100 37v1360q0 15 12 26q13 11 25 11h1131q14 0 24 -12q11 -13 11 -25v-1360q0 -13 -11 -26q-10 -11 -24 -11h-201q-35 0 -35 37v1143h-659v-1143q0 -16 -11 -27q-10 -10 -26 -10h-199q-14 0 -25 10q-12 10 -12 27z" />
    <glyph glyph-name="summation" unicode="&#x2211;" horiz-adv-x="1118" 
d="M102 37v82l570 606l-570 602v70q0 37 35 37h842q16 0 27 -11q10 -10 10 -26v-180q0 -17 -10 -27t-27 -10h-442l342 -322q36 -29 36 -74v-114q0 -34 -36 -70l-342 -346h442q17 0 27 -10t10 -27v-180q0 -17 -10 -27t-27 -10h-842q-35 0 -35 37z" />
    <glyph glyph-name="minus" unicode="&#x2212;" horiz-adv-x="1089" 
d="M141 614q-13 0 -26 13t-13 26v115q0 14 13 27q12 12 26 12h807q15 0 26 -11t11 -28v-115q0 -16 -11 -27q-12 -12 -26 -12h-807z" />
    <glyph glyph-name="uni2215" unicode="&#x2215;" horiz-adv-x="251" 
d="M-123 20q-10 -20 -35 -20h-98q-23 0 -34 17t-1 38l703 1358q10 21 34 21h103q22 0 34 -18q11 -17 1 -38z" />
    <glyph glyph-name="uni2219" unicode="&#x2219;" horiz-adv-x="796" 
d="M395 342q-74 0 -128 54t-54 128q0 78 54 133q54 56 128 56q77 0 133 -56t56 -133q0 -74 -56 -128q-55 -54 -133 -54z" />
    <glyph glyph-name="radical" unicode="&#x221a;" horiz-adv-x="1406" 
d="M475 2l-352 770q-11 18 0 33q10 14 31 14h192q27 0 31 -20l137 -314h10l418 926q8 23 35 23h385q35 0 35 -37v-148q0 -37 -35 -37h-244l-559 -1210q-10 -22 -33 -22h-18q-21 0 -33 22z" />
    <glyph glyph-name="infinity" unicode="&#x221e;" horiz-adv-x="1214" 
d="M389 319q-119 0 -203 84t-84 203t84 203t203 84q125 0 215 -113q99 113 219 113q121 0 205 -84t84 -203t-85 -203t-204 -84q-124 0 -219 113q-89 -113 -215 -113zM709 606q0 -46 30 -76t76 -30q45 0 77 30t32 76t-32 76q-33 31 -77 31q-45 0 -76 -31q-30 -30 -30 -76z
M395 500q45 0 77 30t32 76t-32 76q-33 31 -77 31q-42 0 -73 -31t-31 -76t31 -76q30 -30 73 -30z" />
    <glyph glyph-name="integral" unicode="&#x222b;" horiz-adv-x="804" 
d="M248 -221v1263q0 196 109 304t286 108q130 0 227 -80q25 -25 9 -49l-76 -127q-21 -28 -49 -10q-11 8 -46 21q-37 14 -63 14q-60 0 -100 -46q-41 -47 -41 -137v-1263q0 -195 -111 -303q-112 -109 -287 -109q-130 0 -227 80q-23 23 -8 49l78 127q18 29 49 10q7 -7 44 -21
q35 -13 62 -13q60 0 102 46t42 136z" />
    <glyph glyph-name="approxequal" unicode="&#x2248;" horiz-adv-x="948" 
d="M168 643l-80 68q-24 21 -4 41q1 1 5.5 7t7.5 11q11 14 36 41q27 29 54 51t69 41q43 19 78 19q23 0 40 -4q20 -5 38 -15q5 -3 10.5 -6t10.5 -6t7 -4q8 -5 31 -21q24 -18 25 -18q78 -51 116 -51q60 0 117 96q19 25 47 4l76 -66q20 -20 2 -43q-8 -11 -12 -17q-4 -7 -35 -41
q-27 -30 -54 -51q-29 -23 -68 -40q-41 -18 -77 -18q-20 0 -43 5q-20 4 -40 15t-30 17q-6 4 -31 23q-6 4 -11.5 8t-9.5 7t-5 4q-65 43 -104 43q-61 0 -121 -94q-8 -12 -23 -14t-22 8zM168 238l-80 67q-20 20 -4 41q1 2 5.5 8l7.5 10l36 40q30 33 54 52q28 22 69 40
q40 18 78 18q9 0 29 -2q7 -1 28 -7q15 -5 24 -9q3 -2 11.5 -7t11.5 -7q18 -10 20 -13q1 -1 8 -6t12 -9q4 -3 8.5 -6.5t7.5 -5.5l2 -2q78 -51 116 -51q57 0 117 96q19 25 47 4l76 -65q20 -20 2 -43q-8 -11 -12 -17q-4 -7 -35 -41q-30 -33 -54 -52q-29 -23 -68 -40
q-41 -18 -77 -18q-20 0 -43 5q-20 4 -40 15q-9 5 -30 18q-13 8 -31 22l-26 20q-65 43 -104 43q-66 0 -121 -94q-7 -15 -23 -15q-14 0 -22 11z" />
    <glyph glyph-name="notequal" unicode="&#x2260;" horiz-adv-x="950" 
d="M252 104q-36 17 -21 50l50 106h-140q-16 0 -27 11q-12 12 -12 28v117q0 15 12 27t27 12h232l108 237h-340q-16 0 -27 11q-12 12 -12 28v115q0 15 12 27t27 12h430l72 153q15 35 51 19l25 -13q17 -6 21 -20t-3 -29l-51 -110h123q16 0 28 -12q11 -11 11 -27v-115
q0 -17 -11 -28t-28 -11h-213l-109 -237h322q16 0 28 -12q11 -11 11 -27v-117q0 -17 -11 -28t-28 -11h-412l-69 -151q-15 -33 -52 -17z" />
    <glyph glyph-name="lessequal" unicode="&#x2264;" horiz-adv-x="933" 
d="M47 780q-20 10 -20 35v25q0 22 20 32l809 385q21 10 36 1t15 -31v-148q0 -22 -16 -28l-512 -217l512 -209q16 -10 16 -29v-150q0 -22 -16 -31q-17 -9 -35 1zM61 96q-15 0 -27 12q-11 11 -11 27v115q0 17 11 28t27 11h807q15 0 26 -11t11 -28v-115q0 -16 -11 -27
q-12 -12 -26 -12h-807z" />
    <glyph glyph-name="greaterequal" unicode="&#x2265;" horiz-adv-x="933" 
d="M74 416q-18 -10 -35 -1q-16 9 -16 31v150q0 19 16 29l512 209l-512 217q-16 6 -16 28v148q0 22 15 31t36 -1l809 -385q20 -10 20 -32v-25q0 -25 -20 -35zM61 96q-13 0 -25 12q-11 11 -11 27v115q0 17 11 28t25 11h807q17 0 28 -11t11 -28v-115q0 -16 -11 -27
q-12 -12 -28 -12h-807z" />
    <glyph glyph-name="lozenge" unicode="&#x25ca;" horiz-adv-x="1439" 
d="M188 639q-38 50 -26 113q7 29 37 71l481 613q10 20 33 20h18q23 0 33 -20l481 -611q47 -64 37 -118q-5 -32 -39 -78l-479 -609q-10 -20 -33 -20h-18q-22 0 -33 20zM719 342h4l293 385l-293 389h-4l-293 -389z" />
    <glyph glyph-name="uniF8FF" unicode="&#xf8ff;" horiz-adv-x="1226" 
d="M102 61v1311q0 62 62 62h899q61 0 61 -62v-1311q0 -61 -61 -61h-899q-62 0 -62 61zM537 643q0 -25 28 -25h74q31 0 31 27v53q0 34 33 66q35 33 74 58q39 24 74 75q34 49 34 109q0 97 -73 162t-183 65q-51 0 -96 -13t-75 -31q-32 -19 -53 -36q-16 -13 -32 -31l-11 -14
q-17 -25 0 -37l46 -45q18 -12 34 0l2 2q2 2 6 5.5t8 6.5l19 19q3 3 24 17t31 18q18 7 37 11q25 5 45 5q59 0 93 -31q32 -29 32 -75q0 -43 -31 -80t-70 -62t-70 -66t-31 -94v-59zM502 319q0 -41 29 -69q31 -29 69 -29q40 0 71 29q29 28 29 69q0 42 -29 70q-31 29 -71 29
q-38 0 -69 -29q-29 -28 -29 -70z" />
    <glyph glyph-name="CR" horiz-adv-x="0" 
 />
    <glyph glyph-name="grave.cap" horiz-adv-x="618" 
d="M459 1573l-359 158q-34 16 -12 55l57 106q17 28 54 6l336 -200q24 -15 12 -39l-37 -72q-15 -30 -51 -14z" />
    <glyph glyph-name="acute.cap" horiz-adv-x="618" 
d="M172 1573q-36 -16 -51 14l-37 72q-12 24 12 39l336 200q37 22 53 -6l58 -106q22 -38 -13 -55z" />
    <glyph glyph-name="circumflex.cap" horiz-adv-x="763" 
d="M176 1569q-29 -17 -47 6l-53 76q-15 21 12 39l266 206q21 16 43 0l267 -206q27 -18 12 -39l-53 -76q-18 -23 -48 -6l-198 125z" />
    <glyph glyph-name="caron.cap" horiz-adv-x="763" 
d="M356 1565l-266 207q-27 18 -12 38l53 76q18 23 47 6l199 -125l201 125q29 17 47 -6l53 -76q15 -20 -12 -38l-267 -207q-21 -16 -43 0z" />
    <glyph glyph-name="caron.alt" horiz-adv-x="763" 
d="M367 1454q67 0 118 -52q52 -54 52 -167q0 -207 -185 -371q-26 -20 -47 2l-31 29q-21 24 7 47q19 14 46 39q23 21 59 86q34 61 34 125h-4l-9 -3q-1 -1 -14 -3q-5 -1 -17 -3q-6 -1 -20 -1q-56 0 -96 40q-41 41 -41 95q0 57 42 97q41 40 106 40z" />
    <glyph glyph-name="tilde.cap" horiz-adv-x="778" 
d="M143 1616l-59 43q-24 18 -12 47q22 40 25 45q8 13 39 52q32 40 68 57q38 18 81 18q59 0 121 -56q63 -57 98 -57q25 0 43 20q18 19 27 39q8 17 27 30q18 12 36 -5l57 -41q26 -20 2 -63q-62 -107 -123 -137q-36 -19 -75 -19q-56 0 -126 58q-69 57 -98 57t-51 -31
q-32 -45 -37 -52q-17 -21 -43 -5z" />
    <glyph glyph-name="dieresis.cap" horiz-adv-x="970" 
d="M737 1587q-53 0 -91 39q-38 40 -38 92q0 53 38 91t91 38q52 0 92 -38q39 -37 39 -91q0 -53 -39 -92t-92 -39zM231 1587q-53 0 -91 39q-38 40 -38 92q0 53 38 91t91 38t93 -38q38 -37 38 -91t-38 -92q-39 -39 -93 -39z" />
    <glyph glyph-name="macron.cap" horiz-adv-x="847" 
d="M162 1655q-17 0 -28 10t-11 27v69q0 39 39 39h524q39 0 39 -39v-69q0 -17 -11 -27t-28 -10h-524z" />
    <glyph glyph-name="breve.cap" horiz-adv-x="708" 
d="M354 1569q-112 0 -190 68q-80 69 -96 173q-5 19 7 31t29 12h76q28 0 35 -28q18 -50 53 -78q39 -31 86 -31q43 0 81 32q37 31 54 77q6 28 35 28h80q18 0 29 -12q10 -11 8 -31q-16 -104 -97 -173q-80 -68 -190 -68z" />
    <glyph glyph-name="ring.cap" horiz-adv-x="593" 
d="M297 1544q-96 0 -164 68q-67 67 -67 164q0 96 67 163q68 68 164 68t164 -68q67 -67 67 -163q0 -97 -67 -164q-68 -68 -164 -68zM297 1673q38 0 69 31q29 29 29 72q0 39 -29 68q-30 30 -69 30q-42 0 -72 -30t-30 -68q0 -40 31 -71q32 -32 71 -32z" />
    <glyph glyph-name="hungarumlaut.cap" horiz-adv-x="802" 
d="M451 1573q-23 0 -33 11q-10 12 -6 28l75 289q12 38 39 38h156q29 0 39 -16t-2 -35l-160 -284q-15 -31 -37 -31h-71zM111 1573q-23 0 -33 11q-10 12 -6 28l75 289q12 38 39 38h156q28 0 39 -15q10 -15 -2 -36l-160 -284q-15 -31 -37 -31h-71z" />
    <glyph glyph-name="dotaccent.cap" horiz-adv-x="448" 
d="M223 1599q-61 0 -104 43t-43 105q0 61 43 104t104 43q62 0 105 -43t43 -104q0 -62 -43 -105t-105 -43z" />
    <glyph glyph-name="cedilla.cap" horiz-adv-x="505" 
d="M111 0h135v-106q93 -12 146 -69q52 -56 52 -142q0 -90 -63 -153q-62 -62 -154 -62q-94 0 -155 71q-28 29 6 58l41 34q22 22 43 -2q22 -24 61 -24q30 0 51 22q21 23 21 54q0 88 -150 100q-34 4 -34 37v182z" />
    <glyph glyph-name="ogonek.cap" horiz-adv-x="565" 
d="M219 29h131q-13 -9 -35 -31q-21 -20 -55 -79q-35 -59 -35 -116q0 -55 36 -93t99 -38q17 0 95 19q16 4 28 -6q13 -11 13 -29v-62q0 -26 -29 -38q-83 -21 -135 -21q-113 0 -187 57q-73 57 -73 168q0 76 37 141q40 71 73 97z" />
    <glyph glyph-name="commaaccent" horiz-adv-x="598" 
d="M299 -186q68 0 119 -53t51 -167q0 -207 -184 -370q-26 -20 -47 2l-31 29q-21 24 6 47q19 14 46 39q23 21 59 86q34 61 34 124l-4 -2q-3 0 -9 -2q-3 -1 -13 -3q-3 -1 -9 -1.5t-9 -0.5q-6 -1 -19 -1q-56 0 -96 40q-41 41 -41 95q0 58 42 98q41 40 105 40z" />
    <glyph glyph-name="commaaccent.alt" horiz-adv-x="598" 
d="M299 -186q68 0 119 -53t51 -167q0 -207 -184 -370q-26 -20 -47 2l-31 29q-21 24 6 47q19 14 46 39q23 21 59 86q34 61 34 124l-4 -2q-3 0 -9 -2q-3 -1 -13 -3q-3 -1 -9 -1.5t-9 -0.5q-6 -1 -19 -1q-56 0 -96 40q-41 41 -41 95q0 58 42 98q41 40 105 40z" />
    <glyph glyph-name="commaaccent.cap" horiz-adv-x="598" 
d="M299 -186q68 0 119 -53t51 -167q0 -207 -184 -370q-26 -20 -47 2l-31 29q-21 24 6 47q19 14 46 39q23 21 59 86q34 61 34 124l-4 -2q-3 0 -9 -2q-3 -1 -13 -3q-3 -1 -9 -1.5t-9 -0.5q-6 -1 -19 -1q-56 0 -96 40q-41 41 -41 95q0 58 42 98q41 40 105 40z" />
    <glyph glyph-name="brokenbar.case" horiz-adv-x="645" 
d="M309 1049q-16 0 -27 11q-12 12 -12 25v678q0 16 12 28q11 11 27 11h27q16 0 26 -11q11 -13 11 -28v-678q0 -13 -12 -25q-11 -11 -27 -11h-25zM270 346q0 16 12 28q11 11 27 11h27q16 0 26 -11q11 -13 11 -28v-678q0 -13 -12 -25t-27 -12h-25q-15 0 -27 12t-12 25v678z
" />
    <glyph glyph-name="zero.tf" horiz-adv-x="1236" 
d="M618 -20q-245 0 -380 189q-136 190 -136 527q0 338 136 528q135 189 380 189q246 0 381 -189q136 -190 136 -528q0 -337 -136 -527q-135 -189 -381 -189zM618 221q120 0 184 123q64 122 64 352q0 228 -64 352q-64 123 -184 123q-119 0 -183 -123q-64 -124 -64 -352
q0 -230 64 -352q65 -123 183 -123z" />
    <glyph glyph-name="one.tf" horiz-adv-x="1236" 
d="M266 0q-16 0 -27 10q-12 10 -12 27v145q0 39 39 39h262v799l-180 -39q-13 -4 -26 4q-14 8 -15 23l-12 100q-2 25 10 37l295 248h143q14 0 26 -12q11 -11 11 -27v-1133h221q39 0 39 -39v-145q0 -17 -11 -27t-28 -10h-735z" />
    <glyph glyph-name="two.tf" horiz-adv-x="1236" 
d="M145 39v47q199 240 531 682q104 128 104 227q0 76 -56 131q-58 56 -161 56q-118 0 -229 -121q-27 -28 -55 0l-99 98q-26 26 -2 53q5 6 19 22q10 12 53 48q36 30 85 61q47 29 111 49q67 21 136 21q210 0 333 -117t123 -290q0 -66 -20 -123q-22 -64 -44 -99
q-22 -36 -73 -110q-71 -98 -352 -455h442q17 0 28 -11t11 -28v-141q0 -16 -11 -27q-12 -12 -28 -12h-807q-16 0 -27 11q-12 12 -12 28z" />
    <glyph glyph-name="three.tf" horiz-adv-x="1236" 
d="M154 162q-21 24 2 51l104 100q29 24 53 0q7 -9 39 -32q38 -27 95 -52q61 -26 118 -26q87 0 152 55t65 137q0 85 -74 144t-208 59h-115q-39 0 -39 41v129q0 41 39 41h115q120 0 187 53t67 135q0 83 -60 136q-61 53 -139 53q-123 0 -207 -99q-25 -29 -55 -2l-100 95
q-29 24 0 53q4 5 18 19q9 9 51 43q41 33 81 56t107 43q63 19 128 19q185 0 310 -103q126 -104 126 -272q0 -108 -66 -195t-145 -124v-6q94 -39 171 -125t77 -209q0 -175 -130 -287t-341 -112q-274 0 -426 182z" />
    <glyph glyph-name="four.tf" horiz-adv-x="1236" 
d="M88 297q-17 0 -28 11t-11 28v170l737 897q12 12 31 12h111q16 0 27 -11q12 -12 12 -28v-872h163q17 0 28 -10t11 -27v-127q0 -17 -11 -28t-28 -11h-163l2 -262q0 -15 -12 -27t-27 -12h-170q-15 0 -27 12t-12 27v258h-633zM319 510h410v491z" />
    <glyph glyph-name="five.tf" horiz-adv-x="1236" 
d="M195 150q-35 39 -5 69l103 100q28 23 49 3q14 -14 41 -34q28 -20 95 -51q66 -30 128 -30q102 0 170 72q68 73 68 170q0 99 -66 164q-67 65 -182 65h-315q-29 0 -47 22q-17 21 -17 50v604q0 16 11 27q12 12 28 12h647q16 0 28 -12q11 -11 11 -27v-140q0 -16 -11 -27
t-28 -11h-454v-273h176q215 0 342 -126t127 -328q0 -195 -144 -332q-145 -137 -352 -137q-145 0 -248 53q-101 52 -155 117z" />
    <glyph glyph-name="six.tf" horiz-adv-x="1236" 
d="M152 545q0 170 55 316q56 148 133 240q79 94 179 169q98 74 174 110q75 36 141 58q45 12 57 -29l47 -121q18 -43 -37 -59q-48 -16 -104 -44q-60 -30 -132 -78t-133 -121q-58 -69 -81 -150q99 57 233 57q165 0 292 -119q126 -118 126 -325q0 -192 -137 -331
q-137 -138 -326 -138q-232 0 -359 161q-128 163 -128 404zM397 514q0 -118 63 -209q63 -92 177 -92q96 0 165 71q68 69 68 169t-68 169q-69 70 -167 70q-93 0 -155 -55q-62 -54 -83 -123z" />
    <glyph glyph-name="seven.tf" horiz-adv-x="1236" 
d="M231 39v22l533 1110h-541q-13 0 -26 13t-13 26v144q0 13 13 26t26 13h852q14 0 27 -13q12 -12 12 -26v-15l-610 -1284q-24 -55 -70 -55h-151q-52 0 -52 39z" />
    <glyph glyph-name="eight.tf" horiz-adv-x="1236" 
d="M131 373q0 115 87 210q87 94 161 132v6q-80 44 -146 126q-65 81 -65 191q0 169 127 272t317 103q196 0 324 -103q129 -103 129 -272q0 -103 -65 -186q-65 -84 -146 -129v-8q91 -46 170 -136q78 -88 78 -206q0 -171 -134 -282t-356 -111q-217 0 -349 111t-132 282z
M616 834q96 22 140 72q47 53 47 122q0 75 -55 124q-56 50 -136 50q-73 0 -128 -50q-54 -50 -54 -124q0 -149 186 -194zM403 377q0 -82 64 -135q65 -54 149 -54q86 0 151 54q62 52 62 135q0 71 -57 133t-156 84q-98 -22 -155 -84q-58 -63 -58 -133z" />
    <glyph glyph-name="nine.tf" horiz-adv-x="1236" 
d="M297 117q-18 43 37 59q48 16 104 44q60 30 132 78q70 47 132 121q59 71 82 150q-99 -57 -233 -57q-165 0 -292 119q-126 119 -126 325q0 192 137 331q137 138 326 138q232 0 359 -161q128 -163 128 -404q0 -170 -55 -316q-56 -148 -133 -240q-79 -94 -179 -169
q-98 -74 -174 -110q-75 -36 -141 -58q-45 -12 -57 29zM600 713q93 0 155 55q62 54 83 123q0 117 -63 209t-177 92q-96 0 -165 -71q-68 -69 -68 -169t68 -169q69 -70 167 -70z" />
    <glyph glyph-name="zero.denom" horiz-adv-x="731" 
d="M106 303q0 152 67 239q66 85 194 85q124 0 190 -85q66 -86 66 -239q0 -152 -66 -238q-66 -85 -190 -85q-125 0 -193 86t-68 237zM367 123q90 0 90 180t-90 180q-91 0 -91 -180t91 -180z" />
    <glyph glyph-name="one.denom" horiz-adv-x="493" 
d="M225 18v396l-100 -8q-19 0 -19 18l-4 63q0 11 15 23l151 96h105q18 0 18 -18v-570q0 -18 -18 -18h-127q-21 0 -21 18z" />
    <glyph glyph-name="two.denom" horiz-adv-x="647" 
d="M102 18v35l226 258q51 57 51 103q0 30 -23 51q-21 20 -59 20q-52 0 -90 -41q-17 -12 -33 7l-45 63q-18 25 6 43q85 70 193 70q95 0 156 -53t61 -136q0 -85 -76 -176l-111 -131h164q19 0 19 -18v-95q0 -18 -19 -18h-399q-21 0 -21 18z" />
    <glyph glyph-name="three.denom" horiz-adv-x="649" 
d="M113 47q-17 17 -2 37l45 59q12 18 34 4l7 -4q2 -1 6 -3.5t7 -3.5l20 -10q15 -6 27 -8q15 -3 30 -3q86 0 86 63q0 68 -97 68h-59q-31 0 -31 28v64q0 29 31 29h59q41 0 62 17q22 18 22 46q0 26 -21 44t-56 18q-42 0 -80 -33q-19 -11 -31 6l-49 59q-22 22 2 37q67 66 182 66
q99 0 160 -46t61 -124q0 -51 -31 -88q-32 -38 -73 -56v-2q123 -47 123 -155q0 -82 -69 -129q-70 -47 -171 -47q-118 0 -194 67z" />
    <glyph glyph-name="four.denom" horiz-adv-x="757" 
d="M102 133v105l334 362q6 6 17 6h84q18 0 18 -18v-348h82q18 0 18 -17v-88q0 -18 -18 -18h-82v-99q0 -18 -18 -18h-115q-21 0 -21 18v99h-280q-19 0 -19 16zM252 238h151v170z" />
    <glyph glyph-name="five.denom" horiz-adv-x="667" 
d="M115 57q-14 14 -2 31l55 68q15 20 31 4q43 -43 116 -43q39 0 65 22q28 23 28 56q0 34 -27 55q-26 20 -72 20h-151q-31 0 -31 33v285q0 18 18 18h328q19 0 19 -18v-90q0 -19 -19 -19h-211v-80h72q110 0 172 -53q61 -52 61 -149q0 -95 -70 -156t-186 -61q-129 0 -196 77z
" />
    <glyph glyph-name="six.denom" horiz-adv-x="684" 
d="M102 233q0 94 41 171q40 76 104 123q66 49 109 71q51 26 86 37q26 7 37 -17l27 -69q8 -26 -19 -33q-52 -16 -123 -57q-68 -40 -90 -94q51 26 113 26q78 0 136 -52q59 -53 59 -146q0 -88 -69 -151q-68 -62 -165 -62q-115 0 -180 71q-66 72 -66 182zM256 217q1 -35 28 -66
q26 -30 64 -30q36 0 59 22t23 56q0 33 -23 56q-24 24 -59 24q-29 0 -57 -20t-35 -42z" />
    <glyph glyph-name="seven.denom" horiz-adv-x="659" 
d="M117 16v13l237 446h-223q-20 0 -20 17v96q0 18 20 18h408q18 0 18 -18v-29l-270 -541q-11 -18 -31 -18h-117q-22 0 -22 16z" />
    <glyph glyph-name="eight.denom" horiz-adv-x="700" 
d="M102 156q0 44 30 81q32 40 53 53q25 15 40 21v2q-37 16 -71 54q-33 37 -33 90q0 77 65 123q67 47 162 47q98 0 165 -47t67 -123q0 -53 -34 -90q-35 -38 -73 -54v-2q49 -16 86 -54q39 -40 39 -101q0 -76 -69 -126q-70 -50 -181 -50q-107 0 -177 50q-69 50 -69 126z
M350 373q29 1 48 20q18 18 18 43q0 24 -20 44t-48 20q-26 0 -46 -20q-19 -19 -19 -44q0 -57 67 -63zM270 172q0 -29 24 -47q25 -19 56 -19q32 0 56 19q22 18 22 47q0 26 -21 49q-22 23 -57 25q-33 -1 -57 -25q-23 -23 -23 -49z" />
    <glyph glyph-name="nine.denom" horiz-adv-x="684" 
d="M178 53q-8 26 19 33q54 16 124 57q67 39 89 95q-52 -27 -113 -27q-78 0 -136 52q-59 53 -59 147q0 87 69 150t165 63q114 0 180 -72t66 -182q0 -94 -41 -171q-40 -76 -104 -123q-66 -49 -109 -71q-51 -26 -86 -37q-26 -7 -37 17zM336 324q31 0 57 19q28 20 35 42
q-1 36 -28 67q-25 29 -64 29q-35 0 -58 -22q-24 -23 -24 -56q0 -32 24 -56q23 -23 58 -23z" />
    <glyph glyph-name="zero.num" horiz-adv-x="731" 
d="M367 807q-125 0 -193 86t-68 237q0 152 67 239q66 85 194 85q124 0 190 -85t66 -239q0 -152 -66 -238q-66 -85 -190 -85zM367 950q90 0 90 180q0 181 -90 181q-91 0 -91 -181q0 -180 91 -180z" />
    <glyph glyph-name="one.num" horiz-adv-x="493" 
d="M246 827q-21 0 -21 19v395l-100 -8q-19 0 -19 18l-4 64q0 10 15 22l151 97h105q18 0 18 -19v-569q0 -19 -18 -19h-127z" />
    <glyph glyph-name="two.num" horiz-adv-x="647" 
d="M123 827q-21 0 -21 19v35l226 258q51 57 51 102q0 30 -23 51q-22 21 -59 21q-52 0 -90 -41q-18 -12 -33 6l-45 63q-18 25 6 43q85 70 193 70q97 0 156 -52q61 -53 61 -136q0 -85 -76 -176l-111 -132h164q19 0 19 -18v-94q0 -19 -19 -19h-399z" />
    <glyph glyph-name="three.num" horiz-adv-x="649" 
d="M307 807q-118 0 -194 67q-17 17 -2 37l45 60q12 18 34 4l7 -4q2 -1 6 -3.5t7 -3.5q2 -1 8.5 -5t11.5 -6q15 -6 27 -8q15 -3 30 -3q86 0 86 64q0 67 -97 67h-59q-31 0 -31 29v63q0 29 31 29h59q41 0 62 17q22 18 22 46q0 27 -21 45q-20 17 -56 17q-42 0 -80 -33
q-19 -11 -31 6l-49 60q-22 22 2 37q66 65 182 65q99 0 160 -46t61 -124q0 -51 -31 -88q-30 -36 -73 -55v-2q123 -47 123 -156q0 -83 -69 -129q-70 -47 -171 -47z" />
    <glyph glyph-name="four.num" horiz-adv-x="757" 
d="M422 827q-21 0 -21 19v98h-280q-19 0 -19 17v104l334 362q7 7 17 7h84q18 0 18 -19v-348h82q18 0 18 -16v-88q0 -19 -18 -19h-82v-98q0 -19 -18 -19h-115zM252 1065h151v170z" />
    <glyph glyph-name="five.num" horiz-adv-x="667" 
d="M311 807q-128 0 -196 78q-14 14 -2 30l55 68q15 20 31 4q43 -43 116 -43q37 0 65 23t28 55q0 34 -27 55t-72 21h-151q-31 0 -31 32v285q0 19 18 19h328q19 0 19 -19v-90q0 -18 -19 -18h-211v-80h72q110 0 172 -53q61 -52 61 -150q0 -95 -70 -156t-186 -61z" />
    </font>
</defs>
</svg>
